if (_typeface_js && _typeface_js.loadFace) _typeface_js.loadFace({"glyphs":{"0":{"ha":683,"x_min":0,"x_max":0,"o":"m 169 215 b 126 258 169 239 150 258 b 83 215 103 258 83 239 b 126 172 83 192 103 172 b 169 215 150 172 169 192 z m 169 301 b 126 344 169 325 150 344 b 83 301 103 344 83 325 b 126 258 83 278 103 258 b 169 301 150 258 169 278 z m 169 388 b 126 431 169 411 150 431 b 83 388 103 431 83 411 b 126 344 83 364 103 344 b 169 388 150 344 169 364 z m 169 474 b 126 517 169 497 150 517 b 83 474 103 517 83 497 b 126 431 83 450 103 431 b 169 474 150 431 169 450 z m 169 560 b 126 603 169 583 150 603 b 83 560 103 603 83 583 b 126 517 83 536 103 517 b 169 560 150 517 169 536 z m 169 646 b 126 689 169 669 150 689 b 83 646 103 689 83 669 b 126 603 83 622 103 603 b 169 646 150 603 169 622 z m 169 732 b 126 775 169 756 150 775 b 83 732 103 775 83 756 b 126 689 83 708 103 689 b 169 732 150 689 169 708 z m 169 129 b 126 172 169 153 150 172 b 83 129 103 172 83 153 b 126 86 83 106 103 86 b 169 129 150 86 169 106 z m 256 43 b 213 86 256 67 236 86 b 169 43 189 86 169 67 b 213 0 169 19 189 0 b 256 43 236 0 256 19 z m 256 818 b 213 861 256 842 236 861 b 169 818 189 861 169 842 b 213 775 169 794 189 775 b 256 818 236 775 256 794 z m 342 43 b 299 86 342 67 322 86 b 256 43 275 86 256 67 b 299 0 256 19 275 0 b 342 43 322 0 342 19 z m 342 818 b 299 861 342 842 322 861 b 256 818 275 861 256 842 b 299 775 256 794 275 775 b 342 818 322 775 342 794 z m 428 43 b 385 86 428 67 408 86 b 342 43 361 86 342 67 b 385 0 342 19 361 0 b 428 43 408 0 428 19 z m 428 818 b 385 861 428 842 408 861 b 342 818 361 861 342 842 b 385 775 342 794 361 775 b 428 818 408 775 428 794 z m 514 43 b 471 86 514 67 494 86 b 428 43 447 86 428 67 b 471 0 428 19 447 0 b 514 43 494 0 514 19 z m 514 818 b 471 861 514 842 494 861 b 428 818 447 861 428 842 b 471 775 428 794 447 775 b 514 818 494 775 514 794 z m 600 215 b 557 258 600 239 581 258 b 514 215 533 258 514 239 b 557 172 514 192 533 172 b 600 215 581 172 600 192 z m 600 301 b 557 344 600 325 581 344 b 514 301 533 344 514 325 b 557 258 514 278 533 258 b 600 301 581 258 600 278 z m 600 388 b 557 431 600 411 581 431 b 514 388 533 431 514 411 b 557 344 514 364 533 344 b 600 388 581 344 600 364 z m 600 474 b 557 517 600 497 581 517 b 514 474 533 517 514 497 b 557 431 514 450 533 431 b 600 474 581 431 600 450 z m 600 560 b 557 603 600 583 581 603 b 514 560 533 603 514 583 b 557 517 514 536 533 517 b 600 560 581 517 600 536 z m 600 646 b 557 689 600 669 581 689 b 514 646 533 689 514 669 b 557 603 514 622 533 603 b 600 646 581 603 600 622 z m 600 732 b 557 775 600 756 581 775 b 514 732 533 775 514 756 b 557 689 514 708 533 689 b 600 732 581 689 600 708 z m 600 129 b 557 172 600 153 581 172 b 514 129 533 172 514 153 b 557 86 514 106 533 86 b 600 129 581 86 600 106 z "},"1":{"ha":342,"x_min":0,"x_max":0,"o":"m 258 43 b 215 86 258 67 239 86 b 172 43 192 86 172 67 b 215 0 172 19 192 0 b 258 43 239 0 258 19 z m 258 215 b 215 258 258 239 239 258 b 172 215 192 258 172 239 b 215 172 172 192 192 172 b 258 215 239 172 258 192 z m 258 301 b 215 344 258 325 239 344 b 172 301 192 344 172 325 b 215 258 172 278 192 258 b 258 301 239 258 258 278 z m 258 388 b 215 431 258 411 239 431 b 172 388 192 431 172 411 b 215 344 172 364 192 344 b 258 388 239 344 258 364 z m 258 474 b 215 517 258 497 239 517 b 172 474 192 517 172 497 b 215 431 172 450 192 431 b 258 474 239 431 258 450 z m 258 560 b 215 603 258 583 239 603 b 172 560 192 603 172 583 b 215 517 172 536 192 517 b 258 560 239 517 258 536 z m 258 646 b 215 689 258 669 239 689 b 172 646 192 689 172 669 b 215 603 172 622 192 603 b 258 646 239 603 258 622 z m 258 732 b 215 775 258 756 239 775 b 172 732 192 775 172 756 b 215 689 172 708 192 689 b 258 732 239 689 258 708 z m 258 818 b 215 861 258 842 239 861 b 172 818 192 861 172 842 b 215 775 172 794 192 775 b 258 818 239 775 258 794 z m 258 129 b 215 172 258 153 239 172 b 172 129 192 172 172 153 b 215 86 172 106 192 86 b 258 129 239 86 258 106 z m 172 732 b 129 775 172 756 153 775 b 86 732 106 775 86 756 b 129 689 86 708 106 689 b 172 732 153 689 172 708 z m 86 646 b 43 689 86 669 67 689 b 0 646 19 689 0 669 b 43 603 0 622 19 603 b 86 646 67 603 86 622 z "},"2":{"ha":600,"x_min":0,"x_max":0,"o":"m 128 43 b 85 86 128 67 108 86 b 42 43 61 86 42 67 b 85 0 42 19 61 0 b 128 43 108 0 128 19 z m 128 646 b 85 689 128 669 108 689 b 42 646 61 689 42 669 b 85 603 42 622 61 603 b 128 646 108 603 128 622 z m 128 732 b 85 775 128 756 108 775 b 42 732 61 775 42 756 b 85 689 42 708 61 689 b 128 732 108 689 128 708 z m 128 129 b 85 172 128 153 108 172 b 42 129 61 172 42 153 b 85 86 42 106 61 86 b 128 129 108 86 128 106 z m 214 43 b 171 86 214 67 194 86 b 128 43 147 86 128 67 b 171 0 128 19 147 0 b 214 43 194 0 214 19 z m 214 215 b 171 258 214 239 194 258 b 128 215 147 258 128 239 b 171 172 128 192 147 172 b 214 215 194 172 214 192 z m 214 818 b 171 861 214 842 194 861 b 128 818 147 861 128 842 b 171 775 128 794 147 775 b 214 818 194 775 214 794 z m 300 43 b 257 86 300 67 281 86 b 214 43 233 86 214 67 b 257 0 214 19 233 0 b 300 43 281 0 300 19 z m 300 301 b 257 344 300 325 281 344 b 214 301 233 344 214 325 b 257 258 214 278 233 258 b 300 301 281 258 300 278 z m 300 818 b 257 861 300 842 281 861 b 214 818 233 861 214 842 b 257 775 214 794 233 775 b 300 818 281 775 300 794 z m 386 43 b 343 86 386 67 367 86 b 300 43 319 86 300 67 b 343 0 300 19 319 0 b 386 43 367 0 386 19 z m 386 388 b 343 431 386 411 367 431 b 300 388 319 431 300 411 b 343 344 300 364 319 344 b 386 388 367 344 386 364 z m 386 818 b 343 861 386 842 367 861 b 300 818 319 861 300 842 b 343 775 300 794 319 775 b 386 818 367 775 386 794 z m 472 43 b 429 86 472 67 453 86 b 386 43 406 86 386 67 b 429 0 386 19 406 0 b 472 43 453 0 472 19 z m 472 474 b 429 517 472 497 453 517 b 386 474 406 517 386 497 b 429 431 386 450 406 431 b 472 474 453 431 472 450 z m 472 818 b 429 861 472 842 453 861 b 386 818 406 861 386 842 b 429 775 386 794 406 775 b 472 818 453 775 472 794 z m 558 43 b 515 86 558 67 539 86 b 472 43 492 86 472 67 b 515 0 472 19 492 0 b 558 43 539 0 558 19 z m 558 560 b 515 603 558 583 539 603 b 472 560 492 603 472 583 b 515 517 472 536 492 517 b 558 560 539 517 558 536 z m 558 646 b 515 689 558 669 539 689 b 472 646 492 689 472 669 b 515 603 472 622 492 603 b 558 646 539 603 558 622 z m 558 732 b 515 775 558 756 539 775 b 472 732 492 775 472 756 b 515 689 472 708 492 689 b 558 732 539 689 558 708 z "},"3":{"ha":628,"x_min":0,"x_max":0,"o":"m 114 732 b 71 775 114 756 94 775 b 28 732 47 775 28 756 b 71 689 28 708 47 689 b 114 732 94 689 114 708 z m 114 818 b 71 861 114 842 94 861 b 28 818 47 861 28 842 b 71 775 28 794 47 775 b 114 818 94 775 114 794 z m 114 129 b 71 172 114 153 94 172 b 28 129 47 172 28 153 b 71 86 28 106 47 86 b 114 129 94 86 114 106 z m 200 43 b 157 86 200 67 181 86 b 114 43 133 86 114 67 b 157 0 114 19 133 0 b 200 43 181 0 200 19 z m 200 818 b 157 861 200 842 181 861 b 114 818 133 861 114 842 b 157 775 114 794 133 775 b 200 818 181 775 200 794 z m 286 43 b 243 86 286 67 267 86 b 200 43 219 86 200 67 b 243 0 200 19 219 0 b 286 43 267 0 286 19 z m 286 818 b 243 861 286 842 267 861 b 200 818 219 861 200 842 b 243 775 200 794 219 775 b 286 818 267 775 286 794 z m 372 43 b 329 86 372 67 353 86 b 286 43 306 86 286 67 b 329 0 286 19 306 0 b 372 43 353 0 372 19 z m 372 474 b 329 517 372 497 353 517 b 286 474 306 517 286 497 b 329 431 286 450 306 431 b 372 474 353 431 372 450 z m 372 818 b 329 861 372 842 353 861 b 286 818 306 861 286 842 b 329 775 286 794 306 775 b 372 818 353 775 372 794 z m 458 43 b 415 86 458 67 439 86 b 372 43 392 86 372 67 b 415 0 372 19 392 0 b 458 43 439 0 458 19 z m 458 560 b 415 603 458 583 439 603 b 372 560 392 603 372 583 b 415 517 372 536 392 517 b 458 560 439 517 458 536 z m 458 818 b 415 861 458 842 439 861 b 372 818 392 861 372 842 b 415 775 372 794 392 775 b 458 818 439 775 458 794 z m 544 215 b 501 258 544 239 525 258 b 458 215 478 258 458 239 b 501 172 458 192 478 172 b 544 215 525 172 544 192 z m 544 301 b 501 344 544 325 525 344 b 458 301 478 344 458 325 b 501 258 458 278 478 258 b 544 301 525 258 544 278 z m 544 388 b 501 431 544 411 525 431 b 458 388 478 431 458 411 b 501 344 458 364 478 344 b 544 388 525 344 544 364 z m 544 646 b 501 689 544 669 525 689 b 458 646 478 689 458 669 b 501 603 458 622 478 603 b 544 646 525 603 544 622 z m 544 732 b 501 775 544 756 525 775 b 458 732 478 775 458 756 b 501 689 458 708 478 689 b 544 732 525 689 544 708 z m 544 818 b 501 861 544 842 525 861 b 458 818 478 861 458 842 b 501 775 458 794 478 775 b 544 818 525 775 544 794 z m 544 129 b 501 172 544 153 525 172 b 458 129 478 172 458 153 b 501 86 458 106 478 86 b 544 129 525 86 544 106 z "},"4":{"ha":572,"x_min":0,"x_max":0,"o":"m 114 215 b 71 258 114 239 94 258 b 28 215 47 258 28 239 b 71 172 28 192 47 172 b 114 215 94 172 114 192 z m 114 301 b 71 344 114 325 94 344 b 28 301 47 344 28 325 b 71 258 28 278 47 258 b 114 301 94 258 114 278 z m 200 215 b 157 258 200 239 181 258 b 114 215 133 258 114 239 b 157 172 114 192 133 172 b 200 215 181 172 200 192 z m 200 388 b 157 431 200 411 181 431 b 114 388 133 431 114 411 b 157 344 114 364 133 344 b 200 388 181 344 200 364 z m 200 474 b 157 517 200 497 181 517 b 114 474 133 517 114 497 b 157 431 114 450 133 431 b 200 474 181 431 200 450 z m 286 215 b 243 258 286 239 267 258 b 200 215 219 258 200 239 b 243 172 200 192 219 172 b 286 215 267 172 286 192 z m 286 560 b 243 603 286 583 267 603 b 200 560 219 603 200 583 b 243 517 200 536 219 517 b 286 560 267 517 286 536 z m 286 646 b 243 689 286 669 267 689 b 200 646 219 689 200 669 b 243 603 200 622 219 603 b 286 646 267 603 286 622 z m 372 215 b 329 258 372 239 353 258 b 286 215 306 258 286 239 b 329 172 286 192 306 172 b 372 215 353 172 372 192 z m 372 732 b 329 775 372 756 353 775 b 286 732 306 775 286 756 b 329 689 286 708 306 689 b 372 732 353 689 372 708 z m 458 43 b 415 86 458 67 439 86 b 372 43 392 86 372 67 b 415 0 372 19 392 0 b 458 43 439 0 458 19 z m 458 215 b 415 258 458 239 439 258 b 372 215 392 258 372 239 b 415 172 372 192 392 172 b 458 215 439 172 458 192 z m 458 301 b 415 344 458 325 439 344 b 372 301 392 344 372 325 b 415 258 372 278 392 258 b 458 301 439 258 458 278 z m 458 388 b 415 431 458 411 439 431 b 372 388 392 431 372 411 b 415 344 372 364 392 344 b 458 388 439 344 458 364 z m 458 474 b 415 517 458 497 439 517 b 372 474 392 517 372 497 b 415 431 372 450 392 431 b 458 474 439 431 458 450 z m 458 560 b 415 603 458 583 439 603 b 372 560 392 603 372 583 b 415 517 372 536 392 517 b 458 560 439 517 458 536 z m 458 646 b 415 689 458 669 439 689 b 372 646 392 689 372 669 b 415 603 372 622 392 603 b 458 646 439 603 458 622 z m 458 732 b 415 775 458 756 439 775 b 372 732 392 775 372 756 b 415 689 372 708 392 689 b 458 732 439 689 458 708 z m 458 818 b 415 861 458 842 439 861 b 372 818 392 861 372 842 b 415 775 372 794 392 775 b 458 818 439 775 458 794 z m 458 129 b 415 172 458 153 439 172 b 372 129 392 172 372 153 b 415 86 372 106 392 86 b 458 129 439 86 458 106 z m 544 215 b 501 258 544 239 525 258 b 458 215 478 258 458 239 b 501 172 458 192 478 172 b 544 215 525 172 544 192 z "},"5":{"ha":642,"x_min":0,"x_max":0,"o":"m 142 474 b 99 517 142 497 122 517 b 56 474 75 517 56 497 b 99 431 56 450 75 431 b 142 474 122 431 142 450 z m 142 560 b 99 603 142 583 122 603 b 56 560 75 603 56 583 b 99 517 56 536 75 517 b 142 560 122 517 142 536 z m 142 646 b 99 689 142 669 122 689 b 56 646 75 689 56 669 b 99 603 56 622 75 603 b 142 646 122 603 142 622 z m 142 732 b 99 775 142 756 122 775 b 56 732 75 775 56 756 b 99 689 56 708 75 689 b 142 732 122 689 142 708 z m 142 818 b 99 861 142 842 122 861 b 56 818 75 861 56 842 b 99 775 56 794 75 775 b 142 818 122 775 142 794 z m 142 129 b 99 172 142 153 122 172 b 56 129 75 172 56 153 b 99 86 56 106 75 86 b 142 129 122 86 142 106 z m 228 43 b 185 86 228 67 208 86 b 142 43 161 86 142 67 b 185 0 142 19 161 0 b 228 43 208 0 228 19 z m 228 474 b 185 517 228 497 208 517 b 142 474 161 517 142 497 b 185 431 142 450 161 431 b 228 474 208 431 228 450 z m 228 818 b 185 861 228 842 208 861 b 142 818 161 861 142 842 b 185 775 142 794 161 775 b 228 818 208 775 228 794 z m 314 43 b 271 86 314 67 294 86 b 228 43 247 86 228 67 b 271 0 228 19 247 0 b 314 43 294 0 314 19 z m 314 560 b 271 603 314 583 294 603 b 228 560 247 603 228 583 b 271 517 228 536 247 517 b 314 560 294 517 314 536 z m 314 818 b 271 861 314 842 294 861 b 228 818 247 861 228 842 b 271 775 228 794 247 775 b 314 818 294 775 314 794 z m 400 43 b 357 86 400 67 381 86 b 314 43 333 86 314 67 b 357 0 314 19 333 0 b 400 43 381 0 400 19 z m 400 560 b 357 603 400 583 381 603 b 314 560 333 603 314 583 b 357 517 314 536 333 517 b 400 560 381 517 400 536 z m 400 818 b 357 861 400 842 381 861 b 314 818 333 861 314 842 b 357 775 314 794 333 775 b 400 818 381 775 400 794 z m 486 43 b 443 86 486 67 467 86 b 400 43 419 86 400 67 b 443 0 400 19 419 0 b 486 43 467 0 486 19 z m 486 560 b 443 603 486 583 467 603 b 400 560 419 603 400 583 b 443 517 400 536 419 517 b 486 560 467 517 486 536 z m 486 818 b 443 861 486 842 467 861 b 400 818 419 861 400 842 b 443 775 400 794 419 775 b 486 818 467 775 486 794 z m 572 215 b 529 258 572 239 553 258 b 486 215 506 258 486 239 b 529 172 486 192 506 172 b 572 215 553 172 572 192 z m 572 301 b 529 344 572 325 553 344 b 486 301 506 344 486 325 b 529 258 486 278 506 258 b 572 301 553 258 572 278 z m 572 388 b 529 431 572 411 553 431 b 486 388 506 431 486 411 b 529 344 486 364 506 344 b 572 388 553 344 572 364 z m 572 474 b 529 517 572 497 553 517 b 486 474 506 517 486 497 b 529 431 486 450 506 431 b 572 474 553 431 572 450 z m 572 818 b 529 861 572 842 553 861 b 486 818 506 861 486 842 b 529 775 486 794 506 775 b 572 818 553 775 572 794 z m 572 129 b 529 172 572 153 553 172 b 486 129 506 172 486 153 b 529 86 486 106 506 86 b 572 129 553 86 572 106 z "},"6":{"ha":669,"x_min":0,"x_max":0,"o":"m 169 215 b 126 258 169 239 150 258 b 83 215 103 258 83 239 b 126 172 83 192 103 172 b 169 215 150 172 169 192 z m 169 301 b 126 344 169 325 150 344 b 83 301 103 344 83 325 b 126 258 83 278 103 258 b 169 301 150 258 169 278 z m 169 388 b 126 431 169 411 150 431 b 83 388 103 431 83 411 b 126 344 83 364 103 344 b 169 388 150 344 169 364 z m 169 474 b 126 517 169 497 150 517 b 83 474 103 517 83 497 b 126 431 83 450 103 431 b 169 474 150 431 169 450 z m 169 560 b 126 603 169 583 150 603 b 83 560 103 603 83 583 b 126 517 83 536 103 517 b 169 560 150 517 169 536 z m 169 646 b 126 689 169 669 150 689 b 83 646 103 689 83 669 b 126 603 83 622 103 603 b 169 646 150 603 169 622 z m 169 732 b 126 775 169 756 150 775 b 83 732 103 775 83 756 b 126 689 83 708 103 689 b 169 732 150 689 169 708 z m 169 129 b 126 172 169 153 150 172 b 83 129 103 172 83 153 b 126 86 83 106 103 86 b 169 129 150 86 169 106 z m 256 43 b 213 86 256 67 236 86 b 169 43 189 86 169 67 b 213 0 169 19 189 0 b 256 43 236 0 256 19 z m 256 388 b 213 431 256 411 236 431 b 169 388 189 431 169 411 b 213 344 169 364 189 344 b 256 388 236 344 256 364 z m 256 818 b 213 861 256 842 236 861 b 169 818 189 861 169 842 b 213 775 169 794 189 775 b 256 818 236 775 256 794 z m 342 43 b 299 86 342 67 322 86 b 256 43 275 86 256 67 b 299 0 256 19 275 0 b 342 43 322 0 342 19 z m 342 474 b 299 517 342 497 322 517 b 256 474 275 517 256 497 b 299 431 256 450 275 431 b 342 474 322 431 342 450 z m 342 818 b 299 861 342 842 322 861 b 256 818 275 861 256 842 b 299 775 256 794 275 775 b 342 818 322 775 342 794 z m 428 43 b 385 86 428 67 408 86 b 342 43 361 86 342 67 b 385 0 342 19 361 0 b 428 43 408 0 428 19 z m 428 474 b 385 517 428 497 408 517 b 342 474 361 517 342 497 b 385 431 342 450 361 431 b 428 474 408 431 428 450 z m 428 818 b 385 861 428 842 408 861 b 342 818 361 861 342 842 b 385 775 342 794 361 775 b 428 818 408 775 428 794 z m 514 43 b 471 86 514 67 494 86 b 428 43 447 86 428 67 b 471 0 428 19 447 0 b 514 43 494 0 514 19 z m 514 474 b 471 517 514 497 494 517 b 428 474 447 517 428 497 b 471 431 428 450 447 431 b 514 474 494 431 514 450 z m 514 818 b 471 861 514 842 494 861 b 428 818 447 861 428 842 b 471 775 428 794 447 775 b 514 818 494 775 514 794 z m 600 215 b 557 258 600 239 581 258 b 514 215 533 258 514 239 b 557 172 514 192 533 172 b 600 215 581 172 600 192 z m 600 301 b 557 344 600 325 581 344 b 514 301 533 344 514 325 b 557 258 514 278 533 258 b 600 301 581 258 600 278 z m 600 388 b 557 431 600 411 581 431 b 514 388 533 431 514 411 b 557 344 514 364 533 344 b 600 388 581 344 600 364 z m 600 732 b 557 775 600 756 581 775 b 514 732 533 775 514 756 b 557 689 514 708 533 689 b 600 732 581 689 600 708 z m 600 129 b 557 172 600 153 581 172 b 514 129 533 172 514 153 b 557 86 514 106 533 86 b 600 129 581 86 600 106 z "},"7":{"ha":558,"x_min":0,"x_max":0,"o":"m 100 732 b 57 775 100 756 81 775 b 14 732 33 775 14 756 b 57 689 14 708 33 689 b 100 732 81 689 100 708 z m 100 818 b 57 861 100 842 81 861 b 14 818 33 861 14 842 b 57 775 14 794 33 775 b 100 818 81 775 100 794 z m 186 818 b 143 861 186 842 167 861 b 100 818 119 861 100 842 b 143 775 100 794 119 775 b 186 818 167 775 186 794 z m 272 43 b 229 86 272 67 253 86 b 186 43 206 86 186 67 b 229 0 186 19 206 0 b 272 43 253 0 272 19 z m 272 215 b 229 258 272 239 253 258 b 186 215 206 258 186 239 b 229 172 186 192 206 172 b 272 215 253 172 272 192 z m 272 818 b 229 861 272 842 253 861 b 186 818 206 861 186 842 b 229 775 186 794 206 775 b 272 818 253 775 272 794 z m 272 129 b 229 172 272 153 253 172 b 186 129 206 172 186 153 b 229 86 186 106 206 86 b 272 129 253 86 272 106 z m 358 301 b 315 344 358 325 339 344 b 272 301 292 344 272 325 b 315 258 272 278 292 258 b 358 301 339 258 358 278 z m 358 388 b 315 431 358 411 339 431 b 272 388 292 431 272 411 b 315 344 272 364 292 344 b 358 388 339 344 358 364 z m 358 818 b 315 861 358 842 339 861 b 272 818 292 861 272 842 b 315 775 272 794 292 775 b 358 818 339 775 358 794 z m 444 474 b 401 517 444 497 425 517 b 358 474 378 517 358 497 b 401 431 358 450 378 431 b 444 474 425 431 444 450 z m 444 560 b 401 603 444 583 425 603 b 358 560 378 603 358 583 b 401 517 358 536 378 517 b 444 560 425 517 444 536 z m 444 818 b 401 861 444 842 425 861 b 358 818 378 861 358 842 b 401 775 358 794 378 775 b 444 818 425 775 444 794 z m 531 646 b 488 689 531 669 511 689 b 444 646 464 689 444 669 b 488 603 444 622 464 603 b 531 646 511 603 531 622 z m 531 732 b 488 775 531 756 511 775 b 444 732 464 775 444 756 b 488 689 444 708 464 689 b 531 732 511 689 531 708 z m 531 818 b 488 861 531 842 511 861 b 444 818 464 861 444 842 b 488 775 444 794 464 775 b 531 818 511 775 531 794 z "},"8":{"ha":683,"x_min":0,"x_max":0,"o":"m 169 215 b 126 258 169 239 150 258 b 83 215 103 258 83 239 b 126 172 83 192 103 172 b 169 215 150 172 169 192 z m 169 301 b 126 344 169 325 150 344 b 83 301 103 344 83 325 b 126 258 83 278 103 258 b 169 301 150 258 169 278 z m 169 388 b 126 431 169 411 150 431 b 83 388 103 431 83 411 b 126 344 83 364 103 344 b 169 388 150 344 169 364 z m 169 560 b 126 603 169 583 150 603 b 83 560 103 603 83 583 b 126 517 83 536 103 517 b 169 560 150 517 169 536 z m 169 646 b 126 689 169 669 150 689 b 83 646 103 689 83 669 b 126 603 83 622 103 603 b 169 646 150 603 169 622 z m 169 732 b 126 775 169 756 150 775 b 83 732 103 775 83 756 b 126 689 83 708 103 689 b 169 732 150 689 169 708 z m 169 129 b 126 172 169 153 150 172 b 83 129 103 172 83 153 b 126 86 83 106 103 86 b 169 129 150 86 169 106 z m 256 43 b 213 86 256 67 236 86 b 169 43 189 86 169 67 b 213 0 169 19 189 0 b 256 43 236 0 256 19 z m 256 474 b 213 517 256 497 236 517 b 169 474 189 517 169 497 b 213 431 169 450 189 431 b 256 474 236 431 256 450 z m 256 818 b 213 861 256 842 236 861 b 169 818 189 861 169 842 b 213 775 169 794 189 775 b 256 818 236 775 256 794 z m 342 43 b 299 86 342 67 322 86 b 256 43 275 86 256 67 b 299 0 256 19 275 0 b 342 43 322 0 342 19 z m 342 474 b 299 517 342 497 322 517 b 256 474 275 517 256 497 b 299 431 256 450 275 431 b 342 474 322 431 342 450 z m 342 818 b 299 861 342 842 322 861 b 256 818 275 861 256 842 b 299 775 256 794 275 775 b 342 818 322 775 342 794 z m 428 43 b 385 86 428 67 408 86 b 342 43 361 86 342 67 b 385 0 342 19 361 0 b 428 43 408 0 428 19 z m 428 474 b 385 517 428 497 408 517 b 342 474 361 517 342 497 b 385 431 342 450 361 431 b 428 474 408 431 428 450 z m 428 818 b 385 861 428 842 408 861 b 342 818 361 861 342 842 b 385 775 342 794 361 775 b 428 818 408 775 428 794 z m 514 43 b 471 86 514 67 494 86 b 428 43 447 86 428 67 b 471 0 428 19 447 0 b 514 43 494 0 514 19 z m 514 474 b 471 517 514 497 494 517 b 428 474 447 517 428 497 b 471 431 428 450 447 431 b 514 474 494 431 514 450 z m 514 818 b 471 861 514 842 494 861 b 428 818 447 861 428 842 b 471 775 428 794 447 775 b 514 818 494 775 514 794 z m 600 215 b 557 258 600 239 581 258 b 514 215 533 258 514 239 b 557 172 514 192 533 172 b 600 215 581 172 600 192 z m 600 301 b 557 344 600 325 581 344 b 514 301 533 344 514 325 b 557 258 514 278 533 258 b 600 301 581 258 600 278 z m 600 388 b 557 431 600 411 581 431 b 514 388 533 431 514 411 b 557 344 514 364 533 344 b 600 388 581 344 600 364 z m 600 560 b 557 603 600 583 581 603 b 514 560 533 603 514 583 b 557 517 514 536 533 517 b 600 560 581 517 600 536 z m 600 646 b 557 689 600 669 581 689 b 514 646 533 689 514 669 b 557 603 514 622 533 603 b 600 646 581 603 600 622 z m 600 732 b 557 775 600 756 581 775 b 514 732 533 775 514 756 b 557 689 514 708 533 689 b 600 732 581 689 600 708 z m 600 129 b 557 172 600 153 581 172 b 514 129 533 172 514 153 b 557 86 514 106 533 86 b 600 129 581 86 600 106 z "},"9":{"ha":669,"x_min":0,"x_max":0,"o":"m 500 646 b 543 603 500 622 519 603 b 586 646 567 603 586 622 b 543 689 586 669 567 689 b 500 646 519 689 500 669 z m 500 560 b 543 517 500 536 519 517 b 586 560 567 517 586 536 b 543 603 586 583 567 603 b 500 560 519 603 500 583 z m 500 474 b 543 431 500 450 519 431 b 586 474 567 431 586 450 b 543 517 586 497 567 517 b 500 474 519 517 500 497 z m 500 388 b 543 344 500 364 519 344 b 586 388 567 344 586 364 b 543 431 586 411 567 431 b 500 388 519 431 500 411 z m 500 301 b 543 258 500 278 519 258 b 586 301 567 258 586 278 b 543 344 586 325 567 344 b 500 301 519 344 500 325 z m 500 215 b 543 172 500 192 519 172 b 586 215 567 172 586 192 b 543 258 586 239 567 258 b 500 215 519 258 500 239 z m 500 129 b 543 86 500 106 519 86 b 586 129 567 86 586 106 b 543 172 586 153 567 172 b 500 129 519 172 500 153 z m 500 732 b 543 689 500 708 519 689 b 586 732 567 689 586 708 b 543 775 586 756 567 775 b 500 732 519 775 500 756 z m 414 818 b 457 775 414 794 433 775 b 500 818 481 775 500 794 b 457 861 500 842 481 861 b 414 818 433 861 414 842 z m 414 474 b 457 431 414 450 433 431 b 500 474 481 431 500 450 b 457 517 500 497 481 517 b 414 474 433 517 414 497 z m 414 43 b 457 0 414 19 433 0 b 500 43 481 0 500 19 b 457 86 500 67 481 86 b 414 43 433 86 414 67 z m 328 818 b 371 775 328 794 347 775 b 414 818 394 775 414 794 b 371 861 414 842 394 861 b 328 818 347 861 328 842 z m 328 388 b 371 344 328 364 347 344 b 414 388 394 344 414 364 b 371 431 414 411 394 431 b 328 388 347 431 328 411 z m 328 43 b 371 0 328 19 347 0 b 414 43 394 0 414 19 b 371 86 414 67 394 86 b 328 43 347 86 328 67 z m 242 818 b 285 775 242 794 261 775 b 328 818 308 775 328 794 b 285 861 328 842 308 861 b 242 818 261 861 242 842 z m 242 388 b 285 344 242 364 261 344 b 328 388 308 344 328 364 b 285 431 328 411 308 431 b 242 388 261 431 242 411 z m 242 43 b 285 0 242 19 261 0 b 328 43 308 0 328 19 b 285 86 328 67 308 86 b 242 43 261 86 242 67 z m 156 818 b 199 775 156 794 175 775 b 242 818 222 775 242 794 b 199 861 242 842 222 861 b 156 818 175 861 156 842 z m 156 388 b 199 344 156 364 175 344 b 242 388 222 344 242 364 b 199 431 242 411 222 431 b 156 388 175 431 156 411 z m 156 43 b 199 0 156 19 175 0 b 242 43 222 0 242 19 b 199 86 242 67 222 86 b 156 43 175 86 156 67 z m 69 646 b 113 603 69 622 89 603 b 156 646 136 603 156 622 b 113 689 156 669 136 689 b 69 646 89 689 69 669 z m 69 560 b 113 517 69 536 89 517 b 156 560 136 517 156 536 b 113 603 156 583 136 603 b 69 560 89 603 69 583 z m 69 474 b 113 431 69 450 89 431 b 156 474 136 431 156 450 b 113 517 156 497 136 517 b 69 474 89 517 69 497 z m 69 129 b 113 86 69 106 89 86 b 156 129 136 86 156 106 b 113 172 156 153 136 172 b 69 129 89 172 69 153 z m 69 732 b 113 689 69 708 89 689 b 156 732 136 689 156 708 b 113 775 156 756 136 775 b 69 732 89 775 69 756 z "},"!":{"ha":253,"x_min":0,"x_max":0,"o":"m 169 215 b 126 258 169 239 150 258 b 83 215 103 258 83 239 b 126 172 83 192 103 172 b 169 215 150 172 169 192 z m 169 301 b 126 344 169 325 150 344 b 83 301 103 344 83 325 b 126 258 83 278 103 258 b 169 301 150 258 169 278 z m 169 388 b 126 431 169 411 150 431 b 83 388 103 431 83 411 b 126 344 83 364 103 344 b 169 388 150 344 169 364 z m 169 474 b 126 517 169 497 150 517 b 83 474 103 517 83 497 b 126 431 83 450 103 431 b 169 474 150 431 169 450 z m 169 560 b 126 603 169 583 150 603 b 83 560 103 603 83 583 b 126 517 83 536 103 517 b 169 560 150 517 169 536 z m 169 646 b 126 689 169 669 150 689 b 83 646 103 689 83 669 b 126 603 83 622 103 603 b 169 646 150 603 169 622 z m 169 732 b 126 775 169 756 150 775 b 83 732 103 775 83 756 b 126 689 83 708 103 689 b 169 732 150 689 169 708 z m 169 818 b 126 861 169 842 150 861 b 83 818 103 861 83 842 b 126 775 83 794 103 775 b 169 818 150 775 169 794 z m 185 58 b 126 115 185 89 158 115 b 68 58 94 115 68 89 b 126 0 68 26 94 0 b 185 58 158 0 185 26 z "},"\"":{"ha":358,"x_min":0,"x_max":0,"o":"m 140 607 b 114 632 140 621 128 632 b 88 607 100 632 88 621 b 114 581 88 592 100 581 b 140 607 128 581 140 592 z m 157 689 b 114 732 157 713 138 732 b 71 689 90 732 71 713 b 114 646 71 665 90 646 b 157 689 138 646 157 665 z m 172 804 b 114 861 172 835 146 861 b 56 804 82 861 56 835 b 114 746 56 772 82 746 b 172 804 146 746 172 772 z m 271 607 b 244 632 271 621 258 632 b 218 607 231 632 218 621 b 244 581 218 592 231 581 b 271 607 258 581 271 592 z m 288 689 b 244 732 288 713 268 732 b 201 689 221 732 201 713 b 244 646 201 665 221 646 b 288 689 268 646 288 665 z m 303 804 b 244 861 303 835 276 861 b 186 804 213 861 186 835 b 244 746 186 772 213 746 b 303 804 276 746 303 772 z "},"#":{"ha":628,"x_min":0,"x_max":0,"o":"m 486 43 b 443 86 486 67 467 86 b 400 43 419 86 400 67 b 443 0 400 19 419 0 b 486 43 467 0 486 19 z m 486 129 b 443 172 486 153 467 172 b 400 129 419 172 400 153 b 443 86 400 106 419 86 b 486 129 467 86 486 106 z m 572 215 b 529 258 572 239 553 258 b 486 215 506 258 486 239 b 529 172 486 192 506 172 b 572 215 553 172 572 192 z m 486 215 b 443 258 486 239 467 258 b 400 215 419 258 400 239 b 443 172 400 192 419 172 b 486 215 467 172 486 192 z m 486 301 b 443 344 486 325 467 344 b 400 301 419 344 400 325 b 443 258 400 278 419 258 b 486 301 467 258 486 278 z m 400 215 b 357 258 400 239 381 258 b 314 215 333 258 314 239 b 357 172 314 192 333 172 b 400 215 381 172 400 192 z m 314 215 b 271 258 314 239 294 258 b 228 215 247 258 228 239 b 271 172 228 192 247 172 b 314 215 294 172 314 192 z m 486 388 b 443 431 486 411 467 431 b 400 388 419 431 400 411 b 443 344 400 364 419 344 b 486 388 467 344 486 364 z m 486 474 b 443 517 486 497 467 517 b 400 474 419 517 400 497 b 443 431 400 450 419 431 b 486 474 467 431 486 450 z m 572 646 b 529 689 572 669 553 689 b 486 646 506 689 486 669 b 529 603 486 622 506 603 b 572 646 553 603 572 622 z m 486 560 b 443 603 486 583 467 603 b 400 560 419 603 400 583 b 443 517 400 536 419 517 b 486 560 467 517 486 536 z m 486 646 b 443 689 486 669 467 689 b 400 646 419 689 400 669 b 443 603 400 622 419 603 b 486 646 467 603 486 622 z m 400 646 b 357 689 400 669 381 689 b 314 646 333 689 314 669 b 357 603 314 622 333 603 b 400 646 381 603 400 622 z m 314 646 b 271 689 314 669 294 689 b 228 646 247 689 228 669 b 271 603 228 622 247 603 b 314 646 294 603 314 622 z m 228 43 b 185 86 228 67 208 86 b 142 43 161 86 142 67 b 185 0 142 19 161 0 b 228 43 208 0 228 19 z m 228 129 b 185 172 228 153 208 172 b 142 129 161 172 142 153 b 185 86 142 106 161 86 b 228 129 208 86 228 106 z m 228 215 b 185 258 228 239 208 258 b 142 215 161 258 142 239 b 185 172 142 192 161 172 b 228 215 208 172 228 192 z m 228 301 b 185 344 228 325 208 344 b 142 301 161 344 142 325 b 185 258 142 278 161 258 b 228 301 208 258 228 278 z m 142 215 b 99 258 142 239 122 258 b 56 215 75 258 56 239 b 99 172 56 192 75 172 b 142 215 122 172 142 192 z m 228 388 b 185 431 228 411 208 431 b 142 388 161 431 142 411 b 185 344 142 364 161 344 b 228 388 208 344 228 364 z m 228 474 b 185 517 228 497 208 517 b 142 474 161 517 142 497 b 185 431 142 450 161 431 b 228 474 208 431 228 450 z m 228 560 b 185 603 228 583 208 603 b 142 560 161 603 142 583 b 185 517 142 536 161 517 b 228 560 208 517 228 536 z m 228 646 b 185 689 228 669 208 689 b 142 646 161 689 142 669 b 185 603 142 622 161 603 b 228 646 208 603 228 622 z m 142 646 b 99 689 142 669 122 689 b 56 646 75 689 56 669 b 99 603 56 622 75 603 b 142 646 122 603 142 622 z m 486 732 b 443 775 486 756 467 775 b 400 732 419 775 400 756 b 443 689 400 708 419 689 b 486 732 467 689 486 708 z m 486 818 b 443 861 486 842 467 861 b 400 818 419 861 400 842 b 443 775 400 794 419 775 b 486 818 467 775 486 794 z m 228 732 b 185 775 228 756 208 775 b 142 732 161 775 142 756 b 185 689 142 708 161 689 b 228 732 208 689 228 708 z m 228 818 b 185 861 228 842 208 861 b 142 818 161 861 142 842 b 185 775 142 794 161 775 b 228 818 208 775 228 794 z "},"$":{"ha":614,"x_min":0,"x_max":0,"o":"m 128 560 b 85 603 128 583 108 603 b 42 560 61 603 42 583 b 85 517 42 536 61 517 b 128 560 108 517 128 536 z m 128 646 b 85 689 128 669 108 689 b 42 646 61 689 42 669 b 85 603 42 622 61 603 b 128 646 108 603 128 622 z m 128 732 b 85 775 128 756 108 775 b 42 732 61 775 42 756 b 85 689 42 708 61 689 b 128 732 108 689 128 708 z m 128 129 b 85 172 128 153 108 172 b 42 129 61 172 42 153 b 85 86 42 106 61 86 b 128 129 108 86 128 106 z m 214 43 b 171 86 214 67 194 86 b 128 43 147 86 128 67 b 171 0 128 19 147 0 b 214 43 194 0 214 19 z m 214 474 b 171 517 214 497 194 517 b 128 474 147 517 128 497 b 171 431 128 450 147 431 b 214 474 194 431 214 450 z m 214 818 b 171 861 214 842 194 861 b 128 818 147 861 128 842 b 171 775 128 794 147 775 b 214 818 194 775 214 794 z m 300 43 b 257 86 300 67 281 86 b 214 43 233 86 214 67 b 257 0 214 19 233 0 b 300 43 281 0 300 19 z m 300 474 b 257 517 300 497 281 517 b 214 474 233 517 214 497 b 257 431 214 450 233 431 b 300 474 281 431 300 450 z m 300 818 b 257 861 300 842 281 861 b 214 818 233 861 214 842 b 257 775 214 794 233 775 b 300 818 281 775 300 794 z m 386 43 b 343 86 386 67 367 86 b 300 43 319 86 300 67 b 343 0 300 19 319 0 b 386 43 367 0 386 19 z m 386 474 b 343 517 386 497 367 517 b 300 474 319 517 300 497 b 343 431 300 450 319 431 b 386 474 367 431 386 450 z m 386 818 b 343 861 386 842 367 861 b 300 818 319 861 300 842 b 343 775 300 794 319 775 b 386 818 367 775 386 794 z m 472 43 b 429 86 472 67 453 86 b 386 43 406 86 386 67 b 429 0 386 19 406 0 b 472 43 453 0 472 19 z m 472 474 b 429 517 472 497 453 517 b 386 474 406 517 386 497 b 429 431 386 450 406 431 b 472 474 453 431 472 450 z m 472 818 b 429 861 472 842 453 861 b 386 818 406 861 386 842 b 429 775 386 794 406 775 b 472 818 453 775 472 794 z m 558 215 b 515 258 558 239 539 258 b 472 215 492 258 472 239 b 515 172 472 192 492 172 b 558 215 539 172 558 192 z m 558 301 b 515 344 558 325 539 344 b 472 301 492 344 472 325 b 515 258 472 278 492 258 b 558 301 539 258 558 278 z m 558 388 b 515 431 558 411 539 431 b 472 388 492 431 472 411 b 515 344 472 364 492 344 b 558 388 539 344 558 364 z m 558 732 b 515 775 558 756 539 775 b 472 732 492 775 472 756 b 515 689 472 708 492 689 b 558 732 539 689 558 708 z m 558 129 b 515 172 558 153 539 172 b 472 129 492 172 472 153 b 515 86 472 106 492 86 b 558 129 539 86 558 106 z m 343 -43 b 300 0 343 -19 324 0 b 257 -43 276 0 257 -19 b 300 -86 257 -67 276 -86 b 343 -43 324 -86 343 -67 z m 343 129 b 300 172 343 153 324 172 b 257 129 276 172 257 153 b 300 86 257 106 276 86 b 343 129 324 86 343 106 z m 343 215 b 300 258 343 239 324 258 b 257 215 276 258 257 239 b 300 172 257 192 276 172 b 343 215 324 172 343 192 z m 343 301 b 300 344 343 325 324 344 b 257 301 276 344 257 325 b 300 258 257 278 276 258 b 343 301 324 258 343 278 z m 343 388 b 300 431 343 411 324 431 b 257 388 276 431 257 411 b 300 344 257 364 276 344 b 343 388 324 344 343 364 z m 343 560 b 300 603 343 583 324 603 b 257 560 276 603 257 583 b 300 517 257 536 276 517 b 343 560 324 517 343 536 z m 343 646 b 300 689 343 669 324 689 b 257 646 276 689 257 669 b 300 603 257 622 276 603 b 343 646 324 603 343 622 z m 343 732 b 300 775 343 756 324 775 b 257 732 276 775 257 756 b 300 689 257 708 276 689 b 343 732 324 689 343 708 z m 343 904 b 300 947 343 928 324 947 b 257 904 276 947 257 928 b 300 861 257 881 276 861 b 343 904 324 861 343 881 z "},"&":{"ha":744,"x_min":0,"x_max":0,"o":"m 142 215 b 99 258 142 239 122 258 b 56 215 75 258 56 239 b 99 172 56 192 75 172 b 142 215 122 172 142 192 z m 142 301 b 99 344 142 325 122 344 b 56 301 75 344 56 325 b 99 258 56 278 75 258 b 142 301 122 258 142 278 z m 142 646 b 99 689 142 669 122 689 b 56 646 75 689 56 669 b 99 603 56 622 75 603 b 142 646 122 603 142 622 z m 142 732 b 99 775 142 756 122 775 b 56 732 75 775 56 756 b 99 689 56 708 75 689 b 142 732 122 689 142 708 z m 142 129 b 99 172 142 153 122 172 b 56 129 75 172 56 153 b 99 86 56 106 75 86 b 142 129 122 86 142 106 z m 228 43 b 185 86 228 67 208 86 b 142 43 161 86 142 67 b 185 0 142 19 161 0 b 228 43 208 0 228 19 z m 228 388 b 185 431 228 411 208 431 b 142 388 161 431 142 411 b 185 344 142 364 161 344 b 228 388 208 344 228 364 z m 228 560 b 185 603 228 583 208 603 b 142 560 161 603 142 583 b 185 517 142 536 161 517 b 228 560 208 517 228 536 z m 228 818 b 185 861 228 842 208 861 b 142 818 161 861 142 842 b 185 775 142 794 161 775 b 228 818 208 775 228 794 z m 314 43 b 271 86 314 67 294 86 b 228 43 247 86 228 67 b 271 0 228 19 247 0 b 314 43 294 0 314 19 z m 314 474 b 271 517 314 497 294 517 b 228 474 247 517 228 497 b 271 431 228 450 247 431 b 314 474 294 431 314 450 z m 314 818 b 271 861 314 842 294 861 b 228 818 247 861 228 842 b 271 775 228 794 247 775 b 314 818 294 775 314 794 z m 400 43 b 357 86 400 67 381 86 b 314 43 333 86 314 67 b 357 0 314 19 333 0 b 400 43 381 0 400 19 z m 400 388 b 357 431 400 411 381 431 b 314 388 333 431 314 411 b 357 344 314 364 333 344 b 400 388 381 344 400 364 z m 400 818 b 357 861 400 842 381 861 b 314 818 333 861 314 842 b 357 775 314 794 333 775 b 400 818 381 775 400 794 z m 486 301 b 443 344 486 325 467 344 b 400 301 419 344 400 325 b 443 258 400 278 419 258 b 486 301 467 258 486 278 z m 486 732 b 443 775 486 756 467 775 b 400 732 419 775 400 756 b 443 689 400 708 419 689 b 486 732 467 689 486 708 z m 486 129 b 443 172 486 153 467 172 b 400 129 419 172 400 153 b 443 86 400 106 419 86 b 486 129 467 86 486 106 z m 572 215 b 529 258 572 239 553 258 b 486 215 506 258 486 239 b 529 172 486 192 506 172 b 572 215 553 172 572 192 z m 658 301 b 615 344 658 325 639 344 b 572 301 592 344 572 325 b 615 258 572 278 592 258 b 658 301 639 258 658 278 z m 658 129 b 615 172 658 153 639 172 b 572 129 592 172 572 153 b 615 86 572 106 592 86 b 658 129 639 86 658 106 z m 744 43 b 701 86 744 67 725 86 b 658 43 678 86 658 67 b 701 0 658 19 678 0 b 744 43 725 0 744 19 z "},"'":{"ha":228,"x_min":0,"x_max":0,"o":"m 140 607 b 114 632 140 621 128 632 b 88 607 100 632 88 621 b 114 581 88 592 100 581 b 140 607 128 581 140 592 z m 157 689 b 114 732 157 713 138 732 b 71 689 90 732 71 713 b 114 646 71 665 90 646 b 157 689 138 646 157 665 z m 172 804 b 114 861 172 835 146 861 b 56 804 82 861 56 835 b 114 746 56 772 82 746 b 172 804 146 746 172 772 z "},"(":{"ha":283,"x_min":0,"x_max":0,"o":"m 142 43 b 99 86 142 67 122 86 b 56 43 75 86 56 67 b 99 0 56 19 75 0 b 142 43 122 0 142 19 z m 142 215 b 99 258 142 239 122 258 b 56 215 75 258 56 239 b 99 172 56 192 75 172 b 142 215 122 172 142 192 z m 142 301 b 99 344 142 325 122 344 b 56 301 75 344 56 325 b 99 258 56 278 75 258 b 142 301 122 258 142 278 z m 142 388 b 99 431 142 411 122 431 b 56 388 75 431 56 411 b 99 344 56 364 75 344 b 142 388 122 344 142 364 z m 142 474 b 99 517 142 497 122 517 b 56 474 75 517 56 497 b 99 431 56 450 75 431 b 142 474 122 431 142 450 z m 142 560 b 99 603 142 583 122 603 b 56 560 75 603 56 583 b 99 517 56 536 75 517 b 142 560 122 517 142 536 z m 142 646 b 99 689 142 669 122 689 b 56 646 75 689 56 669 b 99 603 56 622 75 603 b 142 646 122 603 142 622 z m 142 732 b 99 775 142 756 122 775 b 56 732 75 775 56 756 b 99 689 56 708 75 689 b 142 732 122 689 142 708 z m 142 818 b 99 861 142 842 122 861 b 56 818 75 861 56 842 b 99 775 56 794 75 775 b 142 818 122 775 142 794 z m 142 129 b 99 172 142 153 122 172 b 56 129 75 172 56 153 b 99 86 56 106 75 86 b 142 129 122 86 142 106 z m 228 904 b 185 947 228 928 208 947 b 142 904 161 947 142 928 b 185 861 142 881 161 861 b 228 904 208 861 228 881 z m 228 -43 b 185 0 228 -19 208 0 b 142 -43 161 0 142 -19 b 185 -86 142 -67 161 -86 b 228 -43 208 -86 228 -67 z "},")":{"ha":283,"x_min":0,"x_max":0,"o":"m 142 43 b 185 0 142 19 161 0 b 228 43 208 0 228 19 b 185 86 228 67 208 86 b 142 43 161 86 142 67 z m 142 215 b 185 172 142 192 161 172 b 228 215 208 172 228 192 b 185 258 228 239 208 258 b 142 215 161 258 142 239 z m 142 301 b 185 258 142 278 161 258 b 228 301 208 258 228 278 b 185 344 228 325 208 344 b 142 301 161 344 142 325 z m 142 388 b 185 344 142 364 161 344 b 228 388 208 344 228 364 b 185 431 228 411 208 431 b 142 388 161 431 142 411 z m 142 474 b 185 431 142 450 161 431 b 228 474 208 431 228 450 b 185 517 228 497 208 517 b 142 474 161 517 142 497 z m 142 560 b 185 517 142 536 161 517 b 228 560 208 517 228 536 b 185 603 228 583 208 603 b 142 560 161 603 142 583 z m 142 646 b 185 603 142 622 161 603 b 228 646 208 603 228 622 b 185 689 228 669 208 689 b 142 646 161 689 142 669 z m 142 732 b 185 689 142 708 161 689 b 228 732 208 689 228 708 b 185 775 228 756 208 775 b 142 732 161 775 142 756 z m 142 818 b 185 775 142 794 161 775 b 228 818 208 775 228 794 b 185 861 228 842 208 861 b 142 818 161 861 142 842 z m 142 129 b 185 86 142 106 161 86 b 228 129 208 86 228 106 b 185 172 228 153 208 172 b 142 129 161 172 142 153 z m 56 904 b 99 861 56 881 75 861 b 142 904 122 861 142 881 b 99 947 142 928 122 947 b 56 904 75 947 56 928 z m 56 -43 b 99 -86 56 -67 75 -86 b 142 -43 122 -86 142 -67 b 99 0 142 -19 122 0 b 56 -43 75 0 56 -19 z "},"*":{"ha":456,"x_min":0,"x_max":0,"o":"m 142 560 b 99 603 142 583 122 603 b 56 560 75 603 56 583 b 99 517 56 536 75 517 b 142 560 122 517 142 536 z m 142 818 b 99 861 142 842 122 861 b 56 818 75 861 56 842 b 99 775 56 794 75 775 b 142 818 122 775 142 794 z m 228 646 b 185 689 228 669 208 689 b 142 646 161 689 142 669 b 185 603 142 622 161 603 b 228 646 208 603 228 622 z m 228 732 b 185 775 228 756 208 775 b 142 732 161 775 142 756 b 185 689 142 708 161 689 b 228 732 208 689 228 708 z m 314 646 b 271 689 314 669 294 689 b 228 646 247 689 228 669 b 271 603 228 622 247 603 b 314 646 294 603 314 622 z m 314 732 b 271 775 314 756 294 775 b 228 732 247 775 228 756 b 271 689 228 708 247 689 b 314 732 294 689 314 708 z m 400 560 b 357 603 400 583 381 603 b 314 560 333 603 314 583 b 357 517 314 536 333 517 b 400 560 381 517 400 536 z m 400 818 b 357 861 400 842 381 861 b 314 818 333 861 314 842 b 357 775 314 794 333 775 b 400 818 381 775 400 794 z "},"+":{"ha":542,"x_min":0,"x_max":0,"o":"m 228 388 b 185 431 228 411 208 431 b 142 388 161 431 142 411 b 185 344 142 364 161 344 b 228 388 208 344 228 364 z m 314 301 b 271 344 314 325 294 344 b 228 301 247 344 228 325 b 271 258 228 278 247 258 b 314 301 294 258 314 278 z m 314 388 b 271 431 314 411 294 431 b 228 388 247 431 228 411 b 271 344 228 364 247 344 b 314 388 294 344 314 364 z m 314 474 b 271 517 314 497 294 517 b 228 474 247 517 228 497 b 271 431 228 450 247 431 b 314 474 294 431 314 450 z m 314 560 b 271 603 314 583 294 603 b 228 560 247 603 228 583 b 271 517 228 536 247 517 b 314 560 294 517 314 536 z m 400 388 b 357 431 400 411 381 431 b 314 388 333 431 314 411 b 357 344 314 364 333 344 b 400 388 381 344 400 364 z m 486 388 b 443 431 486 411 467 431 b 400 388 419 431 400 411 b 443 344 400 364 419 344 b 486 388 467 344 486 364 z m 142 388 b 99 431 142 411 122 431 b 56 388 75 431 56 411 b 99 344 56 364 75 344 b 142 388 122 344 142 364 z m 314 215 b 271 258 314 239 294 258 b 228 215 247 258 228 239 b 271 172 228 192 247 172 b 314 215 294 172 314 192 z "},",":{"ha":243,"x_min":0,"x_max":0,"o":"m 129 -49 b 86 -6 129 -25 110 -6 b 43 -49 63 -6 43 -25 b 86 -92 43 -72 63 -92 b 129 -49 110 -92 129 -72 z m 188 58 b 129 115 188 89 161 115 b 71 58 97 115 71 89 b 129 0 71 26 97 0 b 188 58 161 0 188 26 z m 81 -124 b 54 -99 81 -110 68 -99 b 28 -124 40 -99 28 -110 b 54 -150 28 -139 40 -150 b 81 -124 68 -150 81 -139 z "},"-":{"ha":456,"x_min":0,"x_max":0,"o":"m 228 388 b 185 431 228 411 208 431 b 142 388 161 431 142 411 b 185 344 142 364 161 344 b 228 388 208 344 228 364 z m 314 388 b 271 431 314 411 294 431 b 228 388 247 431 228 411 b 271 344 228 364 247 344 b 314 388 294 344 314 364 z m 400 388 b 357 431 400 411 381 431 b 314 388 333 431 314 411 b 357 344 314 364 333 344 b 400 388 381 344 400 364 z m 142 388 b 99 431 142 411 122 431 b 56 388 75 431 56 411 b 99 344 56 364 75 344 b 142 388 122 344 142 364 z "},".":{"ha":228,"x_min":0,"x_max":0,"o":"m 172 58 b 114 115 172 89 146 115 b 56 58 82 115 56 89 b 114 0 56 26 82 0 b 172 58 146 0 172 26 z "},"/":{"ha":344,"x_min":0,"x_max":0,"o":"m 86 43 b 43 86 86 67 67 86 b 0 43 19 86 0 67 b 43 0 0 19 19 0 b 86 43 67 0 86 19 z m 86 129 b 43 172 86 153 67 172 b 0 129 19 172 0 153 b 43 86 0 106 19 86 b 86 129 67 86 86 106 z m 172 215 b 129 258 172 239 153 258 b 86 215 106 258 86 239 b 129 172 86 192 106 172 b 172 215 153 172 172 192 z m 172 301 b 129 344 172 325 153 344 b 86 301 106 344 86 325 b 129 258 86 278 106 258 b 172 301 153 258 172 278 z m 172 388 b 129 431 172 411 153 431 b 86 388 106 431 86 411 b 129 344 86 364 106 344 b 172 388 153 344 172 364 z m 258 474 b 215 517 258 497 239 517 b 172 474 192 517 172 497 b 215 431 172 450 192 431 b 258 474 239 431 258 450 z m 258 560 b 215 603 258 583 239 603 b 172 560 192 603 172 583 b 215 517 172 536 192 517 b 258 560 239 517 258 536 z m 258 646 b 215 689 258 669 239 689 b 172 646 192 689 172 669 b 215 603 172 622 192 603 b 258 646 239 603 258 622 z m 344 732 b 301 775 344 756 325 775 b 258 732 278 775 258 756 b 301 689 258 708 278 689 b 344 732 325 689 344 708 z m 344 818 b 301 861 344 842 325 861 b 258 818 278 861 258 842 b 301 775 258 794 278 775 b 344 818 325 775 344 794 z "},":":{"ha":228,"x_min":0,"x_max":0,"o":"m 172 58 b 114 115 172 89 146 115 b 56 58 82 115 56 89 b 114 0 56 26 82 0 b 172 58 146 0 172 26 z m 172 546 b 114 603 172 576 146 603 b 56 546 82 603 56 576 b 114 488 56 514 82 488 b 172 546 146 488 172 514 z "},";":{"ha":243,"x_min":0,"x_max":0,"o":"m 188 546 b 129 603 188 576 161 603 b 71 546 97 603 71 576 b 129 488 71 514 97 488 b 188 546 161 488 188 514 z m 129 -49 b 86 -6 129 -25 110 -6 b 43 -49 63 -6 43 -25 b 86 -92 43 -72 63 -92 b 129 -49 110 -92 129 -72 z m 188 58 b 129 115 188 89 161 115 b 71 58 97 115 71 89 b 129 0 71 26 97 0 b 188 58 161 0 188 26 z m 81 -124 b 54 -99 81 -110 68 -99 b 28 -124 40 -99 28 -110 b 54 -150 28 -139 40 -150 b 81 -124 68 -150 81 -139 z "},"<":{"ha":369,"x_min":0,"x_max":0,"o":"m 228 215 b 185 258 228 239 208 258 b 142 215 161 258 142 239 b 185 172 142 192 161 172 b 228 215 208 172 228 192 z m 228 388 b 185 431 228 411 208 431 b 142 388 161 431 142 411 b 185 344 142 364 161 344 b 228 388 208 344 228 364 z m 314 474 b 271 517 314 497 294 517 b 228 474 247 517 228 497 b 271 431 228 450 247 431 b 314 474 294 431 314 450 z m 314 129 b 271 172 314 153 294 172 b 228 129 247 172 228 153 b 271 86 228 106 247 86 b 314 129 294 86 314 106 z m 142 301 b 99 344 142 325 122 344 b 56 301 75 344 56 325 b 99 258 56 278 75 258 b 142 301 122 258 142 278 z "},"=":{"ha":456,"x_min":0,"x_max":0,"o":"m 228 301 b 185 344 228 325 208 344 b 142 301 161 344 142 325 b 185 258 142 278 161 258 b 228 301 208 258 228 278 z m 228 474 b 185 517 228 497 208 517 b 142 474 161 517 142 497 b 185 431 142 450 161 431 b 228 474 208 431 228 450 z m 314 301 b 271 344 314 325 294 344 b 228 301 247 344 228 325 b 271 258 228 278 247 258 b 314 301 294 258 314 278 z m 314 474 b 271 517 314 497 294 517 b 228 474 247 517 228 497 b 271 431 228 450 247 431 b 314 474 294 431 314 450 z m 400 301 b 357 344 400 325 381 344 b 314 301 333 344 314 325 b 357 258 314 278 333 258 b 400 301 381 258 400 278 z m 400 474 b 357 517 400 497 381 517 b 314 474 333 517 314 497 b 357 431 314 450 333 431 b 400 474 381 431 400 450 z m 142 301 b 99 344 142 325 122 344 b 56 301 75 344 56 325 b 99 258 56 278 75 258 b 142 301 122 258 142 278 z m 142 474 b 99 517 142 497 122 517 b 56 474 75 517 56 497 b 99 431 56 450 75 431 b 142 474 122 431 142 450 z "},">":{"ha":369,"x_min":0,"x_max":0,"o":"m 142 215 b 185 172 142 192 161 172 b 228 215 208 172 228 192 b 185 258 228 239 208 258 b 142 215 161 258 142 239 z m 142 388 b 185 344 142 364 161 344 b 228 388 208 344 228 364 b 185 431 228 411 208 431 b 142 388 161 431 142 411 z m 56 474 b 99 431 56 450 75 431 b 142 474 122 431 142 450 b 99 517 142 497 122 517 b 56 474 75 517 56 497 z m 56 129 b 99 86 56 106 75 86 b 142 129 122 86 142 106 b 99 172 142 153 122 172 b 56 129 75 172 56 153 z m 228 301 b 271 258 228 278 247 258 b 314 301 294 258 314 278 b 271 344 314 325 294 344 b 228 301 247 344 228 325 z "},"?":{"ha":600,"x_min":0,"x_max":0,"o":"m 114 646 b 71 689 114 669 94 689 b 28 646 47 689 28 669 b 71 603 28 622 47 603 b 114 646 94 603 114 622 z m 114 732 b 71 775 114 756 94 775 b 28 732 47 775 28 756 b 71 689 28 708 47 689 b 114 732 94 689 114 708 z m 200 818 b 157 861 200 842 181 861 b 114 818 133 861 114 842 b 157 775 114 794 133 775 b 200 818 181 775 200 794 z m 286 818 b 243 861 286 842 267 861 b 200 818 219 861 200 842 b 243 775 200 794 219 775 b 286 818 267 775 286 794 z m 372 818 b 329 861 372 842 353 861 b 286 818 306 861 286 842 b 329 775 286 794 306 775 b 372 818 353 775 372 794 z m 458 818 b 415 861 458 842 439 861 b 372 818 392 861 372 842 b 415 775 372 794 392 775 b 458 818 439 775 458 794 z m 544 646 b 501 689 544 669 525 689 b 458 646 478 689 458 669 b 501 603 458 622 478 603 b 544 646 525 603 544 622 z m 544 732 b 501 775 544 756 525 775 b 458 732 478 775 458 756 b 501 689 458 708 478 689 b 544 732 525 689 544 708 z m 286 215 b 243 258 286 239 267 258 b 200 215 219 258 200 239 b 243 172 200 192 219 172 b 286 215 267 172 286 192 z m 286 301 b 243 344 286 325 267 344 b 200 301 219 344 200 325 b 243 258 200 278 219 258 b 286 301 267 258 286 278 z m 372 388 b 329 431 372 411 353 431 b 286 388 306 431 286 411 b 329 344 286 364 306 344 b 372 388 353 344 372 364 z m 458 474 b 415 517 458 497 439 517 b 372 474 392 517 372 497 b 415 431 372 450 392 431 b 458 474 439 431 458 450 z m 544 560 b 501 603 544 583 525 603 b 458 560 478 603 458 583 b 501 517 458 536 478 517 b 544 560 525 517 544 536 z m 301 58 b 243 115 301 89 275 115 b 185 58 211 115 185 89 b 243 0 185 26 211 0 b 301 58 275 0 301 26 z "},"@":{"ha":856,"x_min":0,"x_max":0,"o":"m 169 215 b 126 258 169 239 150 258 b 83 215 103 258 83 239 b 126 172 83 192 103 172 b 169 215 150 172 169 192 z m 169 301 b 126 344 169 325 150 344 b 83 301 103 344 83 325 b 126 258 83 278 103 258 b 169 301 150 258 169 278 z m 169 388 b 126 431 169 411 150 431 b 83 388 103 431 83 411 b 126 344 83 364 103 344 b 169 388 150 344 169 364 z m 169 474 b 126 517 169 497 150 517 b 83 474 103 517 83 497 b 126 431 83 450 103 431 b 169 474 150 431 169 450 z m 169 560 b 126 603 169 583 150 603 b 83 560 103 603 83 583 b 126 517 83 536 103 517 b 169 560 150 517 169 536 z m 169 646 b 126 689 169 669 150 689 b 83 646 103 689 83 669 b 126 603 83 622 103 603 b 169 646 150 603 169 622 z m 169 732 b 126 775 169 756 150 775 b 83 732 103 775 83 756 b 126 689 83 708 103 689 b 169 732 150 689 169 708 z m 169 129 b 126 172 169 153 150 172 b 83 129 103 172 83 153 b 126 86 83 106 103 86 b 169 129 150 86 169 106 z m 256 43 b 213 86 256 67 236 86 b 169 43 189 86 169 67 b 213 0 169 19 189 0 b 256 43 236 0 256 19 z m 256 818 b 213 861 256 842 236 861 b 169 818 189 861 169 842 b 213 775 169 794 189 775 b 256 818 236 775 256 794 z m 342 43 b 299 86 342 67 322 86 b 256 43 275 86 256 67 b 299 0 256 19 275 0 b 342 43 322 0 342 19 z m 342 818 b 299 861 342 842 322 861 b 256 818 275 861 256 842 b 299 775 256 794 275 775 b 342 818 322 775 342 794 z m 428 43 b 385 86 428 67 408 86 b 342 43 361 86 342 67 b 385 0 342 19 361 0 b 428 43 408 0 428 19 z m 428 646 b 385 689 428 669 408 689 b 342 646 361 689 342 669 b 385 603 342 622 361 603 b 428 646 408 603 428 622 z m 428 818 b 385 861 428 842 408 861 b 342 818 361 861 342 842 b 385 775 342 794 361 775 b 428 818 408 775 428 794 z m 514 43 b 471 86 514 67 494 86 b 428 43 447 86 428 67 b 471 0 428 19 447 0 b 514 43 494 0 514 19 z m 514 646 b 471 689 514 669 494 689 b 428 646 447 689 428 669 b 471 603 428 622 447 603 b 514 646 494 603 514 622 z m 514 818 b 471 861 514 842 494 861 b 428 818 447 861 428 842 b 471 775 428 794 447 775 b 514 818 494 775 514 794 z m 600 43 b 557 86 600 67 581 86 b 514 43 533 86 514 67 b 557 0 514 19 533 0 b 600 43 581 0 600 19 z m 600 646 b 557 689 600 669 581 689 b 514 646 533 689 514 669 b 557 603 514 622 533 603 b 600 646 581 603 600 622 z m 600 818 b 557 861 600 842 581 861 b 514 818 533 861 514 842 b 557 775 514 794 533 775 b 600 818 581 775 600 794 z m 686 43 b 643 86 686 67 667 86 b 600 43 619 86 600 67 b 643 0 600 19 619 0 b 686 43 667 0 686 19 z m 686 215 b 643 258 686 239 667 258 b 600 215 619 258 600 239 b 643 172 600 192 619 172 b 686 215 667 172 686 192 z m 686 818 b 643 861 686 842 667 861 b 600 818 619 861 600 842 b 643 775 600 794 619 775 b 686 818 667 775 686 794 z m 772 301 b 729 344 772 325 753 344 b 686 301 706 344 686 325 b 729 258 686 278 706 258 b 772 301 753 258 772 278 z m 772 388 b 729 431 772 411 753 431 b 686 388 706 431 686 411 b 729 344 686 364 706 344 b 772 388 753 344 772 364 z m 772 474 b 729 517 772 497 753 517 b 686 474 706 517 686 497 b 729 431 686 450 706 431 b 772 474 753 431 772 450 z m 772 560 b 729 603 772 583 753 603 b 686 560 706 603 686 583 b 729 517 686 536 706 517 b 772 560 753 517 772 536 z m 772 646 b 729 689 772 669 753 689 b 686 646 706 689 686 669 b 729 603 686 622 706 603 b 772 646 753 603 772 622 z m 772 732 b 729 775 772 756 753 775 b 686 732 706 775 686 756 b 729 689 686 708 706 689 b 772 732 753 689 772 708 z m 342 301 b 299 344 342 325 322 344 b 256 301 275 344 256 325 b 299 258 256 278 275 258 b 342 301 322 258 342 278 z m 342 388 b 299 431 342 411 322 431 b 256 388 275 431 256 411 b 299 344 256 364 275 344 b 342 388 322 344 342 364 z m 342 474 b 299 517 342 497 322 517 b 256 474 275 517 256 497 b 299 431 256 450 275 431 b 342 474 322 431 342 450 z m 342 560 b 299 603 342 583 322 603 b 256 560 275 603 256 583 b 299 517 256 536 275 517 b 342 560 322 517 342 536 z m 428 215 b 385 258 428 239 408 258 b 342 215 361 258 342 239 b 385 172 342 192 361 172 b 428 215 408 172 428 192 z m 514 215 b 471 258 514 239 494 258 b 428 215 447 258 428 239 b 471 172 428 192 447 172 b 514 215 494 172 514 192 z m 600 215 b 557 258 600 239 581 258 b 514 215 533 258 514 239 b 557 172 514 192 533 172 b 600 215 581 172 600 192 z m 600 301 b 557 344 600 325 581 344 b 514 301 533 344 514 325 b 557 258 514 278 533 258 b 600 301 581 258 600 278 z m 600 388 b 557 431 600 411 581 431 b 514 388 533 431 514 411 b 557 344 514 364 533 344 b 600 388 581 344 600 364 z m 600 474 b 557 517 600 497 581 517 b 514 474 533 517 514 497 b 557 431 514 450 533 431 b 600 474 581 431 600 450 z m 600 560 b 557 603 600 583 581 603 b 514 560 533 603 514 583 b 557 517 514 536 533 517 b 600 560 581 517 600 536 z "},"A":{"ha":656,"x_min":0,"x_max":0,"o":"m 156 43 b 113 86 156 67 136 86 b 69 43 89 86 69 67 b 113 0 69 19 89 0 b 156 43 136 0 156 19 z m 156 215 b 113 258 156 239 136 258 b 69 215 89 258 69 239 b 113 172 69 192 89 172 b 156 215 136 172 156 192 z m 156 301 b 113 344 156 325 136 344 b 69 301 89 344 69 325 b 113 258 69 278 89 258 b 156 301 136 258 156 278 z m 156 388 b 113 431 156 411 136 431 b 69 388 89 431 69 411 b 113 344 69 364 89 344 b 156 388 136 344 156 364 z m 156 474 b 113 517 156 497 136 517 b 69 474 89 517 69 497 b 113 431 69 450 89 431 b 156 474 136 431 156 450 z m 156 560 b 113 603 156 583 136 603 b 69 560 89 603 69 583 b 113 517 69 536 89 517 b 156 560 136 517 156 536 z m 156 646 b 113 689 156 669 136 689 b 69 646 89 689 69 669 b 113 603 69 622 89 603 b 156 646 136 603 156 622 z m 156 129 b 113 172 156 153 136 172 b 69 129 89 172 69 153 b 113 86 69 106 89 86 b 156 129 136 86 156 106 z m 242 732 b 199 775 242 756 222 775 b 156 732 175 775 156 756 b 199 689 156 708 175 689 b 242 732 222 689 242 708 z m 328 818 b 285 861 328 842 308 861 b 242 818 261 861 242 842 b 285 775 242 794 261 775 b 328 818 308 775 328 794 z m 414 818 b 371 861 414 842 394 861 b 328 818 347 861 328 842 b 371 775 328 794 347 775 b 414 818 394 775 414 794 z m 500 732 b 457 775 500 756 481 775 b 414 732 433 775 414 756 b 457 689 414 708 433 689 b 500 732 481 689 500 708 z m 586 43 b 543 86 586 67 567 86 b 500 43 519 86 500 67 b 543 0 500 19 519 0 b 586 43 567 0 586 19 z m 586 646 b 543 689 586 669 567 689 b 500 646 519 689 500 669 b 543 603 500 622 519 603 b 586 646 567 603 586 622 z m 586 129 b 543 172 586 153 567 172 b 500 129 519 172 500 153 b 543 86 500 106 519 86 b 586 129 567 86 586 106 z m 242 301 b 199 344 242 325 222 344 b 156 301 175 344 156 325 b 199 258 156 278 175 258 b 242 301 222 258 242 278 z m 328 301 b 285 344 328 325 308 344 b 242 301 261 344 242 325 b 285 258 242 278 261 258 b 328 301 308 258 328 278 z m 414 301 b 371 344 414 325 394 344 b 328 301 347 344 328 325 b 371 258 328 278 347 258 b 414 301 394 258 414 278 z m 500 301 b 457 344 500 325 481 344 b 414 301 433 344 414 325 b 457 258 414 278 433 258 b 500 301 481 258 500 278 z m 586 215 b 543 258 586 239 567 258 b 500 215 519 258 500 239 b 543 172 500 192 519 172 b 586 215 567 172 586 192 z m 586 301 b 543 344 586 325 567 344 b 500 301 519 344 500 325 b 543 258 500 278 519 258 b 586 301 567 258 586 278 z m 586 388 b 543 431 586 411 567 431 b 500 388 519 431 500 411 b 543 344 500 364 519 344 b 586 388 567 344 586 364 z m 586 474 b 543 517 586 497 567 517 b 500 474 519 517 500 497 b 543 431 500 450 519 431 b 586 474 567 431 586 450 z m 586 560 b 543 603 586 583 567 603 b 500 560 519 603 500 583 b 543 517 500 536 519 517 b 586 560 567 517 586 536 z "},"B":{"ha":669,"x_min":0,"x_max":0,"o":"m 169 43 b 126 86 169 67 150 86 b 83 43 103 86 83 67 b 126 0 83 19 103 0 b 169 43 150 0 169 19 z m 169 215 b 126 258 169 239 150 258 b 83 215 103 258 83 239 b 126 172 83 192 103 172 b 169 215 150 172 169 192 z m 169 301 b 126 344 169 325 150 344 b 83 301 103 344 83 325 b 126 258 83 278 103 258 b 169 301 150 258 169 278 z m 169 388 b 126 431 169 411 150 431 b 83 388 103 431 83 411 b 126 344 83 364 103 344 b 169 388 150 344 169 364 z m 169 474 b 126 517 169 497 150 517 b 83 474 103 517 83 497 b 126 431 83 450 103 431 b 169 474 150 431 169 450 z m 169 560 b 126 603 169 583 150 603 b 83 560 103 603 83 583 b 126 517 83 536 103 517 b 169 560 150 517 169 536 z m 169 646 b 126 689 169 669 150 689 b 83 646 103 689 83 669 b 126 603 83 622 103 603 b 169 646 150 603 169 622 z m 169 732 b 126 775 169 756 150 775 b 83 732 103 775 83 756 b 126 689 83 708 103 689 b 169 732 150 689 169 708 z m 169 818 b 126 861 169 842 150 861 b 83 818 103 861 83 842 b 126 775 83 794 103 775 b 169 818 150 775 169 794 z m 169 129 b 126 172 169 153 150 172 b 83 129 103 172 83 153 b 126 86 83 106 103 86 b 169 129 150 86 169 106 z m 256 43 b 213 86 256 67 236 86 b 169 43 189 86 169 67 b 213 0 169 19 189 0 b 256 43 236 0 256 19 z m 256 818 b 213 861 256 842 236 861 b 169 818 189 861 169 842 b 213 775 169 794 189 775 b 256 818 236 775 256 794 z m 342 43 b 299 86 342 67 322 86 b 256 43 275 86 256 67 b 299 0 256 19 275 0 b 342 43 322 0 342 19 z m 342 818 b 299 861 342 842 322 861 b 256 818 275 861 256 842 b 299 775 256 794 275 775 b 342 818 322 775 342 794 z m 428 43 b 385 86 428 67 408 86 b 342 43 361 86 342 67 b 385 0 342 19 361 0 b 428 43 408 0 428 19 z m 428 818 b 385 861 428 842 408 861 b 342 818 361 861 342 842 b 385 775 342 794 361 775 b 428 818 408 775 428 794 z m 514 43 b 471 86 514 67 494 86 b 428 43 447 86 428 67 b 471 0 428 19 447 0 b 514 43 494 0 514 19 z m 514 818 b 471 861 514 842 494 861 b 428 818 447 861 428 842 b 471 775 428 794 447 775 b 514 818 494 775 514 794 z m 600 646 b 557 689 600 669 581 689 b 514 646 533 689 514 669 b 557 603 514 622 533 603 b 600 646 581 603 600 622 z m 600 732 b 557 775 600 756 581 775 b 514 732 533 775 514 756 b 557 689 514 708 533 689 b 600 732 581 689 600 708 z m 600 129 b 557 172 600 153 581 172 b 514 129 533 172 514 153 b 557 86 514 106 533 86 b 600 129 581 86 600 106 z m 256 474 b 213 517 256 497 236 517 b 169 474 189 517 169 497 b 213 431 169 450 189 431 b 256 474 236 431 256 450 z m 342 474 b 299 517 342 497 322 517 b 256 474 275 517 256 497 b 299 431 256 450 275 431 b 342 474 322 431 342 450 z m 428 474 b 385 517 428 497 408 517 b 342 474 361 517 342 497 b 385 431 342 450 361 431 b 428 474 408 431 428 450 z m 514 474 b 471 517 514 497 494 517 b 428 474 447 517 428 497 b 471 431 428 450 447 431 b 514 474 494 431 514 450 z m 600 215 b 557 258 600 239 581 258 b 514 215 533 258 514 239 b 557 172 514 192 533 172 b 600 215 581 172 600 192 z m 600 301 b 557 344 600 325 581 344 b 514 301 533 344 514 325 b 557 258 514 278 533 258 b 600 301 581 258 600 278 z m 600 388 b 557 431 600 411 581 431 b 514 388 533 431 514 411 b 557 344 514 364 533 344 b 600 388 581 344 600 364 z m 600 560 b 557 603 600 583 581 603 b 514 560 533 603 514 583 b 557 517 514 536 533 517 b 600 560 581 517 600 536 z "},"C":{"ha":628,"x_min":0,"x_max":0,"o":"m 169 215 b 126 258 169 239 150 258 b 83 215 103 258 83 239 b 126 172 83 192 103 172 b 169 215 150 172 169 192 z m 169 301 b 126 344 169 325 150 344 b 83 301 103 344 83 325 b 126 258 83 278 103 258 b 169 301 150 258 169 278 z m 169 388 b 126 431 169 411 150 431 b 83 388 103 431 83 411 b 126 344 83 364 103 344 b 169 388 150 344 169 364 z m 169 474 b 126 517 169 497 150 517 b 83 474 103 517 83 497 b 126 431 83 450 103 431 b 169 474 150 431 169 450 z m 169 560 b 126 603 169 583 150 603 b 83 560 103 603 83 583 b 126 517 83 536 103 517 b 169 560 150 517 169 536 z m 169 646 b 126 689 169 669 150 689 b 83 646 103 689 83 669 b 126 603 83 622 103 603 b 169 646 150 603 169 622 z m 169 732 b 126 775 169 756 150 775 b 83 732 103 775 83 756 b 126 689 83 708 103 689 b 169 732 150 689 169 708 z m 169 129 b 126 172 169 153 150 172 b 83 129 103 172 83 153 b 126 86 83 106 103 86 b 169 129 150 86 169 106 z m 256 43 b 213 86 256 67 236 86 b 169 43 189 86 169 67 b 213 0 169 19 189 0 b 256 43 236 0 256 19 z m 256 818 b 213 861 256 842 236 861 b 169 818 189 861 169 842 b 213 775 169 794 189 775 b 256 818 236 775 256 794 z m 342 43 b 299 86 342 67 322 86 b 256 43 275 86 256 67 b 299 0 256 19 275 0 b 342 43 322 0 342 19 z m 342 818 b 299 861 342 842 322 861 b 256 818 275 861 256 842 b 299 775 256 794 275 775 b 342 818 322 775 342 794 z m 428 43 b 385 86 428 67 408 86 b 342 43 361 86 342 67 b 385 0 342 19 361 0 b 428 43 408 0 428 19 z m 428 818 b 385 861 428 842 408 861 b 342 818 361 861 342 842 b 385 775 342 794 361 775 b 428 818 408 775 428 794 z m 514 43 b 471 86 514 67 494 86 b 428 43 447 86 428 67 b 471 0 428 19 447 0 b 514 43 494 0 514 19 z m 514 818 b 471 861 514 842 494 861 b 428 818 447 861 428 842 b 471 775 428 794 447 775 b 514 818 494 775 514 794 z m 600 43 b 557 86 600 67 581 86 b 514 43 533 86 514 67 b 557 0 514 19 533 0 b 600 43 581 0 600 19 z m 600 732 b 557 775 600 756 581 775 b 514 732 533 775 514 756 b 557 689 514 708 533 689 b 600 732 581 689 600 708 z "},"D":{"ha":683,"x_min":0,"x_max":0,"o":"m 169 43 b 126 86 169 67 150 86 b 83 43 103 86 83 67 b 126 0 83 19 103 0 b 169 43 150 0 169 19 z m 169 215 b 126 258 169 239 150 258 b 83 215 103 258 83 239 b 126 172 83 192 103 172 b 169 215 150 172 169 192 z m 169 301 b 126 344 169 325 150 344 b 83 301 103 344 83 325 b 126 258 83 278 103 258 b 169 301 150 258 169 278 z m 169 388 b 126 431 169 411 150 431 b 83 388 103 431 83 411 b 126 344 83 364 103 344 b 169 388 150 344 169 364 z m 169 474 b 126 517 169 497 150 517 b 83 474 103 517 83 497 b 126 431 83 450 103 431 b 169 474 150 431 169 450 z m 169 560 b 126 603 169 583 150 603 b 83 560 103 603 83 583 b 126 517 83 536 103 517 b 169 560 150 517 169 536 z m 169 646 b 126 689 169 669 150 689 b 83 646 103 689 83 669 b 126 603 83 622 103 603 b 169 646 150 603 169 622 z m 169 732 b 126 775 169 756 150 775 b 83 732 103 775 83 756 b 126 689 83 708 103 689 b 169 732 150 689 169 708 z m 169 818 b 126 861 169 842 150 861 b 83 818 103 861 83 842 b 126 775 83 794 103 775 b 169 818 150 775 169 794 z m 169 129 b 126 172 169 153 150 172 b 83 129 103 172 83 153 b 126 86 83 106 103 86 b 169 129 150 86 169 106 z m 256 43 b 213 86 256 67 236 86 b 169 43 189 86 169 67 b 213 0 169 19 189 0 b 256 43 236 0 256 19 z m 256 818 b 213 861 256 842 236 861 b 169 818 189 861 169 842 b 213 775 169 794 189 775 b 256 818 236 775 256 794 z m 342 43 b 299 86 342 67 322 86 b 256 43 275 86 256 67 b 299 0 256 19 275 0 b 342 43 322 0 342 19 z m 342 818 b 299 861 342 842 322 861 b 256 818 275 861 256 842 b 299 775 256 794 275 775 b 342 818 322 775 342 794 z m 428 43 b 385 86 428 67 408 86 b 342 43 361 86 342 67 b 385 0 342 19 361 0 b 428 43 408 0 428 19 z m 428 818 b 385 861 428 842 408 861 b 342 818 361 861 342 842 b 385 775 342 794 361 775 b 428 818 408 775 428 794 z m 514 43 b 471 86 514 67 494 86 b 428 43 447 86 428 67 b 471 0 428 19 447 0 b 514 43 494 0 514 19 z m 514 818 b 471 861 514 842 494 861 b 428 818 447 861 428 842 b 471 775 428 794 447 775 b 514 818 494 775 514 794 z m 600 646 b 557 689 600 669 581 689 b 514 646 533 689 514 669 b 557 603 514 622 533 603 b 600 646 581 603 600 622 z m 600 732 b 557 775 600 756 581 775 b 514 732 533 775 514 756 b 557 689 514 708 533 689 b 600 732 581 689 600 708 z m 600 129 b 557 172 600 153 581 172 b 514 129 533 172 514 153 b 557 86 514 106 533 86 b 600 129 581 86 600 106 z m 600 215 b 557 258 600 239 581 258 b 514 215 533 258 514 239 b 557 172 514 192 533 172 b 600 215 581 172 600 192 z m 600 301 b 557 344 600 325 581 344 b 514 301 533 344 514 325 b 557 258 514 278 533 258 b 600 301 581 258 600 278 z m 600 388 b 557 431 600 411 581 431 b 514 388 533 431 514 411 b 557 344 514 364 533 344 b 600 388 581 344 600 364 z m 600 474 b 557 517 600 497 581 517 b 514 474 533 517 514 497 b 557 431 514 450 533 431 b 600 474 581 431 600 450 z m 600 560 b 557 603 600 583 581 603 b 514 560 533 603 514 583 b 557 517 514 536 533 517 b 600 560 581 517 600 536 z "},"E":{"ha":542,"x_min":0,"x_max":0,"o":"m 169 43 b 126 86 169 67 150 86 b 83 43 103 86 83 67 b 126 0 83 19 103 0 b 169 43 150 0 169 19 z m 169 215 b 126 258 169 239 150 258 b 83 215 103 258 83 239 b 126 172 83 192 103 172 b 169 215 150 172 169 192 z m 169 301 b 126 344 169 325 150 344 b 83 301 103 344 83 325 b 126 258 83 278 103 258 b 169 301 150 258 169 278 z m 169 388 b 126 431 169 411 150 431 b 83 388 103 431 83 411 b 126 344 83 364 103 344 b 169 388 150 344 169 364 z m 169 474 b 126 517 169 497 150 517 b 83 474 103 517 83 497 b 126 431 83 450 103 431 b 169 474 150 431 169 450 z m 169 560 b 126 603 169 583 150 603 b 83 560 103 603 83 583 b 126 517 83 536 103 517 b 169 560 150 517 169 536 z m 169 646 b 126 689 169 669 150 689 b 83 646 103 689 83 669 b 126 603 83 622 103 603 b 169 646 150 603 169 622 z m 169 732 b 126 775 169 756 150 775 b 83 732 103 775 83 756 b 126 689 83 708 103 689 b 169 732 150 689 169 708 z m 169 818 b 126 861 169 842 150 861 b 83 818 103 861 83 842 b 126 775 83 794 103 775 b 169 818 150 775 169 794 z m 169 129 b 126 172 169 153 150 172 b 83 129 103 172 83 153 b 126 86 83 106 103 86 b 169 129 150 86 169 106 z m 256 43 b 213 86 256 67 236 86 b 169 43 189 86 169 67 b 213 0 169 19 189 0 b 256 43 236 0 256 19 z m 256 818 b 213 861 256 842 236 861 b 169 818 189 861 169 842 b 213 775 169 794 189 775 b 256 818 236 775 256 794 z m 342 43 b 299 86 342 67 322 86 b 256 43 275 86 256 67 b 299 0 256 19 275 0 b 342 43 322 0 342 19 z m 342 818 b 299 861 342 842 322 861 b 256 818 275 861 256 842 b 299 775 256 794 275 775 b 342 818 322 775 342 794 z m 428 43 b 385 86 428 67 408 86 b 342 43 361 86 342 67 b 385 0 342 19 361 0 b 428 43 408 0 428 19 z m 428 818 b 385 861 428 842 408 861 b 342 818 361 861 342 842 b 385 775 342 794 361 775 b 428 818 408 775 428 794 z m 514 43 b 471 86 514 67 494 86 b 428 43 447 86 428 67 b 471 0 428 19 447 0 b 514 43 494 0 514 19 z m 514 818 b 471 861 514 842 494 861 b 428 818 447 861 428 842 b 471 775 428 794 447 775 b 514 818 494 775 514 794 z m 256 474 b 213 517 256 497 236 517 b 169 474 189 517 169 497 b 213 431 169 450 189 431 b 256 474 236 431 256 450 z m 342 474 b 299 517 342 497 322 517 b 256 474 275 517 256 497 b 299 431 256 450 275 431 b 342 474 322 431 342 450 z m 428 474 b 385 517 428 497 408 517 b 342 474 361 517 342 497 b 385 431 342 450 361 431 b 428 474 408 431 428 450 z "},"F":{"ha":542,"x_min":0,"x_max":0,"o":"m 169 43 b 126 86 169 67 150 86 b 83 43 103 86 83 67 b 126 0 83 19 103 0 b 169 43 150 0 169 19 z m 169 215 b 126 258 169 239 150 258 b 83 215 103 258 83 239 b 126 172 83 192 103 172 b 169 215 150 172 169 192 z m 169 301 b 126 344 169 325 150 344 b 83 301 103 344 83 325 b 126 258 83 278 103 258 b 169 301 150 258 169 278 z m 169 388 b 126 431 169 411 150 431 b 83 388 103 431 83 411 b 126 344 83 364 103 344 b 169 388 150 344 169 364 z m 169 474 b 126 517 169 497 150 517 b 83 474 103 517 83 497 b 126 431 83 450 103 431 b 169 474 150 431 169 450 z m 169 560 b 126 603 169 583 150 603 b 83 560 103 603 83 583 b 126 517 83 536 103 517 b 169 560 150 517 169 536 z m 169 646 b 126 689 169 669 150 689 b 83 646 103 689 83 669 b 126 603 83 622 103 603 b 169 646 150 603 169 622 z m 169 732 b 126 775 169 756 150 775 b 83 732 103 775 83 756 b 126 689 83 708 103 689 b 169 732 150 689 169 708 z m 169 818 b 126 861 169 842 150 861 b 83 818 103 861 83 842 b 126 775 83 794 103 775 b 169 818 150 775 169 794 z m 169 129 b 126 172 169 153 150 172 b 83 129 103 172 83 153 b 126 86 83 106 103 86 b 169 129 150 86 169 106 z m 256 818 b 213 861 256 842 236 861 b 169 818 189 861 169 842 b 213 775 169 794 189 775 b 256 818 236 775 256 794 z m 342 818 b 299 861 342 842 322 861 b 256 818 275 861 256 842 b 299 775 256 794 275 775 b 342 818 322 775 342 794 z m 428 818 b 385 861 428 842 408 861 b 342 818 361 861 342 842 b 385 775 342 794 361 775 b 428 818 408 775 428 794 z m 514 818 b 471 861 514 842 494 861 b 428 818 447 861 428 842 b 471 775 428 794 447 775 b 514 818 494 775 514 794 z m 256 474 b 213 517 256 497 236 517 b 169 474 189 517 169 497 b 213 431 169 450 189 431 b 256 474 236 431 256 450 z m 342 474 b 299 517 342 497 322 517 b 256 474 275 517 256 497 b 299 431 256 450 275 431 b 342 474 322 431 342 450 z m 428 474 b 385 517 428 497 408 517 b 342 474 361 517 342 497 b 385 431 342 450 361 431 b 428 474 408 431 428 450 z "},"G":{"ha":669,"x_min":0,"x_max":0,"o":"m 169 215 b 126 258 169 239 150 258 b 83 215 103 258 83 239 b 126 172 83 192 103 172 b 169 215 150 172 169 192 z m 169 301 b 126 344 169 325 150 344 b 83 301 103 344 83 325 b 126 258 83 278 103 258 b 169 301 150 258 169 278 z m 169 388 b 126 431 169 411 150 431 b 83 388 103 431 83 411 b 126 344 83 364 103 344 b 169 388 150 344 169 364 z m 169 474 b 126 517 169 497 150 517 b 83 474 103 517 83 497 b 126 431 83 450 103 431 b 169 474 150 431 169 450 z m 169 560 b 126 603 169 583 150 603 b 83 560 103 603 83 583 b 126 517 83 536 103 517 b 169 560 150 517 169 536 z m 169 646 b 126 689 169 669 150 689 b 83 646 103 689 83 669 b 126 603 83 622 103 603 b 169 646 150 603 169 622 z m 169 732 b 126 775 169 756 150 775 b 83 732 103 775 83 756 b 126 689 83 708 103 689 b 169 732 150 689 169 708 z m 169 129 b 126 172 169 153 150 172 b 83 129 103 172 83 153 b 126 86 83 106 103 86 b 169 129 150 86 169 106 z m 256 43 b 213 86 256 67 236 86 b 169 43 189 86 169 67 b 213 0 169 19 189 0 b 256 43 236 0 256 19 z m 256 818 b 213 861 256 842 236 861 b 169 818 189 861 169 842 b 213 775 169 794 189 775 b 256 818 236 775 256 794 z m 342 43 b 299 86 342 67 322 86 b 256 43 275 86 256 67 b 299 0 256 19 275 0 b 342 43 322 0 342 19 z m 342 818 b 299 861 342 842 322 861 b 256 818 275 861 256 842 b 299 775 256 794 275 775 b 342 818 322 775 342 794 z m 428 43 b 385 86 428 67 408 86 b 342 43 361 86 342 67 b 385 0 342 19 361 0 b 428 43 408 0 428 19 z m 428 818 b 385 861 428 842 408 861 b 342 818 361 861 342 842 b 385 775 342 794 361 775 b 428 818 408 775 428 794 z m 514 43 b 471 86 514 67 494 86 b 428 43 447 86 428 67 b 471 0 428 19 447 0 b 514 43 494 0 514 19 z m 514 818 b 471 861 514 842 494 861 b 428 818 447 861 428 842 b 471 775 428 794 447 775 b 514 818 494 775 514 794 z m 600 732 b 557 775 600 756 581 775 b 514 732 533 775 514 756 b 557 689 514 708 533 689 b 600 732 581 689 600 708 z m 600 215 b 557 258 600 239 581 258 b 514 215 533 258 514 239 b 557 172 514 192 533 172 b 600 215 581 172 600 192 z m 600 301 b 557 344 600 325 581 344 b 514 301 533 344 514 325 b 557 258 514 278 533 258 b 600 301 581 258 600 278 z m 600 388 b 557 431 600 411 581 431 b 514 388 533 431 514 411 b 557 344 514 364 533 344 b 600 388 581 344 600 364 z m 600 129 b 557 172 600 153 581 172 b 514 129 533 172 514 153 b 557 86 514 106 533 86 b 600 129 581 86 600 106 z m 514 388 b 471 431 514 411 494 431 b 428 388 447 431 428 411 b 471 344 428 364 447 344 b 514 388 494 344 514 364 z "},"H":{"ha":683,"x_min":0,"x_max":0,"o":"m 169 43 b 126 86 169 67 150 86 b 83 43 103 86 83 67 b 126 0 83 19 103 0 b 169 43 150 0 169 19 z m 169 215 b 126 258 169 239 150 258 b 83 215 103 258 83 239 b 126 172 83 192 103 172 b 169 215 150 172 169 192 z m 169 301 b 126 344 169 325 150 344 b 83 301 103 344 83 325 b 126 258 83 278 103 258 b 169 301 150 258 169 278 z m 169 388 b 126 431 169 411 150 431 b 83 388 103 431 83 411 b 126 344 83 364 103 344 b 169 388 150 344 169 364 z m 169 474 b 126 517 169 497 150 517 b 83 474 103 517 83 497 b 126 431 83 450 103 431 b 169 474 150 431 169 450 z m 169 560 b 126 603 169 583 150 603 b 83 560 103 603 83 583 b 126 517 83 536 103 517 b 169 560 150 517 169 536 z m 169 646 b 126 689 169 669 150 689 b 83 646 103 689 83 669 b 126 603 83 622 103 603 b 169 646 150 603 169 622 z m 169 732 b 126 775 169 756 150 775 b 83 732 103 775 83 756 b 126 689 83 708 103 689 b 169 732 150 689 169 708 z m 169 818 b 126 861 169 842 150 861 b 83 818 103 861 83 842 b 126 775 83 794 103 775 b 169 818 150 775 169 794 z m 169 129 b 126 172 169 153 150 172 b 83 129 103 172 83 153 b 126 86 83 106 103 86 b 169 129 150 86 169 106 z m 600 43 b 557 86 600 67 581 86 b 514 43 533 86 514 67 b 557 0 514 19 533 0 b 600 43 581 0 600 19 z m 600 646 b 557 689 600 669 581 689 b 514 646 533 689 514 669 b 557 603 514 622 533 603 b 600 646 581 603 600 622 z m 600 732 b 557 775 600 756 581 775 b 514 732 533 775 514 756 b 557 689 514 708 533 689 b 600 732 581 689 600 708 z m 600 818 b 557 861 600 842 581 861 b 514 818 533 861 514 842 b 557 775 514 794 533 775 b 600 818 581 775 600 794 z m 600 129 b 557 172 600 153 581 172 b 514 129 533 172 514 153 b 557 86 514 106 533 86 b 600 129 581 86 600 106 z m 256 474 b 213 517 256 497 236 517 b 169 474 189 517 169 497 b 213 431 169 450 189 431 b 256 474 236 431 256 450 z m 342 474 b 299 517 342 497 322 517 b 256 474 275 517 256 497 b 299 431 256 450 275 431 b 342 474 322 431 342 450 z m 428 474 b 385 517 428 497 408 517 b 342 474 361 517 342 497 b 385 431 342 450 361 431 b 428 474 408 431 428 450 z m 514 474 b 471 517 514 497 494 517 b 428 474 447 517 428 497 b 471 431 428 450 447 431 b 514 474 494 431 514 450 z m 600 215 b 557 258 600 239 581 258 b 514 215 533 258 514 239 b 557 172 514 192 533 172 b 600 215 581 172 600 192 z m 600 301 b 557 344 600 325 581 344 b 514 301 533 344 514 325 b 557 258 514 278 533 258 b 600 301 581 258 600 278 z m 600 388 b 557 431 600 411 581 431 b 514 388 533 431 514 411 b 557 344 514 364 533 344 b 600 388 581 344 600 364 z m 600 474 b 557 517 600 497 581 517 b 514 474 533 517 514 497 b 557 431 514 450 533 431 b 600 474 581 431 600 450 z m 600 560 b 557 603 600 583 581 603 b 514 560 533 603 514 583 b 557 517 514 536 533 517 b 600 560 581 517 600 536 z "},"I":{"ha":369,"x_min":0,"x_max":0,"o":"m 142 43 b 99 86 142 67 122 86 b 56 43 75 86 56 67 b 99 0 56 19 75 0 b 142 43 122 0 142 19 z m 142 818 b 99 861 142 842 122 861 b 56 818 75 861 56 842 b 99 775 56 794 75 775 b 142 818 122 775 142 794 z m 228 43 b 185 86 228 67 208 86 b 142 43 161 86 142 67 b 185 0 142 19 161 0 b 228 43 208 0 228 19 z m 228 646 b 185 689 228 669 208 689 b 142 646 161 689 142 669 b 185 603 142 622 161 603 b 228 646 208 603 228 622 z m 228 732 b 185 775 228 756 208 775 b 142 732 161 775 142 756 b 185 689 142 708 161 689 b 228 732 208 689 228 708 z m 228 818 b 185 861 228 842 208 861 b 142 818 161 861 142 842 b 185 775 142 794 161 775 b 228 818 208 775 228 794 z m 228 129 b 185 172 228 153 208 172 b 142 129 161 172 142 153 b 185 86 142 106 161 86 b 228 129 208 86 228 106 z m 314 43 b 271 86 314 67 294 86 b 228 43 247 86 228 67 b 271 0 228 19 247 0 b 314 43 294 0 314 19 z m 314 818 b 271 861 314 842 294 861 b 228 818 247 861 228 842 b 271 775 228 794 247 775 b 314 818 294 775 314 794 z m 228 215 b 185 258 228 239 208 258 b 142 215 161 258 142 239 b 185 172 142 192 161 172 b 228 215 208 172 228 192 z m 228 301 b 185 344 228 325 208 344 b 142 301 161 344 142 325 b 185 258 142 278 161 258 b 228 301 208 258 228 278 z m 228 388 b 185 431 228 411 208 431 b 142 388 161 431 142 411 b 185 344 142 364 161 344 b 228 388 208 344 228 364 z m 228 474 b 185 517 228 497 208 517 b 142 474 161 517 142 497 b 185 431 142 450 161 431 b 228 474 208 431 228 450 z m 228 560 b 185 603 228 583 208 603 b 142 560 161 603 142 583 b 185 517 142 536 161 517 b 228 560 208 517 228 536 z "},"J":{"ha":600,"x_min":0,"x_max":0,"o":"m 86 129 b 43 172 86 153 67 172 b 0 129 19 172 0 153 b 43 86 0 106 19 86 b 86 129 67 86 86 106 z m 172 43 b 129 86 172 67 153 86 b 86 43 106 86 86 67 b 129 0 86 19 106 0 b 172 43 153 0 172 19 z m 258 43 b 215 86 258 67 239 86 b 172 43 192 86 172 67 b 215 0 172 19 192 0 b 258 43 239 0 258 19 z m 344 43 b 301 86 344 67 325 86 b 258 43 278 86 258 67 b 301 0 258 19 278 0 b 344 43 325 0 344 19 z m 344 818 b 301 861 344 842 325 861 b 258 818 278 861 258 842 b 301 775 258 794 278 775 b 344 818 325 775 344 794 z m 431 43 b 388 86 431 67 411 86 b 344 43 364 86 344 67 b 388 0 344 19 364 0 b 431 43 411 0 431 19 z m 431 818 b 388 861 431 842 411 861 b 344 818 364 861 344 842 b 388 775 344 794 364 775 b 431 818 411 775 431 794 z m 517 646 b 474 689 517 669 497 689 b 431 646 450 689 431 669 b 474 603 431 622 450 603 b 517 646 497 603 517 622 z m 517 732 b 474 775 517 756 497 775 b 431 732 450 775 431 756 b 474 689 431 708 450 689 b 517 732 497 689 517 708 z m 517 818 b 474 861 517 842 497 861 b 431 818 450 861 431 842 b 474 775 431 794 450 775 b 517 818 497 775 517 794 z m 517 129 b 474 172 517 153 497 172 b 431 129 450 172 431 153 b 474 86 431 106 450 86 b 517 129 497 86 517 106 z m 517 215 b 474 258 517 239 497 258 b 431 215 450 258 431 239 b 474 172 431 192 450 172 b 517 215 497 172 517 192 z m 517 301 b 474 344 517 325 497 344 b 431 301 450 344 431 325 b 474 258 431 278 450 258 b 517 301 497 258 517 278 z m 517 388 b 474 431 517 411 497 431 b 431 388 450 431 431 411 b 474 344 431 364 450 344 b 517 388 497 344 517 364 z m 517 474 b 474 517 517 497 497 517 b 431 474 450 517 431 497 b 474 431 431 450 450 431 b 517 474 497 431 517 450 z m 517 560 b 474 603 517 583 497 603 b 431 560 450 603 431 583 b 474 517 431 536 450 517 b 517 560 497 517 517 536 z "},"K":{"ha":656,"x_min":0,"x_max":0,"o":"m 169 43 b 126 86 169 67 150 86 b 83 43 103 86 83 67 b 126 0 83 19 103 0 b 169 43 150 0 169 19 z m 169 215 b 126 258 169 239 150 258 b 83 215 103 258 83 239 b 126 172 83 192 103 172 b 169 215 150 172 169 192 z m 169 301 b 126 344 169 325 150 344 b 83 301 103 344 83 325 b 126 258 83 278 103 258 b 169 301 150 258 169 278 z m 169 388 b 126 431 169 411 150 431 b 83 388 103 431 83 411 b 126 344 83 364 103 344 b 169 388 150 344 169 364 z m 169 474 b 126 517 169 497 150 517 b 83 474 103 517 83 497 b 126 431 83 450 103 431 b 169 474 150 431 169 450 z m 169 560 b 126 603 169 583 150 603 b 83 560 103 603 83 583 b 126 517 83 536 103 517 b 169 560 150 517 169 536 z m 169 646 b 126 689 169 669 150 689 b 83 646 103 689 83 669 b 126 603 83 622 103 603 b 169 646 150 603 169 622 z m 169 732 b 126 775 169 756 150 775 b 83 732 103 775 83 756 b 126 689 83 708 103 689 b 169 732 150 689 169 708 z m 169 818 b 126 861 169 842 150 861 b 83 818 103 861 83 842 b 126 775 83 794 103 775 b 169 818 150 775 169 794 z m 169 129 b 126 172 169 153 150 172 b 83 129 103 172 83 153 b 126 86 83 106 103 86 b 169 129 150 86 169 106 z m 428 646 b 385 689 428 669 408 689 b 342 646 361 689 342 669 b 385 603 342 622 361 603 b 428 646 408 603 428 622 z m 514 732 b 471 775 514 756 494 775 b 428 732 447 775 428 756 b 471 689 428 708 447 689 b 514 732 494 689 514 708 z m 600 43 b 557 86 600 67 581 86 b 514 43 533 86 514 67 b 557 0 514 19 533 0 b 600 43 581 0 600 19 z m 600 818 b 557 861 600 842 581 861 b 514 818 533 861 514 842 b 557 775 514 794 533 775 b 600 818 581 775 600 794 z m 600 129 b 557 172 600 153 581 172 b 514 129 533 172 514 153 b 557 86 514 106 533 86 b 600 129 581 86 600 106 z m 256 474 b 213 517 256 497 236 517 b 169 474 189 517 169 497 b 213 431 169 450 189 431 b 256 474 236 431 256 450 z m 342 388 b 299 431 342 411 322 431 b 256 388 275 431 256 411 b 299 344 256 364 275 344 b 342 388 322 344 342 364 z m 342 560 b 299 603 342 583 322 603 b 256 560 275 603 256 583 b 299 517 256 536 275 517 b 342 560 322 517 342 536 z m 428 301 b 385 344 428 325 408 344 b 342 301 361 344 342 325 b 385 258 342 278 361 258 b 428 301 408 258 428 278 z m 514 215 b 471 258 514 239 494 258 b 428 215 447 258 428 239 b 471 172 428 192 447 172 b 514 215 494 172 514 192 z "},"L":{"ha":628,"x_min":0,"x_max":0,"o":"m 169 43 b 126 86 169 67 150 86 b 83 43 103 86 83 67 b 126 0 83 19 103 0 b 169 43 150 0 169 19 z m 169 215 b 126 258 169 239 150 258 b 83 215 103 258 83 239 b 126 172 83 192 103 172 b 169 215 150 172 169 192 z m 169 301 b 126 344 169 325 150 344 b 83 301 103 344 83 325 b 126 258 83 278 103 258 b 169 301 150 258 169 278 z m 169 388 b 126 431 169 411 150 431 b 83 388 103 431 83 411 b 126 344 83 364 103 344 b 169 388 150 344 169 364 z m 169 474 b 126 517 169 497 150 517 b 83 474 103 517 83 497 b 126 431 83 450 103 431 b 169 474 150 431 169 450 z m 169 560 b 126 603 169 583 150 603 b 83 560 103 603 83 583 b 126 517 83 536 103 517 b 169 560 150 517 169 536 z m 169 646 b 126 689 169 669 150 689 b 83 646 103 689 83 669 b 126 603 83 622 103 603 b 169 646 150 603 169 622 z m 169 732 b 126 775 169 756 150 775 b 83 732 103 775 83 756 b 126 689 83 708 103 689 b 169 732 150 689 169 708 z m 169 818 b 126 861 169 842 150 861 b 83 818 103 861 83 842 b 126 775 83 794 103 775 b 169 818 150 775 169 794 z m 169 129 b 126 172 169 153 150 172 b 83 129 103 172 83 153 b 126 86 83 106 103 86 b 169 129 150 86 169 106 z m 256 43 b 213 86 256 67 236 86 b 169 43 189 86 169 67 b 213 0 169 19 189 0 b 256 43 236 0 256 19 z m 342 43 b 299 86 342 67 322 86 b 256 43 275 86 256 67 b 299 0 256 19 275 0 b 342 43 322 0 342 19 z m 428 43 b 385 86 428 67 408 86 b 342 43 361 86 342 67 b 385 0 342 19 361 0 b 428 43 408 0 428 19 z m 514 43 b 471 86 514 67 494 86 b 428 43 447 86 428 67 b 471 0 428 19 447 0 b 514 43 494 0 514 19 z m 600 43 b 557 86 600 67 581 86 b 514 43 533 86 514 67 b 557 0 514 19 533 0 b 600 43 581 0 600 19 z "},"M":{"ha":769,"x_min":0,"x_max":0,"o":"m 169 43 b 126 86 169 67 150 86 b 83 43 103 86 83 67 b 126 0 83 19 103 0 b 169 43 150 0 169 19 z m 169 215 b 126 258 169 239 150 258 b 83 215 103 258 83 239 b 126 172 83 192 103 172 b 169 215 150 172 169 192 z m 169 301 b 126 344 169 325 150 344 b 83 301 103 344 83 325 b 126 258 83 278 103 258 b 169 301 150 258 169 278 z m 169 388 b 126 431 169 411 150 431 b 83 388 103 431 83 411 b 126 344 83 364 103 344 b 169 388 150 344 169 364 z m 169 474 b 126 517 169 497 150 517 b 83 474 103 517 83 497 b 126 431 83 450 103 431 b 169 474 150 431 169 450 z m 169 560 b 126 603 169 583 150 603 b 83 560 103 603 83 583 b 126 517 83 536 103 517 b 169 560 150 517 169 536 z m 169 646 b 126 689 169 669 150 689 b 83 646 103 689 83 669 b 126 603 83 622 103 603 b 169 646 150 603 169 622 z m 169 732 b 126 775 169 756 150 775 b 83 732 103 775 83 756 b 126 689 83 708 103 689 b 169 732 150 689 169 708 z m 169 818 b 126 861 169 842 150 861 b 83 818 103 861 83 842 b 126 775 83 794 103 775 b 169 818 150 775 169 794 z m 169 129 b 126 172 169 153 150 172 b 83 129 103 172 83 153 b 126 86 83 106 103 86 b 169 129 150 86 169 106 z m 256 732 b 213 775 256 756 236 775 b 169 732 189 775 169 756 b 213 689 169 708 189 689 b 256 732 236 689 256 708 z m 342 646 b 299 689 342 669 322 689 b 256 646 275 689 256 669 b 299 603 256 622 275 603 b 342 646 322 603 342 622 z m 514 646 b 471 689 514 669 494 689 b 428 646 447 689 428 669 b 471 603 428 622 447 603 b 514 646 494 603 514 622 z m 600 732 b 557 775 600 756 581 775 b 514 732 533 775 514 756 b 557 689 514 708 533 689 b 600 732 581 689 600 708 z m 686 43 b 643 86 686 67 667 86 b 600 43 619 86 600 67 b 643 0 600 19 619 0 b 686 43 667 0 686 19 z m 686 215 b 643 258 686 239 667 258 b 600 215 619 258 600 239 b 643 172 600 192 619 172 b 686 215 667 172 686 192 z m 686 301 b 643 344 686 325 667 344 b 600 301 619 344 600 325 b 643 258 600 278 619 258 b 686 301 667 258 686 278 z m 686 388 b 643 431 686 411 667 431 b 600 388 619 431 600 411 b 643 344 600 364 619 344 b 686 388 667 344 686 364 z m 686 474 b 643 517 686 497 667 517 b 600 474 619 517 600 497 b 643 431 600 450 619 431 b 686 474 667 431 686 450 z m 686 560 b 643 603 686 583 667 603 b 600 560 619 603 600 583 b 643 517 600 536 619 517 b 686 560 667 517 686 536 z m 686 646 b 643 689 686 669 667 689 b 600 646 619 689 600 669 b 643 603 600 622 619 603 b 686 646 667 603 686 622 z m 686 732 b 643 775 686 756 667 775 b 600 732 619 775 600 756 b 643 689 600 708 619 689 b 686 732 667 689 686 708 z m 686 818 b 643 861 686 842 667 861 b 600 818 619 861 600 842 b 643 775 600 794 619 775 b 686 818 667 775 686 794 z m 686 129 b 643 172 686 153 667 172 b 600 129 619 172 600 153 b 643 86 600 106 619 86 b 686 129 667 86 686 106 z m 428 560 b 385 603 428 583 408 603 b 342 560 361 603 342 583 b 385 517 342 536 361 517 b 428 560 408 517 428 536 z "},"N":{"ha":683,"x_min":0,"x_max":0,"o":"m 169 43 b 126 86 169 67 150 86 b 83 43 103 86 83 67 b 126 0 83 19 103 0 b 169 43 150 0 169 19 z m 169 215 b 126 258 169 239 150 258 b 83 215 103 258 83 239 b 126 172 83 192 103 172 b 169 215 150 172 169 192 z m 169 301 b 126 344 169 325 150 344 b 83 301 103 344 83 325 b 126 258 83 278 103 258 b 169 301 150 258 169 278 z m 169 388 b 126 431 169 411 150 431 b 83 388 103 431 83 411 b 126 344 83 364 103 344 b 169 388 150 344 169 364 z m 169 474 b 126 517 169 497 150 517 b 83 474 103 517 83 497 b 126 431 83 450 103 431 b 169 474 150 431 169 450 z m 169 560 b 126 603 169 583 150 603 b 83 560 103 603 83 583 b 126 517 83 536 103 517 b 169 560 150 517 169 536 z m 169 646 b 126 689 169 669 150 689 b 83 646 103 689 83 669 b 126 603 83 622 103 603 b 169 646 150 603 169 622 z m 169 732 b 126 775 169 756 150 775 b 83 732 103 775 83 756 b 126 689 83 708 103 689 b 169 732 150 689 169 708 z m 169 818 b 126 861 169 842 150 861 b 83 818 103 861 83 842 b 126 775 83 794 103 775 b 169 818 150 775 169 794 z m 169 129 b 126 172 169 153 150 172 b 83 129 103 172 83 153 b 126 86 83 106 103 86 b 169 129 150 86 169 106 z m 256 646 b 213 689 256 669 236 689 b 169 646 189 689 169 669 b 213 603 169 622 189 603 b 256 646 236 603 256 622 z m 600 43 b 557 86 600 67 581 86 b 514 43 533 86 514 67 b 557 0 514 19 533 0 b 600 43 581 0 600 19 z m 600 646 b 557 689 600 669 581 689 b 514 646 533 689 514 669 b 557 603 514 622 533 603 b 600 646 581 603 600 622 z m 600 732 b 557 775 600 756 581 775 b 514 732 533 775 514 756 b 557 689 514 708 533 689 b 600 732 581 689 600 708 z m 600 818 b 557 861 600 842 581 861 b 514 818 533 861 514 842 b 557 775 514 794 533 775 b 600 818 581 775 600 794 z m 600 129 b 557 172 600 153 581 172 b 514 129 533 172 514 153 b 557 86 514 106 533 86 b 600 129 581 86 600 106 z m 342 474 b 299 517 342 497 322 517 b 256 474 275 517 256 497 b 299 431 256 450 275 431 b 342 474 322 431 342 450 z m 342 560 b 299 603 342 583 322 603 b 256 560 275 603 256 583 b 299 517 256 536 275 517 b 342 560 322 517 342 536 z m 428 301 b 385 344 428 325 408 344 b 342 301 361 344 342 325 b 385 258 342 278 361 258 b 428 301 408 258 428 278 z m 428 388 b 385 431 428 411 408 431 b 342 388 361 431 342 411 b 385 344 342 364 361 344 b 428 388 408 344 428 364 z m 514 215 b 471 258 514 239 494 258 b 428 215 447 258 428 239 b 471 172 428 192 447 172 b 514 215 494 172 514 192 z m 600 215 b 557 258 600 239 581 258 b 514 215 533 258 514 239 b 557 172 514 192 533 172 b 600 215 581 172 600 192 z m 600 301 b 557 344 600 325 581 344 b 514 301 533 344 514 325 b 557 258 514 278 533 258 b 600 301 581 258 600 278 z m 600 388 b 557 431 600 411 581 431 b 514 388 533 431 514 411 b 557 344 514 364 533 344 b 600 388 581 344 600 364 z m 600 474 b 557 517 600 497 581 517 b 514 474 533 517 514 497 b 557 431 514 450 533 431 b 600 474 581 431 600 450 z m 600 560 b 557 603 600 583 581 603 b 514 560 533 603 514 583 b 557 517 514 536 533 517 b 600 560 581 517 600 536 z "},"O":{"ha":683,"x_min":0,"x_max":0,"o":"m 169 215 b 126 258 169 239 150 258 b 83 215 103 258 83 239 b 126 172 83 192 103 172 b 169 215 150 172 169 192 z m 169 301 b 126 344 169 325 150 344 b 83 301 103 344 83 325 b 126 258 83 278 103 258 b 169 301 150 258 169 278 z m 169 388 b 126 431 169 411 150 431 b 83 388 103 431 83 411 b 126 344 83 364 103 344 b 169 388 150 344 169 364 z m 169 474 b 126 517 169 497 150 517 b 83 474 103 517 83 497 b 126 431 83 450 103 431 b 169 474 150 431 169 450 z m 169 560 b 126 603 169 583 150 603 b 83 560 103 603 83 583 b 126 517 83 536 103 517 b 169 560 150 517 169 536 z m 169 646 b 126 689 169 669 150 689 b 83 646 103 689 83 669 b 126 603 83 622 103 603 b 169 646 150 603 169 622 z m 169 732 b 126 775 169 756 150 775 b 83 732 103 775 83 756 b 126 689 83 708 103 689 b 169 732 150 689 169 708 z m 169 129 b 126 172 169 153 150 172 b 83 129 103 172 83 153 b 126 86 83 106 103 86 b 169 129 150 86 169 106 z m 256 43 b 213 86 256 67 236 86 b 169 43 189 86 169 67 b 213 0 169 19 189 0 b 256 43 236 0 256 19 z m 256 818 b 213 861 256 842 236 861 b 169 818 189 861 169 842 b 213 775 169 794 189 775 b 256 818 236 775 256 794 z m 342 43 b 299 86 342 67 322 86 b 256 43 275 86 256 67 b 299 0 256 19 275 0 b 342 43 322 0 342 19 z m 342 818 b 299 861 342 842 322 861 b 256 818 275 861 256 842 b 299 775 256 794 275 775 b 342 818 322 775 342 794 z m 428 43 b 385 86 428 67 408 86 b 342 43 361 86 342 67 b 385 0 342 19 361 0 b 428 43 408 0 428 19 z m 428 818 b 385 861 428 842 408 861 b 342 818 361 861 342 842 b 385 775 342 794 361 775 b 428 818 408 775 428 794 z m 514 43 b 471 86 514 67 494 86 b 428 43 447 86 428 67 b 471 0 428 19 447 0 b 514 43 494 0 514 19 z m 514 818 b 471 861 514 842 494 861 b 428 818 447 861 428 842 b 471 775 428 794 447 775 b 514 818 494 775 514 794 z m 600 646 b 557 689 600 669 581 689 b 514 646 533 689 514 669 b 557 603 514 622 533 603 b 600 646 581 603 600 622 z m 600 732 b 557 775 600 756 581 775 b 514 732 533 775 514 756 b 557 689 514 708 533 689 b 600 732 581 689 600 708 z m 600 129 b 557 172 600 153 581 172 b 514 129 533 172 514 153 b 557 86 514 106 533 86 b 600 129 581 86 600 106 z m 600 215 b 557 258 600 239 581 258 b 514 215 533 258 514 239 b 557 172 514 192 533 172 b 600 215 581 172 600 192 z m 600 301 b 557 344 600 325 581 344 b 514 301 533 344 514 325 b 557 258 514 278 533 258 b 600 301 581 258 600 278 z m 600 388 b 557 431 600 411 581 431 b 514 388 533 431 514 411 b 557 344 514 364 533 344 b 600 388 581 344 600 364 z m 600 474 b 557 517 600 497 581 517 b 514 474 533 517 514 497 b 557 431 514 450 533 431 b 600 474 581 431 600 450 z m 600 560 b 557 603 600 583 581 603 b 514 560 533 603 514 583 b 557 517 514 536 533 517 b 600 560 581 517 600 536 z "},"P":{"ha":656,"x_min":0,"x_max":0,"o":"m 169 43 b 126 86 169 67 150 86 b 83 43 103 86 83 67 b 126 0 83 19 103 0 b 169 43 150 0 169 19 z m 169 215 b 126 258 169 239 150 258 b 83 215 103 258 83 239 b 126 172 83 192 103 172 b 169 215 150 172 169 192 z m 169 301 b 126 344 169 325 150 344 b 83 301 103 344 83 325 b 126 258 83 278 103 258 b 169 301 150 258 169 278 z m 169 388 b 126 431 169 411 150 431 b 83 388 103 431 83 411 b 126 344 83 364 103 344 b 169 388 150 344 169 364 z m 169 474 b 126 517 169 497 150 517 b 83 474 103 517 83 497 b 126 431 83 450 103 431 b 169 474 150 431 169 450 z m 169 560 b 126 603 169 583 150 603 b 83 560 103 603 83 583 b 126 517 83 536 103 517 b 169 560 150 517 169 536 z m 169 646 b 126 689 169 669 150 689 b 83 646 103 689 83 669 b 126 603 83 622 103 603 b 169 646 150 603 169 622 z m 169 732 b 126 775 169 756 150 775 b 83 732 103 775 83 756 b 126 689 83 708 103 689 b 169 732 150 689 169 708 z m 169 818 b 126 861 169 842 150 861 b 83 818 103 861 83 842 b 126 775 83 794 103 775 b 169 818 150 775 169 794 z m 169 129 b 126 172 169 153 150 172 b 83 129 103 172 83 153 b 126 86 83 106 103 86 b 169 129 150 86 169 106 z m 256 818 b 213 861 256 842 236 861 b 169 818 189 861 169 842 b 213 775 169 794 189 775 b 256 818 236 775 256 794 z m 342 818 b 299 861 342 842 322 861 b 256 818 275 861 256 842 b 299 775 256 794 275 775 b 342 818 322 775 342 794 z m 428 818 b 385 861 428 842 408 861 b 342 818 361 861 342 842 b 385 775 342 794 361 775 b 428 818 408 775 428 794 z m 514 818 b 471 861 514 842 494 861 b 428 818 447 861 428 842 b 471 775 428 794 447 775 b 514 818 494 775 514 794 z m 600 646 b 557 689 600 669 581 689 b 514 646 533 689 514 669 b 557 603 514 622 533 603 b 600 646 581 603 600 622 z m 600 732 b 557 775 600 756 581 775 b 514 732 533 775 514 756 b 557 689 514 708 533 689 b 600 732 581 689 600 708 z m 256 388 b 213 431 256 411 236 431 b 169 388 189 431 169 411 b 213 344 169 364 189 344 b 256 388 236 344 256 364 z m 342 301 b 299 344 342 325 322 344 b 256 301 275 344 256 325 b 299 258 256 278 275 258 b 342 301 322 258 342 278 z m 428 301 b 385 344 428 325 408 344 b 342 301 361 344 342 325 b 385 258 342 278 361 258 b 428 301 408 258 428 278 z m 514 301 b 471 344 514 325 494 344 b 428 301 447 344 428 325 b 471 258 428 278 447 258 b 514 301 494 258 514 278 z m 600 388 b 557 431 600 411 581 431 b 514 388 533 431 514 411 b 557 344 514 364 533 344 b 600 388 581 344 600 364 z m 600 474 b 557 517 600 497 581 517 b 514 474 533 517 514 497 b 557 431 514 450 533 431 b 600 474 581 431 600 450 z m 600 560 b 557 603 600 583 581 603 b 514 560 533 603 514 583 b 557 517 514 536 533 517 b 600 560 581 517 600 536 z "},"Q":{"ha":683,"x_min":0,"x_max":0,"o":"m 169 215 b 126 258 169 239 150 258 b 83 215 103 258 83 239 b 126 172 83 192 103 172 b 169 215 150 172 169 192 z m 169 301 b 126 344 169 325 150 344 b 83 301 103 344 83 325 b 126 258 83 278 103 258 b 169 301 150 258 169 278 z m 169 388 b 126 431 169 411 150 431 b 83 388 103 431 83 411 b 126 344 83 364 103 344 b 169 388 150 344 169 364 z m 169 474 b 126 517 169 497 150 517 b 83 474 103 517 83 497 b 126 431 83 450 103 431 b 169 474 150 431 169 450 z m 169 560 b 126 603 169 583 150 603 b 83 560 103 603 83 583 b 126 517 83 536 103 517 b 169 560 150 517 169 536 z m 169 646 b 126 689 169 669 150 689 b 83 646 103 689 83 669 b 126 603 83 622 103 603 b 169 646 150 603 169 622 z m 169 732 b 126 775 169 756 150 775 b 83 732 103 775 83 756 b 126 689 83 708 103 689 b 169 732 150 689 169 708 z m 169 129 b 126 172 169 153 150 172 b 83 129 103 172 83 153 b 126 86 83 106 103 86 b 169 129 150 86 169 106 z m 256 43 b 213 86 256 67 236 86 b 169 43 189 86 169 67 b 213 0 169 19 189 0 b 256 43 236 0 256 19 z m 256 818 b 213 861 256 842 236 861 b 169 818 189 861 169 842 b 213 775 169 794 189 775 b 256 818 236 775 256 794 z m 342 43 b 299 86 342 67 322 86 b 256 43 275 86 256 67 b 299 0 256 19 275 0 b 342 43 322 0 342 19 z m 342 818 b 299 861 342 842 322 861 b 256 818 275 861 256 842 b 299 775 256 794 275 775 b 342 818 322 775 342 794 z m 428 43 b 385 86 428 67 408 86 b 342 43 361 86 342 67 b 385 0 342 19 361 0 b 428 43 408 0 428 19 z m 428 818 b 385 861 428 842 408 861 b 342 818 361 861 342 842 b 385 775 342 794 361 775 b 428 818 408 775 428 794 z m 514 43 b 471 86 514 67 494 86 b 428 43 447 86 428 67 b 471 0 428 19 447 0 b 514 43 494 0 514 19 z m 514 818 b 471 861 514 842 494 861 b 428 818 447 861 428 842 b 471 775 428 794 447 775 b 514 818 494 775 514 794 z m 600 646 b 557 689 600 669 581 689 b 514 646 533 689 514 669 b 557 603 514 622 533 603 b 600 646 581 603 600 622 z m 600 732 b 557 775 600 756 581 775 b 514 732 533 775 514 756 b 557 689 514 708 533 689 b 600 732 581 689 600 708 z m 600 129 b 557 172 600 153 581 172 b 514 129 533 172 514 153 b 557 86 514 106 533 86 b 600 129 581 86 600 106 z m 600 215 b 557 258 600 239 581 258 b 514 215 533 258 514 239 b 557 172 514 192 533 172 b 600 215 581 172 600 192 z m 600 301 b 557 344 600 325 581 344 b 514 301 533 344 514 325 b 557 258 514 278 533 258 b 600 301 581 258 600 278 z m 600 388 b 557 431 600 411 581 431 b 514 388 533 431 514 411 b 557 344 514 364 533 344 b 600 388 581 344 600 364 z m 600 474 b 557 517 600 497 581 517 b 514 474 533 517 514 497 b 557 431 514 450 533 431 b 600 474 581 431 600 450 z m 600 560 b 557 603 600 583 581 603 b 514 560 533 603 514 583 b 557 517 514 536 533 517 b 600 560 581 517 600 536 z m 428 129 b 385 172 428 153 408 172 b 342 129 361 172 342 153 b 385 86 342 106 361 86 b 428 129 408 86 428 106 z m 428 -43 b 385 0 428 -19 408 0 b 342 -43 361 0 342 -19 b 385 -86 342 -67 361 -86 b 428 -43 408 -86 428 -67 z m 514 -129 b 471 -86 514 -106 494 -86 b 428 -129 447 -86 428 -106 b 471 -172 428 -153 447 -172 b 514 -129 494 -172 514 -153 z "},"R":{"ha":656,"x_min":0,"x_max":0,"o":"m 169 43 b 126 86 169 67 150 86 b 83 43 103 86 83 67 b 126 0 83 19 103 0 b 169 43 150 0 169 19 z m 169 215 b 126 258 169 239 150 258 b 83 215 103 258 83 239 b 126 172 83 192 103 172 b 169 215 150 172 169 192 z m 169 301 b 126 344 169 325 150 344 b 83 301 103 344 83 325 b 126 258 83 278 103 258 b 169 301 150 258 169 278 z m 169 388 b 126 431 169 411 150 431 b 83 388 103 431 83 411 b 126 344 83 364 103 344 b 169 388 150 344 169 364 z m 169 474 b 126 517 169 497 150 517 b 83 474 103 517 83 497 b 126 431 83 450 103 431 b 169 474 150 431 169 450 z m 169 560 b 126 603 169 583 150 603 b 83 560 103 603 83 583 b 126 517 83 536 103 517 b 169 560 150 517 169 536 z m 169 646 b 126 689 169 669 150 689 b 83 646 103 689 83 669 b 126 603 83 622 103 603 b 169 646 150 603 169 622 z m 169 732 b 126 775 169 756 150 775 b 83 732 103 775 83 756 b 126 689 83 708 103 689 b 169 732 150 689 169 708 z m 169 818 b 126 861 169 842 150 861 b 83 818 103 861 83 842 b 126 775 83 794 103 775 b 169 818 150 775 169 794 z m 169 129 b 126 172 169 153 150 172 b 83 129 103 172 83 153 b 126 86 83 106 103 86 b 169 129 150 86 169 106 z m 256 818 b 213 861 256 842 236 861 b 169 818 189 861 169 842 b 213 775 169 794 189 775 b 256 818 236 775 256 794 z m 342 818 b 299 861 342 842 322 861 b 256 818 275 861 256 842 b 299 775 256 794 275 775 b 342 818 322 775 342 794 z m 428 818 b 385 861 428 842 408 861 b 342 818 361 861 342 842 b 385 775 342 794 361 775 b 428 818 408 775 428 794 z m 514 818 b 471 861 514 842 494 861 b 428 818 447 861 428 842 b 471 775 428 794 447 775 b 514 818 494 775 514 794 z m 600 646 b 557 689 600 669 581 689 b 514 646 533 689 514 669 b 557 603 514 622 533 603 b 600 646 581 603 600 622 z m 600 732 b 557 775 600 756 581 775 b 514 732 533 775 514 756 b 557 689 514 708 533 689 b 600 732 581 689 600 708 z m 256 388 b 213 431 256 411 236 431 b 169 388 189 431 169 411 b 213 344 169 364 189 344 b 256 388 236 344 256 364 z m 342 301 b 299 344 342 325 322 344 b 256 301 275 344 256 325 b 299 258 256 278 275 258 b 342 301 322 258 342 278 z m 428 301 b 385 344 428 325 408 344 b 342 301 361 344 342 325 b 385 258 342 278 361 258 b 428 301 408 258 428 278 z m 514 301 b 471 344 514 325 494 344 b 428 301 447 344 428 325 b 471 258 428 278 447 258 b 514 301 494 258 514 278 z m 600 388 b 557 431 600 411 581 431 b 514 388 533 431 514 411 b 557 344 514 364 533 344 b 600 388 581 344 600 364 z m 600 474 b 557 517 600 497 581 517 b 514 474 533 517 514 497 b 557 431 514 450 533 431 b 600 474 581 431 600 450 z m 600 560 b 557 603 600 583 581 603 b 514 560 533 603 514 583 b 557 517 514 536 533 517 b 600 560 581 517 600 536 z m 428 215 b 385 258 428 239 408 258 b 342 215 361 258 342 239 b 385 172 342 192 361 172 b 428 215 408 172 428 192 z m 514 129 b 471 172 514 153 494 172 b 428 129 447 172 428 153 b 471 86 428 106 447 86 b 514 129 494 86 514 106 z m 600 43 b 557 86 600 67 581 86 b 514 43 533 86 514 67 b 557 0 514 19 533 0 b 600 43 581 0 600 19 z "},"S":{"ha":614,"x_min":0,"x_max":0,"o":"m 128 560 b 85 603 128 583 108 603 b 42 560 61 603 42 583 b 85 517 42 536 61 517 b 128 560 108 517 128 536 z m 128 646 b 85 689 128 669 108 689 b 42 646 61 689 42 669 b 85 603 42 622 61 603 b 128 646 108 603 128 622 z m 128 732 b 85 775 128 756 108 775 b 42 732 61 775 42 756 b 85 689 42 708 61 689 b 128 732 108 689 128 708 z m 128 129 b 85 172 128 153 108 172 b 42 129 61 172 42 153 b 85 86 42 106 61 86 b 128 129 108 86 128 106 z m 214 43 b 171 86 214 67 194 86 b 128 43 147 86 128 67 b 171 0 128 19 147 0 b 214 43 194 0 214 19 z m 214 474 b 171 517 214 497 194 517 b 128 474 147 517 128 497 b 171 431 128 450 147 431 b 214 474 194 431 214 450 z m 214 818 b 171 861 214 842 194 861 b 128 818 147 861 128 842 b 171 775 128 794 147 775 b 214 818 194 775 214 794 z m 300 43 b 257 86 300 67 281 86 b 214 43 233 86 214 67 b 257 0 214 19 233 0 b 300 43 281 0 300 19 z m 300 474 b 257 517 300 497 281 517 b 214 474 233 517 214 497 b 257 431 214 450 233 431 b 300 474 281 431 300 450 z m 300 818 b 257 861 300 842 281 861 b 214 818 233 861 214 842 b 257 775 214 794 233 775 b 300 818 281 775 300 794 z m 386 43 b 343 86 386 67 367 86 b 300 43 319 86 300 67 b 343 0 300 19 319 0 b 386 43 367 0 386 19 z m 386 474 b 343 517 386 497 367 517 b 300 474 319 517 300 497 b 343 431 300 450 319 431 b 386 474 367 431 386 450 z m 386 818 b 343 861 386 842 367 861 b 300 818 319 861 300 842 b 343 775 300 794 319 775 b 386 818 367 775 386 794 z m 472 43 b 429 86 472 67 453 86 b 386 43 406 86 386 67 b 429 0 386 19 406 0 b 472 43 453 0 472 19 z m 472 474 b 429 517 472 497 453 517 b 386 474 406 517 386 497 b 429 431 386 450 406 431 b 472 474 453 431 472 450 z m 472 818 b 429 861 472 842 453 861 b 386 818 406 861 386 842 b 429 775 386 794 406 775 b 472 818 453 775 472 794 z m 558 215 b 515 258 558 239 539 258 b 472 215 492 258 472 239 b 515 172 472 192 492 172 b 558 215 539 172 558 192 z m 558 301 b 515 344 558 325 539 344 b 472 301 492 344 472 325 b 515 258 472 278 492 258 b 558 301 539 258 558 278 z m 558 388 b 515 431 558 411 539 431 b 472 388 492 431 472 411 b 515 344 472 364 492 344 b 558 388 539 344 558 364 z m 558 732 b 515 775 558 756 539 775 b 472 732 492 775 472 756 b 515 689 472 708 492 689 b 558 732 539 689 558 708 z m 558 129 b 515 172 558 153 539 172 b 472 129 492 172 472 153 b 515 86 472 106 492 86 b 558 129 539 86 558 106 z "},"T":{"ha":486,"x_min":0,"x_max":0,"o":"m 200 818 b 157 861 200 842 181 861 b 114 818 133 861 114 842 b 157 775 114 794 133 775 b 200 818 181 775 200 794 z m 286 43 b 243 86 286 67 267 86 b 200 43 219 86 200 67 b 243 0 200 19 219 0 b 286 43 267 0 286 19 z m 286 646 b 243 689 286 669 267 689 b 200 646 219 689 200 669 b 243 603 200 622 219 603 b 286 646 267 603 286 622 z m 286 732 b 243 775 286 756 267 775 b 200 732 219 775 200 756 b 243 689 200 708 219 689 b 286 732 267 689 286 708 z m 286 818 b 243 861 286 842 267 861 b 200 818 219 861 200 842 b 243 775 200 794 219 775 b 286 818 267 775 286 794 z m 286 129 b 243 172 286 153 267 172 b 200 129 219 172 200 153 b 243 86 200 106 219 86 b 286 129 267 86 286 106 z m 372 818 b 329 861 372 842 353 861 b 286 818 306 861 286 842 b 329 775 286 794 306 775 b 372 818 353 775 372 794 z m 286 215 b 243 258 286 239 267 258 b 200 215 219 258 200 239 b 243 172 200 192 219 172 b 286 215 267 172 286 192 z m 286 301 b 243 344 286 325 267 344 b 200 301 219 344 200 325 b 243 258 200 278 219 258 b 286 301 267 258 286 278 z m 286 388 b 243 431 286 411 267 431 b 200 388 219 431 200 411 b 243 344 200 364 219 344 b 286 388 267 344 286 364 z m 286 474 b 243 517 286 497 267 517 b 200 474 219 517 200 497 b 243 431 200 450 219 431 b 286 474 267 431 286 450 z m 286 560 b 243 603 286 583 267 603 b 200 560 219 603 200 583 b 243 517 200 536 219 517 b 286 560 267 517 286 536 z m 458 818 b 415 861 458 842 439 861 b 372 818 392 861 372 842 b 415 775 372 794 392 775 b 458 818 439 775 458 794 z m 114 818 b 71 861 114 842 94 861 b 28 818 47 861 28 842 b 71 775 28 794 47 775 b 114 818 94 775 114 794 z "},"U":{"ha":683,"x_min":0,"x_max":0,"o":"m 169 215 b 126 258 169 239 150 258 b 83 215 103 258 83 239 b 126 172 83 192 103 172 b 169 215 150 172 169 192 z m 169 301 b 126 344 169 325 150 344 b 83 301 103 344 83 325 b 126 258 83 278 103 258 b 169 301 150 258 169 278 z m 169 388 b 126 431 169 411 150 431 b 83 388 103 431 83 411 b 126 344 83 364 103 344 b 169 388 150 344 169 364 z m 169 474 b 126 517 169 497 150 517 b 83 474 103 517 83 497 b 126 431 83 450 103 431 b 169 474 150 431 169 450 z m 169 560 b 126 603 169 583 150 603 b 83 560 103 603 83 583 b 126 517 83 536 103 517 b 169 560 150 517 169 536 z m 169 646 b 126 689 169 669 150 689 b 83 646 103 689 83 669 b 126 603 83 622 103 603 b 169 646 150 603 169 622 z m 169 732 b 126 775 169 756 150 775 b 83 732 103 775 83 756 b 126 689 83 708 103 689 b 169 732 150 689 169 708 z m 169 129 b 126 172 169 153 150 172 b 83 129 103 172 83 153 b 126 86 83 106 103 86 b 169 129 150 86 169 106 z m 256 43 b 213 86 256 67 236 86 b 169 43 189 86 169 67 b 213 0 169 19 189 0 b 256 43 236 0 256 19 z m 342 43 b 299 86 342 67 322 86 b 256 43 275 86 256 67 b 299 0 256 19 275 0 b 342 43 322 0 342 19 z m 428 43 b 385 86 428 67 408 86 b 342 43 361 86 342 67 b 385 0 342 19 361 0 b 428 43 408 0 428 19 z m 514 43 b 471 86 514 67 494 86 b 428 43 447 86 428 67 b 471 0 428 19 447 0 b 514 43 494 0 514 19 z m 600 646 b 557 689 600 669 581 689 b 514 646 533 689 514 669 b 557 603 514 622 533 603 b 600 646 581 603 600 622 z m 600 732 b 557 775 600 756 581 775 b 514 732 533 775 514 756 b 557 689 514 708 533 689 b 600 732 581 689 600 708 z m 600 129 b 557 172 600 153 581 172 b 514 129 533 172 514 153 b 557 86 514 106 533 86 b 600 129 581 86 600 106 z m 600 215 b 557 258 600 239 581 258 b 514 215 533 258 514 239 b 557 172 514 192 533 172 b 600 215 581 172 600 192 z m 600 301 b 557 344 600 325 581 344 b 514 301 533 344 514 325 b 557 258 514 278 533 258 b 600 301 581 258 600 278 z m 600 388 b 557 431 600 411 581 431 b 514 388 533 431 514 411 b 557 344 514 364 533 344 b 600 388 581 344 600 364 z m 600 474 b 557 517 600 497 581 517 b 514 474 533 517 514 497 b 557 431 514 450 533 431 b 600 474 581 431 600 450 z m 600 560 b 557 603 600 583 581 603 b 514 560 533 603 514 583 b 557 517 514 536 533 517 b 600 560 581 517 600 536 z m 169 818 b 126 861 169 842 150 861 b 83 818 103 861 83 842 b 126 775 83 794 103 775 b 169 818 150 775 169 794 z m 600 818 b 557 861 600 842 581 861 b 514 818 533 861 514 842 b 557 775 514 794 533 775 b 600 818 581 775 600 794 z "},"V":{"ha":628,"x_min":0,"x_max":0,"o":"m 400 43 b 357 86 400 67 381 86 b 314 43 333 86 314 67 b 357 0 314 19 333 0 b 400 43 381 0 400 19 z m 486 129 b 443 172 486 153 467 172 b 400 129 419 172 400 153 b 443 86 400 106 419 86 b 486 129 467 86 486 106 z m 486 215 b 443 258 486 239 467 258 b 400 215 419 258 400 239 b 443 172 400 192 419 172 b 486 215 467 172 486 192 z m 486 301 b 443 344 486 325 467 344 b 400 301 419 344 400 325 b 443 258 400 278 419 258 b 486 301 467 258 486 278 z m 486 388 b 443 431 486 411 467 431 b 400 388 419 431 400 411 b 443 344 400 364 419 344 b 486 388 467 344 486 364 z m 572 474 b 529 517 572 497 553 517 b 486 474 506 517 486 497 b 529 431 486 450 506 431 b 572 474 553 431 572 450 z m 572 560 b 529 603 572 583 553 603 b 486 560 506 603 486 583 b 529 517 486 536 506 517 b 572 560 553 517 572 536 z m 572 646 b 529 689 572 669 553 689 b 486 646 506 689 486 669 b 529 603 486 622 506 603 b 572 646 553 603 572 622 z m 572 732 b 529 775 572 756 553 775 b 486 732 506 775 486 756 b 529 689 486 708 506 689 b 572 732 553 689 572 708 z m 572 818 b 529 861 572 842 553 861 b 486 818 506 861 486 842 b 529 775 486 794 506 775 b 572 818 553 775 572 794 z m 228 43 b 271 0 228 19 247 0 b 314 43 294 0 314 19 b 271 86 314 67 294 86 b 228 43 247 86 228 67 z m 142 129 b 185 86 142 106 161 86 b 228 129 208 86 228 106 b 185 172 228 153 208 172 b 142 129 161 172 142 153 z m 142 215 b 185 172 142 192 161 172 b 228 215 208 172 228 192 b 185 258 228 239 208 258 b 142 215 161 258 142 239 z m 142 301 b 185 258 142 278 161 258 b 228 301 208 258 228 278 b 185 344 228 325 208 344 b 142 301 161 344 142 325 z m 142 388 b 185 344 142 364 161 344 b 228 388 208 344 228 364 b 185 431 228 411 208 431 b 142 388 161 431 142 411 z m 56 474 b 99 431 56 450 75 431 b 142 474 122 431 142 450 b 99 517 142 497 122 517 b 56 474 75 517 56 497 z m 56 560 b 99 517 56 536 75 517 b 142 560 122 517 142 536 b 99 603 142 583 122 603 b 56 560 75 603 56 583 z m 56 646 b 99 603 56 622 75 603 b 142 646 122 603 142 622 b 99 689 142 669 122 689 b 56 646 75 689 56 669 z m 56 732 b 99 689 56 708 75 689 b 142 732 122 689 142 708 b 99 775 142 756 122 775 b 56 732 75 775 56 756 z m 56 818 b 99 775 56 794 75 775 b 142 818 122 775 142 794 b 99 861 142 842 122 861 b 56 818 75 861 56 842 z "},"W":{"ha":942,"x_min":0,"x_max":0,"o":"m 169 215 b 126 258 169 239 150 258 b 83 215 103 258 83 239 b 126 172 83 192 103 172 b 169 215 150 172 169 192 z m 169 301 b 126 344 169 325 150 344 b 83 301 103 344 83 325 b 126 258 83 278 103 258 b 169 301 150 258 169 278 z m 169 388 b 126 431 169 411 150 431 b 83 388 103 431 83 411 b 126 344 83 364 103 344 b 169 388 150 344 169 364 z m 169 474 b 126 517 169 497 150 517 b 83 474 103 517 83 497 b 126 431 83 450 103 431 b 169 474 150 431 169 450 z m 169 560 b 126 603 169 583 150 603 b 83 560 103 603 83 583 b 126 517 83 536 103 517 b 169 560 150 517 169 536 z m 169 646 b 126 689 169 669 150 689 b 83 646 103 689 83 669 b 126 603 83 622 103 603 b 169 646 150 603 169 622 z m 169 732 b 126 775 169 756 150 775 b 83 732 103 775 83 756 b 126 689 83 708 103 689 b 169 732 150 689 169 708 z m 169 818 b 126 861 169 842 150 861 b 83 818 103 861 83 842 b 126 775 83 794 103 775 b 169 818 150 775 169 794 z m 169 129 b 126 172 169 153 150 172 b 83 129 103 172 83 153 b 126 86 83 106 103 86 b 169 129 150 86 169 106 z m 256 43 b 213 86 256 67 236 86 b 169 43 189 86 169 67 b 213 0 169 19 189 0 b 256 43 236 0 256 19 z m 342 43 b 299 86 342 67 322 86 b 256 43 275 86 256 67 b 299 0 256 19 275 0 b 342 43 322 0 342 19 z m 428 129 b 385 172 428 153 408 172 b 342 129 361 172 342 153 b 385 86 342 106 361 86 b 428 129 408 86 428 106 z m 772 215 b 815 172 772 192 792 172 b 858 215 839 172 858 192 b 815 258 858 239 839 258 b 772 215 792 258 772 239 z m 772 301 b 815 258 772 278 792 258 b 858 301 839 258 858 278 b 815 344 858 325 839 344 b 772 301 792 344 772 325 z m 772 388 b 815 344 772 364 792 344 b 858 388 839 344 858 364 b 815 431 858 411 839 431 b 772 388 792 431 772 411 z m 772 474 b 815 431 772 450 792 431 b 858 474 839 431 858 450 b 815 517 858 497 839 517 b 772 474 792 517 772 497 z m 772 560 b 815 517 772 536 792 517 b 858 560 839 517 858 536 b 815 603 858 583 839 603 b 772 560 792 603 772 583 z m 772 646 b 815 603 772 622 792 603 b 858 646 839 603 858 622 b 815 689 858 669 839 689 b 772 646 792 689 772 669 z m 772 732 b 815 689 772 708 792 689 b 858 732 839 689 858 708 b 815 775 858 756 839 775 b 772 732 792 775 772 756 z m 772 818 b 815 775 772 794 792 775 b 858 818 839 775 858 794 b 815 861 858 842 839 861 b 772 818 792 861 772 842 z m 772 129 b 815 86 772 106 792 86 b 858 129 839 86 858 106 b 815 172 858 153 839 172 b 772 129 792 172 772 153 z m 686 43 b 729 0 686 19 706 0 b 772 43 753 0 772 19 b 729 86 772 67 753 86 b 686 43 706 86 686 67 z m 600 43 b 643 0 600 19 619 0 b 686 43 667 0 686 19 b 643 86 686 67 667 86 b 600 43 619 86 600 67 z m 514 129 b 557 86 514 106 533 86 b 600 129 581 86 600 106 b 557 172 600 153 581 172 b 514 129 533 172 514 153 z m 428 646 b 471 603 428 622 447 603 b 514 646 494 603 514 622 b 471 689 514 669 494 689 b 428 646 447 689 428 669 z m 428 732 b 471 689 428 708 447 689 b 514 732 494 689 514 708 b 471 775 514 756 494 775 b 428 732 447 775 428 756 z m 428 215 b 471 172 428 192 447 172 b 514 215 494 172 514 192 b 471 258 514 239 494 258 b 428 215 447 258 428 239 z m 428 301 b 471 258 428 278 447 258 b 514 301 494 258 514 278 b 471 344 514 325 494 344 b 428 301 447 344 428 325 z m 428 388 b 471 344 428 364 447 344 b 514 388 494 344 514 364 b 471 431 514 411 494 431 b 428 388 447 431 428 411 z m 428 474 b 471 431 428 450 447 431 b 514 474 494 431 514 450 b 471 517 514 497 494 517 b 428 474 447 517 428 497 z m 428 560 b 471 517 428 536 447 517 b 514 560 494 517 514 536 b 471 603 514 583 494 603 b 428 560 447 603 428 583 z "},"X":{"ha":656,"x_min":0,"x_max":0,"o":"m 156 43 b 113 86 156 67 136 86 b 69 43 89 86 69 67 b 113 0 69 19 89 0 b 156 43 136 0 156 19 z m 156 215 b 113 258 156 239 136 258 b 69 215 89 258 69 239 b 113 172 69 192 89 172 b 156 215 136 172 156 192 z m 156 646 b 113 689 156 669 136 689 b 69 646 89 689 69 669 b 113 603 69 622 89 603 b 156 646 136 603 156 622 z m 156 732 b 113 775 156 756 136 775 b 69 732 89 775 69 756 b 113 689 69 708 89 689 b 156 732 136 689 156 708 z m 156 818 b 113 861 156 842 136 861 b 69 818 89 861 69 842 b 113 775 69 794 89 775 b 156 818 136 775 156 794 z m 156 129 b 113 172 156 153 136 172 b 69 129 89 172 69 153 b 113 86 69 106 89 86 b 156 129 136 86 156 106 z m 586 43 b 543 86 586 67 567 86 b 500 43 519 86 500 67 b 543 0 500 19 519 0 b 586 43 567 0 586 19 z m 586 646 b 543 689 586 669 567 689 b 500 646 519 689 500 669 b 543 603 500 622 519 603 b 586 646 567 603 586 622 z m 586 732 b 543 775 586 756 567 775 b 500 732 519 775 500 756 b 543 689 500 708 519 689 b 586 732 567 689 586 708 z m 586 818 b 543 861 586 842 567 861 b 500 818 519 861 500 842 b 543 775 500 794 519 775 b 586 818 567 775 586 794 z m 586 129 b 543 172 586 153 567 172 b 500 129 519 172 500 153 b 543 86 500 106 519 86 b 586 129 567 86 586 106 z m 242 301 b 199 344 242 325 222 344 b 156 301 175 344 156 325 b 199 258 156 278 175 258 b 242 301 222 258 242 278 z m 242 560 b 199 603 242 583 222 603 b 156 560 175 603 156 583 b 199 517 156 536 175 517 b 242 560 222 517 242 536 z m 328 388 b 285 431 328 411 308 431 b 242 388 261 431 242 411 b 285 344 242 364 261 344 b 328 388 308 344 328 364 z m 328 474 b 285 517 328 497 308 517 b 242 474 261 517 242 497 b 285 431 242 450 261 431 b 328 474 308 431 328 450 z m 414 388 b 371 431 414 411 394 431 b 328 388 347 431 328 411 b 371 344 328 364 347 344 b 414 388 394 344 414 364 z m 414 474 b 371 517 414 497 394 517 b 328 474 347 517 328 497 b 371 431 328 450 347 431 b 414 474 394 431 414 450 z m 500 301 b 457 344 500 325 481 344 b 414 301 433 344 414 325 b 457 258 414 278 433 258 b 500 301 481 258 500 278 z m 500 560 b 457 603 500 583 481 603 b 414 560 433 603 414 583 b 457 517 414 536 433 517 b 500 560 481 517 500 536 z m 586 215 b 543 258 586 239 567 258 b 500 215 519 258 500 239 b 543 172 500 192 519 172 b 586 215 567 172 586 192 z "},"Y":{"ha":658,"x_min":0,"x_max":0,"o":"m 114 732 b 71 775 114 756 94 775 b 28 732 47 775 28 756 b 71 689 28 708 47 689 b 114 732 94 689 114 708 z m 114 818 b 71 861 114 842 94 861 b 28 818 47 861 28 842 b 71 775 28 794 47 775 b 114 818 94 775 114 794 z m 200 646 b 157 689 200 669 181 689 b 114 646 133 689 114 669 b 157 603 114 622 133 603 b 200 646 181 603 200 622 z m 372 43 b 329 86 372 67 353 86 b 286 43 306 86 286 67 b 329 0 286 19 306 0 b 372 43 353 0 372 19 z m 372 129 b 329 172 372 153 353 172 b 286 129 306 172 286 153 b 329 86 286 106 306 86 b 372 129 353 86 372 106 z m 544 646 b 501 689 544 669 525 689 b 458 646 478 689 458 669 b 501 603 458 622 478 603 b 544 646 525 603 544 622 z m 631 732 b 588 775 631 756 611 775 b 544 732 564 775 544 756 b 588 689 544 708 564 689 b 631 732 611 689 631 708 z m 631 818 b 588 861 631 842 611 861 b 544 818 564 861 544 842 b 588 775 544 794 564 775 b 631 818 611 775 631 794 z m 286 560 b 243 603 286 583 267 603 b 200 560 219 603 200 583 b 243 517 200 536 219 517 b 286 560 267 517 286 536 z m 372 215 b 329 258 372 239 353 258 b 286 215 306 258 286 239 b 329 172 286 192 306 172 b 372 215 353 172 372 192 z m 372 301 b 329 344 372 325 353 344 b 286 301 306 344 286 325 b 329 258 286 278 306 258 b 372 301 353 258 372 278 z m 372 388 b 329 431 372 411 353 431 b 286 388 306 431 286 411 b 329 344 286 364 306 344 b 372 388 353 344 372 364 z m 372 474 b 329 517 372 497 353 517 b 286 474 306 517 286 497 b 329 431 286 450 306 431 b 372 474 353 431 372 450 z m 458 560 b 415 603 458 583 439 603 b 372 560 392 603 372 583 b 415 517 372 536 392 517 b 458 560 439 517 458 536 z "},"Z":{"ha":600,"x_min":0,"x_max":0,"o":"m 128 43 b 85 86 128 67 108 86 b 42 43 61 86 42 67 b 85 0 42 19 61 0 b 128 43 108 0 128 19 z m 128 818 b 85 861 128 842 108 861 b 42 818 61 861 42 842 b 85 775 42 794 61 775 b 128 818 108 775 128 794 z m 128 129 b 85 172 128 153 108 172 b 42 129 61 172 42 153 b 85 86 42 106 61 86 b 128 129 108 86 128 106 z m 214 43 b 171 86 214 67 194 86 b 128 43 147 86 128 67 b 171 0 128 19 147 0 b 214 43 194 0 214 19 z m 214 818 b 171 861 214 842 194 861 b 128 818 147 861 128 842 b 171 775 128 794 147 775 b 214 818 194 775 214 794 z m 300 43 b 257 86 300 67 281 86 b 214 43 233 86 214 67 b 257 0 214 19 233 0 b 300 43 281 0 300 19 z m 300 818 b 257 861 300 842 281 861 b 214 818 233 861 214 842 b 257 775 214 794 233 775 b 300 818 281 775 300 794 z m 386 43 b 343 86 386 67 367 86 b 300 43 319 86 300 67 b 343 0 300 19 319 0 b 386 43 367 0 386 19 z m 386 818 b 343 861 386 842 367 861 b 300 818 319 861 300 842 b 343 775 300 794 319 775 b 386 818 367 775 386 794 z m 472 43 b 429 86 472 67 453 86 b 386 43 406 86 386 67 b 429 0 386 19 406 0 b 472 43 453 0 472 19 z m 472 646 b 429 689 472 669 453 689 b 386 646 406 689 386 669 b 429 603 386 622 406 603 b 472 646 453 603 472 622 z m 472 818 b 429 861 472 842 453 861 b 386 818 406 861 386 842 b 429 775 386 794 406 775 b 472 818 453 775 472 794 z m 558 43 b 515 86 558 67 539 86 b 472 43 492 86 472 67 b 515 0 472 19 492 0 b 558 43 539 0 558 19 z m 558 732 b 515 775 558 756 539 775 b 472 732 492 775 472 756 b 515 689 472 708 492 689 b 558 732 539 689 558 708 z m 558 818 b 515 861 558 842 539 861 b 472 818 492 861 472 842 b 515 775 472 794 492 775 b 558 818 539 775 558 794 z m 214 215 b 171 258 214 239 194 258 b 128 215 147 258 128 239 b 171 172 128 192 147 172 b 214 215 194 172 214 192 z m 214 301 b 171 344 214 325 194 344 b 128 301 147 344 128 325 b 171 258 128 278 147 258 b 214 301 194 258 214 278 z m 300 388 b 257 431 300 411 281 431 b 214 388 233 431 214 411 b 257 344 214 364 233 344 b 300 388 281 344 300 364 z m 386 474 b 343 517 386 497 367 517 b 300 474 319 517 300 497 b 343 431 300 450 319 431 b 386 474 367 431 386 450 z m 472 560 b 429 603 472 583 453 603 b 386 560 406 603 386 583 b 429 517 386 536 406 517 b 472 560 453 517 472 536 z "},"[":{"ha":283,"x_min":0,"x_max":0,"o":"m 142 43 b 99 86 142 67 122 86 b 56 43 75 86 56 67 b 99 0 56 19 75 0 b 142 43 122 0 142 19 z m 142 215 b 99 258 142 239 122 258 b 56 215 75 258 56 239 b 99 172 56 192 75 172 b 142 215 122 172 142 192 z m 142 301 b 99 344 142 325 122 344 b 56 301 75 344 56 325 b 99 258 56 278 75 258 b 142 301 122 258 142 278 z m 142 388 b 99 431 142 411 122 431 b 56 388 75 431 56 411 b 99 344 56 364 75 344 b 142 388 122 344 142 364 z m 142 474 b 99 517 142 497 122 517 b 56 474 75 517 56 497 b 99 431 56 450 75 431 b 142 474 122 431 142 450 z m 142 560 b 99 603 142 583 122 603 b 56 560 75 603 56 583 b 99 517 56 536 75 517 b 142 560 122 517 142 536 z m 142 646 b 99 689 142 669 122 689 b 56 646 75 689 56 669 b 99 603 56 622 75 603 b 142 646 122 603 142 622 z m 142 732 b 99 775 142 756 122 775 b 56 732 75 775 56 756 b 99 689 56 708 75 689 b 142 732 122 689 142 708 z m 142 818 b 99 861 142 842 122 861 b 56 818 75 861 56 842 b 99 775 56 794 75 775 b 142 818 122 775 142 794 z m 142 129 b 99 172 142 153 122 172 b 56 129 75 172 56 153 b 99 86 56 106 75 86 b 142 129 122 86 142 106 z m 228 43 b 185 86 228 67 208 86 b 142 43 161 86 142 67 b 185 0 142 19 161 0 b 228 43 208 0 228 19 z m 228 818 b 185 861 228 842 208 861 b 142 818 161 861 142 842 b 185 775 142 794 161 775 b 228 818 208 775 228 794 z "},"\\":{"ha":344,"x_min":0,"x_max":0,"o":"m 258 43 b 301 0 258 19 278 0 b 344 43 325 0 344 19 b 301 86 344 67 325 86 b 258 43 278 86 258 67 z m 258 129 b 301 86 258 106 278 86 b 344 129 325 86 344 106 b 301 172 344 153 325 172 b 258 129 278 172 258 153 z m 172 215 b 215 172 172 192 192 172 b 258 215 239 172 258 192 b 215 258 258 239 239 258 b 172 215 192 258 172 239 z m 172 301 b 215 258 172 278 192 258 b 258 301 239 258 258 278 b 215 344 258 325 239 344 b 172 301 192 344 172 325 z m 172 388 b 215 344 172 364 192 344 b 258 388 239 344 258 364 b 215 431 258 411 239 431 b 172 388 192 431 172 411 z m 86 474 b 129 431 86 450 106 431 b 172 474 153 431 172 450 b 129 517 172 497 153 517 b 86 474 106 517 86 497 z m 86 560 b 129 517 86 536 106 517 b 172 560 153 517 172 536 b 129 603 172 583 153 603 b 86 560 106 603 86 583 z m 86 646 b 129 603 86 622 106 603 b 172 646 153 603 172 622 b 129 689 172 669 153 689 b 86 646 106 689 86 669 z m 0 732 b 43 689 0 708 19 689 b 86 732 67 689 86 708 b 43 775 86 756 67 775 b 0 732 19 775 0 756 z m 0 818 b 43 775 0 794 19 775 b 86 818 67 775 86 794 b 43 861 86 842 67 861 b 0 818 19 861 0 842 z "},"]":{"ha":283,"x_min":0,"x_max":0,"o":"m 142 43 b 185 0 142 19 161 0 b 228 43 208 0 228 19 b 185 86 228 67 208 86 b 142 43 161 86 142 67 z m 142 215 b 185 172 142 192 161 172 b 228 215 208 172 228 192 b 185 258 228 239 208 258 b 142 215 161 258 142 239 z m 142 301 b 185 258 142 278 161 258 b 228 301 208 258 228 278 b 185 344 228 325 208 344 b 142 301 161 344 142 325 z m 142 388 b 185 344 142 364 161 344 b 228 388 208 344 228 364 b 185 431 228 411 208 431 b 142 388 161 431 142 411 z m 142 474 b 185 431 142 450 161 431 b 228 474 208 431 228 450 b 185 517 228 497 208 517 b 142 474 161 517 142 497 z m 142 560 b 185 517 142 536 161 517 b 228 560 208 517 228 536 b 185 603 228 583 208 603 b 142 560 161 603 142 583 z m 142 646 b 185 603 142 622 161 603 b 228 646 208 603 228 622 b 185 689 228 669 208 689 b 142 646 161 689 142 669 z m 142 732 b 185 689 142 708 161 689 b 228 732 208 689 228 708 b 185 775 228 756 208 775 b 142 732 161 775 142 756 z m 142 818 b 185 775 142 794 161 775 b 228 818 208 775 228 794 b 185 861 228 842 208 861 b 142 818 161 861 142 842 z m 142 129 b 185 86 142 106 161 86 b 228 129 208 86 228 106 b 185 172 228 153 208 172 b 142 129 161 172 142 153 z m 56 43 b 99 0 56 19 75 0 b 142 43 122 0 142 19 b 99 86 142 67 122 86 b 56 43 75 86 56 67 z m 56 818 b 99 775 56 794 75 775 b 142 818 122 775 142 794 b 99 861 142 842 122 861 b 56 818 75 861 56 842 z "},"^":{"ha":369,"x_min":0,"x_max":0,"o":"m 142 732 b 99 775 142 756 122 775 b 56 732 75 775 56 756 b 99 689 56 708 75 689 b 142 732 122 689 142 708 z m 228 732 b 271 689 228 708 247 689 b 314 732 294 689 314 708 b 271 775 314 756 294 775 b 228 732 247 775 228 756 z m 142 818 b 185 775 142 794 161 775 b 228 818 208 775 228 794 b 185 861 228 842 208 861 b 142 818 161 861 142 842 z "},"_":{"ha":344,"x_min":0,"x_max":0,"o":"m 172 -43 b 129 0 172 -19 153 0 b 86 -43 106 0 86 -19 b 129 -86 86 -67 106 -86 b 172 -43 153 -86 172 -67 z m 258 -43 b 215 0 258 -19 239 0 b 172 -43 192 0 172 -19 b 215 -86 172 -67 192 -86 b 258 -43 239 -86 258 -67 z m 344 -43 b 301 0 344 -19 325 0 b 258 -43 278 0 258 -19 b 301 -86 258 -67 278 -86 b 344 -43 325 -86 344 -67 z m 86 -43 b 43 0 86 -19 67 0 b 0 -43 19 0 0 -19 b 43 -86 0 -67 19 -86 b 86 -43 67 -86 86 -67 z "},"`":{"ha":243,"x_min":0,"x_max":0,"o":"m 86 697 b 129 654 86 674 106 654 b 172 697 153 654 172 674 b 129 740 172 721 153 740 b 86 697 106 740 86 721 z m 28 804 b 86 746 28 772 54 746 b 144 804 118 746 144 772 b 86 861 144 835 118 861 b 28 804 54 861 28 835 z m 135 622 b 161 596 135 607 147 596 b 188 622 175 596 188 607 b 161 647 188 636 175 647 b 135 622 147 647 135 636 z "},"a":{"ha":656,"x_min":0,"x_max":0,"o":"m 156 215 b 113 258 156 239 136 258 b 69 215 89 258 69 239 b 113 172 69 192 89 172 b 156 215 136 172 156 192 z m 156 301 b 113 344 156 325 136 344 b 69 301 89 344 69 325 b 113 258 69 278 89 258 b 156 301 136 258 156 278 z m 156 388 b 113 431 156 411 136 431 b 69 388 89 431 69 411 b 113 344 69 364 89 344 b 156 388 136 344 156 364 z m 156 474 b 113 517 156 497 136 517 b 69 474 89 517 69 497 b 113 431 69 450 89 431 b 156 474 136 431 156 450 z m 156 129 b 113 172 156 153 136 172 b 69 129 89 172 69 153 b 113 86 69 106 89 86 b 156 129 136 86 156 106 z m 242 43 b 199 86 242 67 222 86 b 156 43 175 86 156 67 b 199 0 156 19 175 0 b 242 43 222 0 242 19 z m 328 43 b 285 86 328 67 308 86 b 242 43 261 86 242 67 b 285 0 242 19 261 0 b 328 43 308 0 328 19 z m 414 43 b 371 86 414 67 394 86 b 328 43 347 86 328 67 b 371 0 328 19 347 0 b 414 43 394 0 414 19 z m 500 129 b 457 172 500 153 481 172 b 414 129 433 172 414 153 b 457 86 414 106 433 86 b 500 129 481 86 500 106 z m 586 43 b 543 86 586 67 567 86 b 500 43 519 86 500 67 b 543 0 500 19 519 0 b 586 43 567 0 586 19 z m 586 129 b 543 172 586 153 567 172 b 500 129 519 172 500 153 b 543 86 500 106 519 86 b 586 129 567 86 586 106 z m 242 560 b 199 603 242 583 222 603 b 156 560 175 603 156 583 b 199 517 156 536 175 517 b 242 560 222 517 242 536 z m 328 560 b 285 603 328 583 308 603 b 242 560 261 603 242 583 b 285 517 242 536 261 517 b 328 560 308 517 328 536 z m 414 560 b 371 603 414 583 394 603 b 328 560 347 603 328 583 b 371 517 328 536 347 517 b 414 560 394 517 414 536 z m 500 560 b 457 603 500 583 481 603 b 414 560 433 603 414 583 b 457 517 414 536 433 517 b 500 560 481 517 500 536 z m 586 215 b 543 258 586 239 567 258 b 500 215 519 258 500 239 b 543 172 500 192 519 172 b 586 215 567 172 586 192 z m 586 301 b 543 344 586 325 567 344 b 500 301 519 344 500 325 b 543 258 500 278 519 258 b 586 301 567 258 586 278 z m 586 388 b 543 431 586 411 567 431 b 500 388 519 431 500 411 b 543 344 500 364 519 344 b 586 388 567 344 586 364 z m 586 474 b 543 517 586 497 567 517 b 500 474 519 517 500 497 b 543 431 500 450 519 431 b 586 474 567 431 586 450 z "},"b":{"ha":656,"x_min":0,"x_max":0,"o":"m 156 215 b 113 258 156 239 136 258 b 69 215 89 258 69 239 b 113 172 69 192 89 172 b 156 215 136 172 156 192 z m 156 301 b 113 344 156 325 136 344 b 69 301 89 344 69 325 b 113 258 69 278 89 258 b 156 301 136 258 156 278 z m 156 388 b 113 431 156 411 136 431 b 69 388 89 431 69 411 b 113 344 69 364 89 344 b 156 388 136 344 156 364 z m 156 474 b 113 517 156 497 136 517 b 69 474 89 517 69 497 b 113 431 69 450 89 431 b 156 474 136 431 156 450 z m 156 560 b 113 603 156 583 136 603 b 69 560 89 603 69 583 b 113 517 69 536 89 517 b 156 560 136 517 156 536 z m 156 646 b 113 689 156 669 136 689 b 69 646 89 689 69 669 b 113 603 69 622 89 603 b 156 646 136 603 156 622 z m 156 732 b 113 775 156 756 136 775 b 69 732 89 775 69 756 b 113 689 69 708 89 689 b 156 732 136 689 156 708 z m 156 818 b 113 861 156 842 136 861 b 69 818 89 861 69 842 b 113 775 69 794 89 775 b 156 818 136 775 156 794 z m 156 129 b 113 172 156 153 136 172 b 69 129 89 172 69 153 b 113 86 69 106 89 86 b 156 129 136 86 156 106 z m 242 43 b 199 86 242 67 222 86 b 156 43 175 86 156 67 b 199 0 156 19 175 0 b 242 43 222 0 242 19 z m 328 43 b 285 86 328 67 308 86 b 242 43 261 86 242 67 b 285 0 242 19 261 0 b 328 43 308 0 328 19 z m 414 43 b 371 86 414 67 394 86 b 328 43 347 86 328 67 b 371 0 328 19 347 0 b 414 43 394 0 414 19 z m 500 43 b 457 86 500 67 481 86 b 414 43 433 86 414 67 b 457 0 414 19 433 0 b 500 43 481 0 500 19 z m 586 129 b 543 172 586 153 567 172 b 500 129 519 172 500 153 b 543 86 500 106 519 86 b 586 129 567 86 586 106 z m 242 474 b 199 517 242 497 222 517 b 156 474 175 517 156 497 b 199 431 156 450 175 431 b 242 474 222 431 242 450 z m 328 560 b 285 603 328 583 308 603 b 242 560 261 603 242 583 b 285 517 242 536 261 517 b 328 560 308 517 328 536 z m 414 560 b 371 603 414 583 394 603 b 328 560 347 603 328 583 b 371 517 328 536 347 517 b 414 560 394 517 414 536 z m 500 560 b 457 603 500 583 481 603 b 414 560 433 603 414 583 b 457 517 414 536 433 517 b 500 560 481 517 500 536 z m 586 215 b 543 258 586 239 567 258 b 500 215 519 258 500 239 b 543 172 500 192 519 172 b 586 215 567 172 586 192 z m 586 301 b 543 344 586 325 567 344 b 500 301 519 344 500 325 b 543 258 500 278 519 258 b 586 301 567 258 586 278 z m 586 388 b 543 431 586 411 567 431 b 500 388 519 431 500 411 b 543 344 500 364 519 344 b 586 388 567 344 586 364 z m 586 474 b 543 517 586 497 567 517 b 500 474 519 517 500 497 b 543 431 500 450 519 431 b 586 474 567 431 586 450 z "},"c":{"ha":614,"x_min":0,"x_max":0,"o":"m 156 215 b 113 258 156 239 136 258 b 69 215 89 258 69 239 b 113 172 69 192 89 172 b 156 215 136 172 156 192 z m 156 301 b 113 344 156 325 136 344 b 69 301 89 344 69 325 b 113 258 69 278 89 258 b 156 301 136 258 156 278 z m 156 388 b 113 431 156 411 136 431 b 69 388 89 431 69 411 b 113 344 69 364 89 344 b 156 388 136 344 156 364 z m 156 474 b 113 517 156 497 136 517 b 69 474 89 517 69 497 b 113 431 69 450 89 431 b 156 474 136 431 156 450 z m 156 129 b 113 172 156 153 136 172 b 69 129 89 172 69 153 b 113 86 69 106 89 86 b 156 129 136 86 156 106 z m 242 43 b 199 86 242 67 222 86 b 156 43 175 86 156 67 b 199 0 156 19 175 0 b 242 43 222 0 242 19 z m 328 43 b 285 86 328 67 308 86 b 242 43 261 86 242 67 b 285 0 242 19 261 0 b 328 43 308 0 328 19 z m 414 43 b 371 86 414 67 394 86 b 328 43 347 86 328 67 b 371 0 328 19 347 0 b 414 43 394 0 414 19 z m 586 43 b 543 86 586 67 567 86 b 500 43 519 86 500 67 b 543 0 500 19 519 0 b 586 43 567 0 586 19 z m 242 560 b 199 603 242 583 222 603 b 156 560 175 603 156 583 b 199 517 156 536 175 517 b 242 560 222 517 242 536 z m 328 560 b 285 603 328 583 308 603 b 242 560 261 603 242 583 b 285 517 242 536 261 517 b 328 560 308 517 328 536 z m 414 560 b 371 603 414 583 394 603 b 328 560 347 603 328 583 b 371 517 328 536 347 517 b 414 560 394 517 414 536 z m 500 560 b 457 603 500 583 481 603 b 414 560 433 603 414 583 b 457 517 414 536 433 517 b 500 560 481 517 500 536 z m 586 474 b 543 517 586 497 567 517 b 500 474 519 517 500 497 b 543 431 500 450 519 431 b 586 474 567 431 586 450 z m 500 43 b 457 86 500 67 481 86 b 414 43 433 86 414 67 b 457 0 414 19 433 0 b 500 43 481 0 500 19 z "},"d":{"ha":656,"x_min":0,"x_max":0,"o":"m 500 215 b 543 172 500 192 519 172 b 586 215 567 172 586 192 b 543 258 586 239 567 258 b 500 215 519 258 500 239 z m 500 301 b 543 258 500 278 519 258 b 586 301 567 258 586 278 b 543 344 586 325 567 344 b 500 301 519 344 500 325 z m 500 388 b 543 344 500 364 519 344 b 586 388 567 344 586 364 b 543 431 586 411 567 431 b 500 388 519 431 500 411 z m 500 474 b 543 431 500 450 519 431 b 586 474 567 431 586 450 b 543 517 586 497 567 517 b 500 474 519 517 500 497 z m 500 560 b 543 517 500 536 519 517 b 586 560 567 517 586 536 b 543 603 586 583 567 603 b 500 560 519 603 500 583 z m 500 646 b 543 603 500 622 519 603 b 586 646 567 603 586 622 b 543 689 586 669 567 689 b 500 646 519 689 500 669 z m 500 732 b 543 689 500 708 519 689 b 586 732 567 689 586 708 b 543 775 586 756 567 775 b 500 732 519 775 500 756 z m 500 818 b 543 775 500 794 519 775 b 586 818 567 775 586 794 b 543 861 586 842 567 861 b 500 818 519 861 500 842 z m 500 129 b 543 86 500 106 519 86 b 586 129 567 86 586 106 b 543 172 586 153 567 172 b 500 129 519 172 500 153 z m 414 43 b 457 0 414 19 433 0 b 500 43 481 0 500 19 b 457 86 500 67 481 86 b 414 43 433 86 414 67 z m 328 43 b 371 0 328 19 347 0 b 414 43 394 0 414 19 b 371 86 414 67 394 86 b 328 43 347 86 328 67 z m 242 43 b 285 0 242 19 261 0 b 328 43 308 0 328 19 b 285 86 328 67 308 86 b 242 43 261 86 242 67 z m 156 43 b 199 0 156 19 175 0 b 242 43 222 0 242 19 b 199 86 242 67 222 86 b 156 43 175 86 156 67 z m 69 129 b 113 86 69 106 89 86 b 156 129 136 86 156 106 b 113 172 156 153 136 172 b 69 129 89 172 69 153 z m 414 474 b 457 431 414 450 433 431 b 500 474 481 431 500 450 b 457 517 500 497 481 517 b 414 474 433 517 414 497 z m 328 560 b 371 517 328 536 347 517 b 414 560 394 517 414 536 b 371 603 414 583 394 603 b 328 560 347 603 328 583 z m 242 560 b 285 517 242 536 261 517 b 328 560 308 517 328 536 b 285 603 328 583 308 603 b 242 560 261 603 242 583 z m 156 560 b 199 517 156 536 175 517 b 242 560 222 517 242 536 b 199 603 242 583 222 603 b 156 560 175 603 156 583 z m 69 215 b 113 172 69 192 89 172 b 156 215 136 172 156 192 b 113 258 156 239 136 258 b 69 215 89 258 69 239 z m 69 301 b 113 258 69 278 89 258 b 156 301 136 258 156 278 b 113 344 156 325 136 344 b 69 301 89 344 69 325 z m 69 388 b 113 344 69 364 89 344 b 156 388 136 344 156 364 b 113 431 156 411 136 431 b 69 388 89 431 69 411 z m 69 474 b 113 431 69 450 89 431 b 156 474 136 431 156 450 b 113 517 156 497 136 517 b 69 474 89 517 69 497 z "},"e":{"ha":642,"x_min":0,"x_max":0,"o":"m 156 215 b 113 258 156 239 136 258 b 69 215 89 258 69 239 b 113 172 69 192 89 172 b 156 215 136 172 156 192 z m 156 301 b 113 344 156 325 136 344 b 69 301 89 344 69 325 b 113 258 69 278 89 258 b 156 301 136 258 156 278 z m 156 388 b 113 431 156 411 136 431 b 69 388 89 431 69 411 b 113 344 69 364 89 344 b 156 388 136 344 156 364 z m 156 474 b 113 517 156 497 136 517 b 69 474 89 517 69 497 b 113 431 69 450 89 431 b 156 474 136 431 156 450 z m 156 129 b 113 172 156 153 136 172 b 69 129 89 172 69 153 b 113 86 69 106 89 86 b 156 129 136 86 156 106 z m 242 43 b 199 86 242 67 222 86 b 156 43 175 86 156 67 b 199 0 156 19 175 0 b 242 43 222 0 242 19 z m 328 43 b 285 86 328 67 308 86 b 242 43 261 86 242 67 b 285 0 242 19 261 0 b 328 43 308 0 328 19 z m 414 43 b 371 86 414 67 394 86 b 328 43 347 86 328 67 b 371 0 328 19 347 0 b 414 43 394 0 414 19 z m 500 43 b 457 86 500 67 481 86 b 414 43 433 86 414 67 b 457 0 414 19 433 0 b 500 43 481 0 500 19 z m 242 560 b 199 603 242 583 222 603 b 156 560 175 603 156 583 b 199 517 156 536 175 517 b 242 560 222 517 242 536 z m 328 560 b 285 603 328 583 308 603 b 242 560 261 603 242 583 b 285 517 242 536 261 517 b 328 560 308 517 328 536 z m 414 560 b 371 603 414 583 394 603 b 328 560 347 603 328 583 b 371 517 328 536 347 517 b 414 560 394 517 414 536 z m 500 560 b 457 603 500 583 481 603 b 414 560 433 603 414 583 b 457 517 414 536 433 517 b 500 560 481 517 500 536 z m 586 301 b 543 344 586 325 567 344 b 500 301 519 344 500 325 b 543 258 500 278 519 258 b 586 301 567 258 586 278 z m 586 388 b 543 431 586 411 567 431 b 500 388 519 431 500 411 b 543 344 500 364 519 344 b 586 388 567 344 586 364 z m 586 474 b 543 517 586 497 567 517 b 500 474 519 517 500 497 b 543 431 500 450 519 431 b 586 474 567 431 586 450 z m 414 301 b 457 258 414 278 433 258 b 500 301 481 258 500 278 b 457 344 500 325 481 344 b 414 301 433 344 414 325 z m 328 301 b 371 258 328 278 347 258 b 414 301 394 258 414 278 b 371 344 414 325 394 344 b 328 301 347 344 328 325 z m 242 301 b 285 258 242 278 261 258 b 328 301 308 258 328 278 b 285 344 328 325 308 344 b 242 301 261 344 242 325 z m 156 388 b 199 344 156 364 175 344 b 242 388 222 344 242 364 b 199 431 242 411 222 431 b 156 388 175 431 156 411 z "},"f":{"ha":486,"x_min":0,"x_max":0,"o":"m 114 560 b 71 603 114 583 94 603 b 28 560 47 603 28 583 b 71 517 28 536 47 517 b 114 560 94 517 114 536 z m 286 43 b 243 86 286 67 267 86 b 200 43 219 86 200 67 b 243 0 200 19 219 0 b 286 43 267 0 286 19 z m 286 646 b 243 689 286 669 267 689 b 200 646 219 689 200 669 b 243 603 200 622 219 603 b 286 646 267 603 286 622 z m 286 732 b 243 775 286 756 267 775 b 200 732 219 775 200 756 b 243 689 200 708 219 689 b 286 732 267 689 286 708 z m 286 129 b 243 172 286 153 267 172 b 200 129 219 172 200 153 b 243 86 200 106 219 86 b 286 129 267 86 286 106 z m 372 818 b 329 861 372 842 353 861 b 286 818 306 861 286 842 b 329 775 286 794 306 775 b 372 818 353 775 372 794 z m 458 818 b 415 861 458 842 439 861 b 372 818 392 861 372 842 b 415 775 372 794 392 775 b 458 818 439 775 458 794 z m 114 -129 b 71 -86 114 -106 94 -86 b 28 -129 47 -86 28 -106 b 71 -172 28 -153 47 -172 b 114 -129 94 -172 114 -153 z m 200 -129 b 157 -86 200 -106 181 -86 b 114 -129 133 -86 114 -106 b 157 -172 114 -153 133 -172 b 200 -129 181 -172 200 -153 z m 286 -43 b 243 0 286 -19 267 0 b 200 -43 219 0 200 -19 b 243 -86 200 -67 219 -86 b 286 -43 267 -86 286 -67 z m 200 560 b 157 603 200 583 181 603 b 114 560 133 603 114 583 b 157 517 114 536 133 517 b 200 560 181 517 200 536 z m 286 215 b 243 258 286 239 267 258 b 200 215 219 258 200 239 b 243 172 200 192 219 172 b 286 215 267 172 286 192 z m 286 301 b 243 344 286 325 267 344 b 200 301 219 344 200 325 b 243 258 200 278 219 258 b 286 301 267 258 286 278 z m 286 388 b 243 431 286 411 267 431 b 200 388 219 431 200 411 b 243 344 200 364 219 344 b 286 388 267 344 286 364 z m 286 474 b 243 517 286 497 267 517 b 200 474 219 517 200 497 b 243 431 200 450 219 431 b 286 474 267 431 286 450 z m 286 560 b 243 603 286 583 267 603 b 200 560 219 603 200 583 b 243 517 200 536 219 517 b 286 560 267 517 286 536 z m 372 560 b 329 603 372 583 353 603 b 286 560 306 603 286 583 b 329 517 286 536 306 517 b 372 560 353 517 372 536 z m 458 560 b 415 603 458 583 439 603 b 372 560 392 603 372 583 b 415 517 372 536 392 517 b 458 560 439 517 458 536 z "},"g":{"ha":628,"x_min":0,"x_max":0,"o":"m 142 -43 b 99 0 142 -19 122 0 b 56 -43 75 0 56 -19 b 99 -86 56 -67 75 -86 b 142 -43 122 -86 142 -67 z m 142 129 b 99 172 142 153 122 172 b 56 129 75 172 56 153 b 99 86 56 106 75 86 b 142 129 122 86 142 106 z m 142 301 b 99 344 142 325 122 344 b 56 301 75 344 56 325 b 99 258 56 278 75 258 b 142 301 122 258 142 278 z m 142 388 b 99 431 142 411 122 431 b 56 388 75 431 56 411 b 99 344 56 364 75 344 b 142 388 122 344 142 364 z m 142 474 b 99 517 142 497 122 517 b 56 474 75 517 56 497 b 99 431 56 450 75 431 b 142 474 122 431 142 450 z m 142 -129 b 99 -86 142 -106 122 -86 b 56 -129 75 -86 56 -106 b 99 -172 56 -153 75 -172 b 142 -129 122 -172 142 -153 z m 228 -215 b 185 -172 228 -192 208 -172 b 142 -215 161 -172 142 -192 b 185 -258 142 -239 161 -258 b 228 -215 208 -258 228 -239 z m 228 560 b 185 603 228 583 208 603 b 142 560 161 603 142 583 b 185 517 142 536 161 517 b 228 560 208 517 228 536 z m 314 -215 b 271 -172 314 -192 294 -172 b 228 -215 247 -172 228 -192 b 271 -258 228 -239 247 -258 b 314 -215 294 -258 314 -239 z m 314 560 b 271 603 314 583 294 603 b 228 560 247 603 228 583 b 271 517 228 536 247 517 b 314 560 294 517 314 536 z m 400 -215 b 357 -172 400 -192 381 -172 b 314 -215 333 -172 314 -192 b 357 -258 314 -239 333 -258 b 400 -215 381 -258 400 -239 z m 400 560 b 357 603 400 583 381 603 b 314 560 333 603 314 583 b 357 517 314 536 333 517 b 400 560 381 517 400 536 z m 486 -215 b 443 -172 486 -192 467 -172 b 400 -215 419 -172 400 -192 b 443 -258 400 -239 419 -258 b 486 -215 467 -258 486 -239 z m 486 474 b 443 517 486 497 467 517 b 400 474 419 517 400 497 b 443 431 400 450 419 431 b 486 474 467 431 486 450 z m 572 388 b 529 431 572 411 553 431 b 486 388 506 431 486 411 b 529 344 486 364 506 344 b 572 388 553 344 572 364 z m 572 560 b 529 603 572 583 553 603 b 486 560 506 603 486 583 b 529 517 486 536 506 517 b 572 560 553 517 572 536 z m 572 -129 b 529 -86 572 -106 553 -86 b 486 -129 506 -86 486 -106 b 529 -172 486 -153 506 -172 b 572 -129 553 -172 572 -153 z m 228 43 b 185 86 228 67 208 86 b 142 43 161 86 142 67 b 185 0 142 19 161 0 b 228 43 208 0 228 19 z m 228 215 b 185 258 228 239 208 258 b 142 215 161 258 142 239 b 185 172 142 192 161 172 b 228 215 208 172 228 192 z m 314 43 b 271 86 314 67 294 86 b 228 43 247 86 228 67 b 271 0 228 19 247 0 b 314 43 294 0 314 19 z m 314 215 b 271 258 314 239 294 258 b 228 215 247 258 228 239 b 271 172 228 192 247 172 b 314 215 294 172 314 192 z m 400 43 b 357 86 400 67 381 86 b 314 43 333 86 314 67 b 357 0 314 19 333 0 b 400 43 381 0 400 19 z m 400 215 b 357 258 400 239 381 258 b 314 215 333 258 314 239 b 357 172 314 192 333 172 b 400 215 381 172 400 192 z m 486 43 b 443 86 486 67 467 86 b 400 43 419 86 400 67 b 443 0 400 19 419 0 b 486 43 467 0 486 19 z m 486 215 b 443 258 486 239 467 258 b 400 215 419 258 400 239 b 443 172 400 192 419 172 b 486 215 467 172 486 192 z m 572 -43 b 529 0 572 -19 553 0 b 486 -43 506 0 486 -19 b 529 -86 486 -67 506 -86 b 572 -43 553 -86 572 -67 z m 572 301 b 529 344 572 325 553 344 b 486 301 506 344 486 325 b 529 258 486 278 506 258 b 572 301 553 258 572 278 z "},"h":{"ha":656,"x_min":0,"x_max":0,"o":"m 156 215 b 113 258 156 239 136 258 b 69 215 89 258 69 239 b 113 172 69 192 89 172 b 156 215 136 172 156 192 z m 156 301 b 113 344 156 325 136 344 b 69 301 89 344 69 325 b 113 258 69 278 89 258 b 156 301 136 258 156 278 z m 156 388 b 113 431 156 411 136 431 b 69 388 89 431 69 411 b 113 344 69 364 89 344 b 156 388 136 344 156 364 z m 156 474 b 113 517 156 497 136 517 b 69 474 89 517 69 497 b 113 431 69 450 89 431 b 156 474 136 431 156 450 z m 156 560 b 113 603 156 583 136 603 b 69 560 89 603 69 583 b 113 517 69 536 89 517 b 156 560 136 517 156 536 z m 156 646 b 113 689 156 669 136 689 b 69 646 89 689 69 669 b 113 603 69 622 89 603 b 156 646 136 603 156 622 z m 156 732 b 113 775 156 756 136 775 b 69 732 89 775 69 756 b 113 689 69 708 89 689 b 156 732 136 689 156 708 z m 156 818 b 113 861 156 842 136 861 b 69 818 89 861 69 842 b 113 775 69 794 89 775 b 156 818 136 775 156 794 z m 156 129 b 113 172 156 153 136 172 b 69 129 89 172 69 153 b 113 86 69 106 89 86 b 156 129 136 86 156 106 z m 586 129 b 543 172 586 153 567 172 b 500 129 519 172 500 153 b 543 86 500 106 519 86 b 586 129 567 86 586 106 z m 242 474 b 199 517 242 497 222 517 b 156 474 175 517 156 497 b 199 431 156 450 175 431 b 242 474 222 431 242 450 z m 328 560 b 285 603 328 583 308 603 b 242 560 261 603 242 583 b 285 517 242 536 261 517 b 328 560 308 517 328 536 z m 414 560 b 371 603 414 583 394 603 b 328 560 347 603 328 583 b 371 517 328 536 347 517 b 414 560 394 517 414 536 z m 500 560 b 457 603 500 583 481 603 b 414 560 433 603 414 583 b 457 517 414 536 433 517 b 500 560 481 517 500 536 z m 586 215 b 543 258 586 239 567 258 b 500 215 519 258 500 239 b 543 172 500 192 519 172 b 586 215 567 172 586 192 z m 586 301 b 543 344 586 325 567 344 b 500 301 519 344 500 325 b 543 258 500 278 519 258 b 586 301 567 258 586 278 z m 586 388 b 543 431 586 411 567 431 b 500 388 519 431 500 411 b 543 344 500 364 519 344 b 586 388 567 344 586 364 z m 586 474 b 543 517 586 497 567 517 b 500 474 519 517 500 497 b 543 431 500 450 519 431 b 586 474 567 431 586 450 z m 156 43 b 113 86 156 67 136 86 b 69 43 89 86 69 67 b 113 0 69 19 89 0 b 156 43 136 0 156 19 z m 586 43 b 543 86 586 67 567 86 b 500 43 519 86 500 67 b 543 0 500 19 519 0 b 586 43 567 0 586 19 z "},"i":{"ha":256,"x_min":0,"x_max":0,"o":"m 171 215 b 128 258 171 239 151 258 b 85 215 104 258 85 239 b 128 172 85 192 104 172 b 171 215 151 172 171 192 z m 171 301 b 128 344 171 325 151 344 b 85 301 104 344 85 325 b 128 258 85 278 104 258 b 171 301 151 258 171 278 z m 171 388 b 128 431 171 411 151 431 b 85 388 104 431 85 411 b 128 344 85 364 104 344 b 171 388 151 344 171 364 z m 171 474 b 128 517 171 497 151 517 b 85 474 104 517 85 497 b 128 431 85 450 104 431 b 171 474 151 431 171 450 z m 171 560 b 128 603 171 583 151 603 b 85 560 104 603 85 583 b 128 517 85 536 104 517 b 171 560 151 517 171 536 z m 186 767 b 128 824 186 797 160 824 b 69 767 96 824 69 797 b 128 708 69 735 96 708 b 186 767 160 708 186 735 z m 171 129 b 128 172 171 153 151 172 b 85 129 104 172 85 153 b 128 86 85 106 104 86 b 171 129 151 86 171 106 z m 171 43 b 128 86 171 67 151 86 b 85 43 104 86 85 67 b 128 0 85 19 104 0 b 171 43 151 0 171 19 z "},"j":{"ha":271,"x_min":0,"x_max":0,"o":"m 186 215 b 143 258 186 239 167 258 b 100 215 119 258 100 239 b 143 172 100 192 119 172 b 186 215 167 172 186 192 z m 186 301 b 143 344 186 325 167 344 b 100 301 119 344 100 325 b 143 258 100 278 119 258 b 186 301 167 258 186 278 z m 186 388 b 143 431 186 411 167 431 b 100 388 119 431 100 411 b 143 344 100 364 119 344 b 186 388 167 344 186 364 z m 186 474 b 143 517 186 497 167 517 b 100 474 119 517 100 497 b 143 431 100 450 119 431 b 186 474 167 431 186 450 z m 186 560 b 143 603 186 583 167 603 b 100 560 119 603 100 583 b 143 517 100 536 119 517 b 186 560 167 517 186 536 z m 201 767 b 143 824 201 797 175 824 b 85 767 111 824 85 797 b 143 708 85 735 111 708 b 201 767 175 708 201 735 z m 186 129 b 143 172 186 153 167 172 b 100 129 119 172 100 153 b 143 86 100 106 119 86 b 186 129 167 86 186 106 z m 186 43 b 143 86 186 67 167 86 b 100 43 119 86 100 67 b 143 0 100 19 119 0 b 186 43 167 0 186 19 z m 186 -43 b 143 0 186 -19 167 0 b 100 -43 119 0 100 -19 b 143 -86 100 -67 119 -86 b 186 -43 167 -86 186 -67 z m 100 -129 b 57 -86 100 -106 81 -86 b 14 -129 33 -86 14 -106 b 57 -172 14 -153 33 -172 b 100 -129 81 -172 100 -153 z "},"k":{"ha":614,"x_min":0,"x_max":0,"o":"m 156 43 b 113 86 156 67 136 86 b 69 43 89 86 69 67 b 113 0 69 19 89 0 b 156 43 136 0 156 19 z m 156 215 b 113 258 156 239 136 258 b 69 215 89 258 69 239 b 113 172 69 192 89 172 b 156 215 136 172 156 192 z m 156 301 b 113 344 156 325 136 344 b 69 301 89 344 69 325 b 113 258 69 278 89 258 b 156 301 136 258 156 278 z m 156 388 b 113 431 156 411 136 431 b 69 388 89 431 69 411 b 113 344 69 364 89 344 b 156 388 136 344 156 364 z m 156 474 b 113 517 156 497 136 517 b 69 474 89 517 69 497 b 113 431 69 450 89 431 b 156 474 136 431 156 450 z m 156 560 b 113 603 156 583 136 603 b 69 560 89 603 69 583 b 113 517 69 536 89 517 b 156 560 136 517 156 536 z m 156 646 b 113 689 156 669 136 689 b 69 646 89 689 69 669 b 113 603 69 622 89 603 b 156 646 136 603 156 622 z m 156 732 b 113 775 156 756 136 775 b 69 732 89 775 69 756 b 113 689 69 708 89 689 b 156 732 136 689 156 708 z m 156 818 b 113 861 156 842 136 861 b 69 818 89 861 69 842 b 113 775 69 794 89 775 b 156 818 136 775 156 794 z m 156 129 b 113 172 156 153 136 172 b 69 129 89 172 69 153 b 113 86 69 106 89 86 b 156 129 136 86 156 106 z m 500 129 b 457 172 500 153 481 172 b 414 129 433 172 414 153 b 457 86 414 106 433 86 b 500 129 481 86 500 106 z m 586 43 b 543 86 586 67 567 86 b 500 43 519 86 500 67 b 543 0 500 19 519 0 b 586 43 567 0 586 19 z m 242 215 b 199 258 242 239 222 258 b 156 215 175 258 156 239 b 199 172 156 192 175 172 b 242 215 222 172 242 192 z m 328 301 b 285 344 328 325 308 344 b 242 301 261 344 242 325 b 285 258 242 278 261 258 b 328 301 308 258 328 278 z m 414 215 b 371 258 414 239 394 258 b 328 215 347 258 328 239 b 371 172 328 192 347 172 b 414 215 394 172 414 192 z m 414 388 b 371 431 414 411 394 431 b 328 388 347 431 328 411 b 371 344 328 364 347 344 b 414 388 394 344 414 364 z m 500 474 b 457 517 500 497 481 517 b 414 474 433 517 414 497 b 457 431 414 450 433 431 b 500 474 481 431 500 450 z m 586 560 b 543 603 586 583 567 603 b 500 560 519 603 500 583 b 543 517 500 536 519 517 b 586 560 567 517 586 536 z "},"l":{"ha":225,"x_min":0,"x_max":0,"o":"m 156 43 b 113 86 156 67 136 86 b 69 43 89 86 69 67 b 113 0 69 19 89 0 b 156 43 136 0 156 19 z m 156 646 b 113 689 156 669 136 689 b 69 646 89 689 69 669 b 113 603 69 622 89 603 b 156 646 136 603 156 622 z m 156 732 b 113 775 156 756 136 775 b 69 732 89 775 69 756 b 113 689 69 708 89 689 b 156 732 136 689 156 708 z m 156 818 b 113 861 156 842 136 861 b 69 818 89 861 69 842 b 113 775 69 794 89 775 b 156 818 136 775 156 794 z m 156 129 b 113 172 156 153 136 172 b 69 129 89 172 69 153 b 113 86 69 106 89 86 b 156 129 136 86 156 106 z m 156 215 b 113 258 156 239 136 258 b 69 215 89 258 69 239 b 113 172 69 192 89 172 b 156 215 136 172 156 192 z m 156 301 b 113 344 156 325 136 344 b 69 301 89 344 69 325 b 113 258 69 278 89 258 b 156 301 136 258 156 278 z m 156 388 b 113 431 156 411 136 431 b 69 388 89 431 69 411 b 113 344 69 364 89 344 b 156 388 136 344 156 364 z m 156 474 b 113 517 156 497 136 517 b 69 474 89 517 69 497 b 113 431 69 450 89 431 b 156 474 136 431 156 450 z m 156 560 b 113 603 156 583 136 603 b 69 560 89 603 69 583 b 113 517 69 536 89 517 b 156 560 136 517 156 536 z "},"m":{"ha":914,"x_min":0,"x_max":0,"o":"m 156 215 b 113 258 156 239 136 258 b 69 215 89 258 69 239 b 113 172 69 192 89 172 b 156 215 136 172 156 192 z m 156 301 b 113 344 156 325 136 344 b 69 301 89 344 69 325 b 113 258 69 278 89 258 b 156 301 136 258 156 278 z m 156 388 b 113 431 156 411 136 431 b 69 388 89 431 69 411 b 113 344 69 364 89 344 b 156 388 136 344 156 364 z m 156 474 b 113 517 156 497 136 517 b 69 474 89 517 69 497 b 113 431 69 450 89 431 b 156 474 136 431 156 450 z m 156 560 b 113 603 156 583 136 603 b 69 560 89 603 69 583 b 113 517 69 536 89 517 b 156 560 136 517 156 536 z m 156 129 b 113 172 156 153 136 172 b 69 129 89 172 69 153 b 113 86 69 106 89 86 b 156 129 136 86 156 106 z m 500 129 b 457 172 500 153 481 172 b 414 129 433 172 414 153 b 457 86 414 106 433 86 b 500 129 481 86 500 106 z m 242 474 b 199 517 242 497 222 517 b 156 474 175 517 156 497 b 199 431 156 450 175 431 b 242 474 222 431 242 450 z m 328 560 b 285 603 328 583 308 603 b 242 560 261 603 242 583 b 285 517 242 536 261 517 b 328 560 308 517 328 536 z m 414 560 b 371 603 414 583 394 603 b 328 560 347 603 328 583 b 371 517 328 536 347 517 b 414 560 394 517 414 536 z m 500 215 b 457 258 500 239 481 258 b 414 215 433 258 414 239 b 457 172 414 192 433 172 b 500 215 481 172 500 192 z m 500 301 b 457 344 500 325 481 344 b 414 301 433 344 414 325 b 457 258 414 278 433 258 b 500 301 481 258 500 278 z m 500 388 b 457 431 500 411 481 431 b 414 388 433 431 414 411 b 457 344 414 364 433 344 b 500 388 481 344 500 364 z m 500 474 b 457 517 500 497 481 517 b 414 474 433 517 414 497 b 457 431 414 450 433 431 b 500 474 481 431 500 450 z m 156 43 b 113 86 156 67 136 86 b 69 43 89 86 69 67 b 113 0 69 19 89 0 b 156 43 136 0 156 19 z m 500 43 b 457 86 500 67 481 86 b 414 43 433 86 414 67 b 457 0 414 19 433 0 b 500 43 481 0 500 19 z m 844 129 b 801 172 844 153 825 172 b 758 129 778 172 758 153 b 801 86 758 106 778 86 b 844 129 825 86 844 106 z m 586 474 b 543 517 586 497 567 517 b 500 474 519 517 500 497 b 543 431 500 450 519 431 b 586 474 567 431 586 450 z m 672 560 b 629 603 672 583 653 603 b 586 560 606 603 586 583 b 629 517 586 536 606 517 b 672 560 653 517 672 536 z m 758 560 b 715 603 758 583 739 603 b 672 560 692 603 672 583 b 715 517 672 536 692 517 b 758 560 739 517 758 536 z m 844 215 b 801 258 844 239 825 258 b 758 215 778 258 758 239 b 801 172 758 192 778 172 b 844 215 825 172 844 192 z m 844 301 b 801 344 844 325 825 344 b 758 301 778 344 758 325 b 801 258 758 278 778 258 b 844 301 825 258 844 278 z m 844 388 b 801 431 844 411 825 431 b 758 388 778 431 758 411 b 801 344 758 364 778 344 b 844 388 825 344 844 364 z m 844 474 b 801 517 844 497 825 517 b 758 474 778 517 758 497 b 801 431 758 450 778 431 b 844 474 825 431 844 450 z m 844 43 b 801 86 844 67 825 86 b 758 43 778 86 758 67 b 801 0 758 19 778 0 b 844 43 825 0 844 19 z "},"n":{"ha":656,"x_min":0,"x_max":0,"o":"m 156 215 b 113 258 156 239 136 258 b 69 215 89 258 69 239 b 113 172 69 192 89 172 b 156 215 136 172 156 192 z m 156 301 b 113 344 156 325 136 344 b 69 301 89 344 69 325 b 113 258 69 278 89 258 b 156 301 136 258 156 278 z m 156 388 b 113 431 156 411 136 431 b 69 388 89 431 69 411 b 113 344 69 364 89 344 b 156 388 136 344 156 364 z m 156 474 b 113 517 156 497 136 517 b 69 474 89 517 69 497 b 113 431 69 450 89 431 b 156 474 136 431 156 450 z m 156 560 b 113 603 156 583 136 603 b 69 560 89 603 69 583 b 113 517 69 536 89 517 b 156 560 136 517 156 536 z m 156 129 b 113 172 156 153 136 172 b 69 129 89 172 69 153 b 113 86 69 106 89 86 b 156 129 136 86 156 106 z m 586 129 b 543 172 586 153 567 172 b 500 129 519 172 500 153 b 543 86 500 106 519 86 b 586 129 567 86 586 106 z m 242 474 b 199 517 242 497 222 517 b 156 474 175 517 156 497 b 199 431 156 450 175 431 b 242 474 222 431 242 450 z m 328 560 b 285 603 328 583 308 603 b 242 560 261 603 242 583 b 285 517 242 536 261 517 b 328 560 308 517 328 536 z m 414 560 b 371 603 414 583 394 603 b 328 560 347 603 328 583 b 371 517 328 536 347 517 b 414 560 394 517 414 536 z m 500 560 b 457 603 500 583 481 603 b 414 560 433 603 414 583 b 457 517 414 536 433 517 b 500 560 481 517 500 536 z m 586 215 b 543 258 586 239 567 258 b 500 215 519 258 500 239 b 543 172 500 192 519 172 b 586 215 567 172 586 192 z m 586 301 b 543 344 586 325 567 344 b 500 301 519 344 500 325 b 543 258 500 278 519 258 b 586 301 567 258 586 278 z m 586 388 b 543 431 586 411 567 431 b 500 388 519 431 500 411 b 543 344 500 364 519 344 b 586 388 567 344 586 364 z m 586 474 b 543 517 586 497 567 517 b 500 474 519 517 500 497 b 543 431 500 450 519 431 b 586 474 567 431 586 450 z m 156 43 b 113 86 156 67 136 86 b 69 43 89 86 69 67 b 113 0 69 19 89 0 b 156 43 136 0 156 19 z m 586 43 b 543 86 586 67 567 86 b 500 43 519 86 500 67 b 543 0 500 19 519 0 b 586 43 567 0 586 19 z "},"o":{"ha":656,"x_min":0,"x_max":0,"o":"m 156 215 b 113 258 156 239 136 258 b 69 215 89 258 69 239 b 113 172 69 192 89 172 b 156 215 136 172 156 192 z m 156 301 b 113 344 156 325 136 344 b 69 301 89 344 69 325 b 113 258 69 278 89 258 b 156 301 136 258 156 278 z m 156 388 b 113 431 156 411 136 431 b 69 388 89 431 69 411 b 113 344 69 364 89 344 b 156 388 136 344 156 364 z m 156 474 b 113 517 156 497 136 517 b 69 474 89 517 69 497 b 113 431 69 450 89 431 b 156 474 136 431 156 450 z m 156 129 b 113 172 156 153 136 172 b 69 129 89 172 69 153 b 113 86 69 106 89 86 b 156 129 136 86 156 106 z m 242 43 b 199 86 242 67 222 86 b 156 43 175 86 156 67 b 199 0 156 19 175 0 b 242 43 222 0 242 19 z m 328 43 b 285 86 328 67 308 86 b 242 43 261 86 242 67 b 285 0 242 19 261 0 b 328 43 308 0 328 19 z m 414 43 b 371 86 414 67 394 86 b 328 43 347 86 328 67 b 371 0 328 19 347 0 b 414 43 394 0 414 19 z m 500 43 b 457 86 500 67 481 86 b 414 43 433 86 414 67 b 457 0 414 19 433 0 b 500 43 481 0 500 19 z m 586 129 b 543 172 586 153 567 172 b 500 129 519 172 500 153 b 543 86 500 106 519 86 b 586 129 567 86 586 106 z m 242 560 b 199 603 242 583 222 603 b 156 560 175 603 156 583 b 199 517 156 536 175 517 b 242 560 222 517 242 536 z m 328 560 b 285 603 328 583 308 603 b 242 560 261 603 242 583 b 285 517 242 536 261 517 b 328 560 308 517 328 536 z m 414 560 b 371 603 414 583 394 603 b 328 560 347 603 328 583 b 371 517 328 536 347 517 b 414 560 394 517 414 536 z m 500 560 b 457 603 500 583 481 603 b 414 560 433 603 414 583 b 457 517 414 536 433 517 b 500 560 481 517 500 536 z m 586 215 b 543 258 586 239 567 258 b 500 215 519 258 500 239 b 543 172 500 192 519 172 b 586 215 567 172 586 192 z m 586 301 b 543 344 586 325 567 344 b 500 301 519 344 500 325 b 543 258 500 278 519 258 b 586 301 567 258 586 278 z m 586 388 b 543 431 586 411 567 431 b 500 388 519 431 500 411 b 543 344 500 364 519 344 b 586 388 567 344 586 364 z m 586 474 b 543 517 586 497 567 517 b 500 474 519 517 500 497 b 543 431 500 450 519 431 b 586 474 567 431 586 450 z "},"p":{"ha":656,"x_min":0,"x_max":0,"o":"m 156 388 b 113 431 156 411 136 431 b 69 388 89 431 69 411 b 113 344 69 364 89 344 b 156 388 136 344 156 364 z m 156 301 b 113 344 156 325 136 344 b 69 301 89 344 69 325 b 113 258 69 278 89 258 b 156 301 136 258 156 278 z m 156 215 b 113 258 156 239 136 258 b 69 215 89 258 69 239 b 113 172 69 192 89 172 b 156 215 136 172 156 192 z m 156 129 b 113 172 156 153 136 172 b 69 129 89 172 69 153 b 113 86 69 106 89 86 b 156 129 136 86 156 106 z m 156 43 b 113 86 156 67 136 86 b 69 43 89 86 69 67 b 113 0 69 19 89 0 b 156 43 136 0 156 19 z m 156 -43 b 113 0 156 -19 136 0 b 69 -43 89 0 69 -19 b 113 -86 69 -67 89 -86 b 156 -43 136 -86 156 -67 z m 156 -129 b 113 -86 156 -106 136 -86 b 69 -129 89 -86 69 -106 b 113 -172 69 -153 89 -172 b 156 -129 136 -172 156 -153 z m 156 -215 b 113 -172 156 -192 136 -172 b 69 -215 89 -172 69 -192 b 113 -258 69 -239 89 -258 b 156 -215 136 -258 156 -239 z m 156 474 b 113 517 156 497 136 517 b 69 474 89 517 69 497 b 113 431 69 450 89 431 b 156 474 136 431 156 450 z m 242 560 b 199 603 242 583 222 603 b 156 560 175 603 156 583 b 199 517 156 536 175 517 b 242 560 222 517 242 536 z m 328 560 b 285 603 328 583 308 603 b 242 560 261 603 242 583 b 285 517 242 536 261 517 b 328 560 308 517 328 536 z m 414 560 b 371 603 414 583 394 603 b 328 560 347 603 328 583 b 371 517 328 536 347 517 b 414 560 394 517 414 536 z m 500 560 b 457 603 500 583 481 603 b 414 560 433 603 414 583 b 457 517 414 536 433 517 b 500 560 481 517 500 536 z m 586 474 b 543 517 586 497 567 517 b 500 474 519 517 500 497 b 543 431 500 450 519 431 b 586 474 567 431 586 450 z m 242 129 b 199 172 242 153 222 172 b 156 129 175 172 156 153 b 199 86 156 106 175 86 b 242 129 222 86 242 106 z m 328 43 b 285 86 328 67 308 86 b 242 43 261 86 242 67 b 285 0 242 19 261 0 b 328 43 308 0 328 19 z m 414 43 b 371 86 414 67 394 86 b 328 43 347 86 328 67 b 371 0 328 19 347 0 b 414 43 394 0 414 19 z m 500 43 b 457 86 500 67 481 86 b 414 43 433 86 414 67 b 457 0 414 19 433 0 b 500 43 481 0 500 19 z m 586 388 b 543 431 586 411 567 431 b 500 388 519 431 500 411 b 543 344 500 364 519 344 b 586 388 567 344 586 364 z m 586 301 b 543 344 586 325 567 344 b 500 301 519 344 500 325 b 543 258 500 278 519 258 b 586 301 567 258 586 278 z m 586 215 b 543 258 586 239 567 258 b 500 215 519 258 500 239 b 543 172 500 192 519 172 b 586 215 567 172 586 192 z m 586 129 b 543 172 586 153 567 172 b 500 129 519 172 500 153 b 543 86 500 106 519 86 b 586 129 567 86 586 106 z "},"q":{"ha":656,"x_min":0,"x_max":0,"o":"m 500 388 b 543 344 500 364 519 344 b 586 388 567 344 586 364 b 543 431 586 411 567 431 b 500 388 519 431 500 411 z m 500 301 b 543 258 500 278 519 258 b 586 301 567 258 586 278 b 543 344 586 325 567 344 b 500 301 519 344 500 325 z m 500 215 b 543 172 500 192 519 172 b 586 215 567 172 586 192 b 543 258 586 239 567 258 b 500 215 519 258 500 239 z m 500 129 b 543 86 500 106 519 86 b 586 129 567 86 586 106 b 543 172 586 153 567 172 b 500 129 519 172 500 153 z m 500 43 b 543 0 500 19 519 0 b 586 43 567 0 586 19 b 543 86 586 67 567 86 b 500 43 519 86 500 67 z m 500 -43 b 543 -86 500 -67 519 -86 b 586 -43 567 -86 586 -67 b 543 0 586 -19 567 0 b 500 -43 519 0 500 -19 z m 500 -129 b 543 -172 500 -153 519 -172 b 586 -129 567 -172 586 -153 b 543 -86 586 -106 567 -86 b 500 -129 519 -86 500 -106 z m 500 -215 b 543 -258 500 -239 519 -258 b 586 -215 567 -258 586 -239 b 543 -172 586 -192 567 -172 b 500 -215 519 -172 500 -192 z m 500 474 b 543 431 500 450 519 431 b 586 474 567 431 586 450 b 543 517 586 497 567 517 b 500 474 519 517 500 497 z m 414 560 b 457 517 414 536 433 517 b 500 560 481 517 500 536 b 457 603 500 583 481 603 b 414 560 433 603 414 583 z m 328 560 b 371 517 328 536 347 517 b 414 560 394 517 414 536 b 371 603 414 583 394 603 b 328 560 347 603 328 583 z m 242 560 b 285 517 242 536 261 517 b 328 560 308 517 328 536 b 285 603 328 583 308 603 b 242 560 261 603 242 583 z m 156 560 b 199 517 156 536 175 517 b 242 560 222 517 242 536 b 199 603 242 583 222 603 b 156 560 175 603 156 583 z m 69 474 b 113 431 69 450 89 431 b 156 474 136 431 156 450 b 113 517 156 497 136 517 b 69 474 89 517 69 497 z m 414 129 b 457 86 414 106 433 86 b 500 129 481 86 500 106 b 457 172 500 153 481 172 b 414 129 433 172 414 153 z m 328 43 b 371 0 328 19 347 0 b 414 43 394 0 414 19 b 371 86 414 67 394 86 b 328 43 347 86 328 67 z m 242 43 b 285 0 242 19 261 0 b 328 43 308 0 328 19 b 285 86 328 67 308 86 b 242 43 261 86 242 67 z m 156 43 b 199 0 156 19 175 0 b 242 43 222 0 242 19 b 199 86 242 67 222 86 b 156 43 175 86 156 67 z m 69 388 b 113 344 69 364 89 344 b 156 388 136 344 156 364 b 113 431 156 411 136 431 b 69 388 89 431 69 411 z m 69 301 b 113 258 69 278 89 258 b 156 301 136 258 156 278 b 113 344 156 325 136 344 b 69 301 89 344 69 325 z m 69 215 b 113 172 69 192 89 172 b 156 215 136 172 156 192 b 113 258 156 239 136 258 b 69 215 89 258 69 239 z m 69 129 b 113 86 69 106 89 86 b 156 129 136 86 156 106 b 113 172 156 153 136 172 b 69 129 89 172 69 153 z "},"r":{"ha":514,"x_min":0,"x_max":0,"o":"m 156 215 b 113 258 156 239 136 258 b 69 215 89 258 69 239 b 113 172 69 192 89 172 b 156 215 136 172 156 192 z m 156 301 b 113 344 156 325 136 344 b 69 301 89 344 69 325 b 113 258 69 278 89 258 b 156 301 136 258 156 278 z m 156 388 b 113 431 156 411 136 431 b 69 388 89 431 69 411 b 113 344 69 364 89 344 b 156 388 136 344 156 364 z m 156 474 b 113 517 156 497 136 517 b 69 474 89 517 69 497 b 113 431 69 450 89 431 b 156 474 136 431 156 450 z m 156 560 b 113 603 156 583 136 603 b 69 560 89 603 69 583 b 113 517 69 536 89 517 b 156 560 136 517 156 536 z m 156 129 b 113 172 156 153 136 172 b 69 129 89 172 69 153 b 113 86 69 106 89 86 b 156 129 136 86 156 106 z m 242 474 b 199 517 242 497 222 517 b 156 474 175 517 156 497 b 199 431 156 450 175 431 b 242 474 222 431 242 450 z m 328 560 b 285 603 328 583 308 603 b 242 560 261 603 242 583 b 285 517 242 536 261 517 b 328 560 308 517 328 536 z m 414 560 b 371 603 414 583 394 603 b 328 560 347 603 328 583 b 371 517 328 536 347 517 b 414 560 394 517 414 536 z m 500 474 b 457 517 500 497 481 517 b 414 474 433 517 414 497 b 457 431 414 450 433 431 b 500 474 481 431 500 450 z m 156 43 b 113 86 156 67 136 86 b 69 43 89 86 69 67 b 113 0 69 19 89 0 b 156 43 136 0 156 19 z "},"s":{"ha":628,"x_min":0,"x_max":0,"o":"m 142 388 b 99 431 142 411 122 431 b 56 388 75 431 56 411 b 99 344 56 364 75 344 b 142 388 122 344 142 364 z m 142 474 b 99 517 142 497 122 517 b 56 474 75 517 56 497 b 99 431 56 450 75 431 b 142 474 122 431 142 450 z m 142 129 b 99 172 142 153 122 172 b 56 129 75 172 56 153 b 99 86 56 106 75 86 b 142 129 122 86 142 106 z m 228 43 b 185 86 228 67 208 86 b 142 43 161 86 142 67 b 185 0 142 19 161 0 b 228 43 208 0 228 19 z m 314 43 b 271 86 314 67 294 86 b 228 43 247 86 228 67 b 271 0 228 19 247 0 b 314 43 294 0 314 19 z m 400 43 b 357 86 400 67 381 86 b 314 43 333 86 314 67 b 357 0 314 19 333 0 b 400 43 381 0 400 19 z m 486 43 b 443 86 486 67 467 86 b 400 43 419 86 400 67 b 443 0 400 19 419 0 b 486 43 467 0 486 19 z m 572 129 b 529 172 572 153 553 172 b 486 129 506 172 486 153 b 529 86 486 106 506 86 b 572 129 553 86 572 106 z m 228 301 b 185 344 228 325 208 344 b 142 301 161 344 142 325 b 185 258 142 278 161 258 b 228 301 208 258 228 278 z m 228 560 b 185 603 228 583 208 603 b 142 560 161 603 142 583 b 185 517 142 536 161 517 b 228 560 208 517 228 536 z m 314 301 b 271 344 314 325 294 344 b 228 301 247 344 228 325 b 271 258 228 278 247 258 b 314 301 294 258 314 278 z m 314 560 b 271 603 314 583 294 603 b 228 560 247 603 228 583 b 271 517 228 536 247 517 b 314 560 294 517 314 536 z m 400 301 b 357 344 400 325 381 344 b 314 301 333 344 314 325 b 357 258 314 278 333 258 b 400 301 381 258 400 278 z m 400 560 b 357 603 400 583 381 603 b 314 560 333 603 314 583 b 357 517 314 536 333 517 b 400 560 381 517 400 536 z m 486 301 b 443 344 486 325 467 344 b 400 301 419 344 400 325 b 443 258 400 278 419 258 b 486 301 467 258 486 278 z m 486 560 b 443 603 486 583 467 603 b 400 560 419 603 400 583 b 443 517 400 536 419 517 b 486 560 467 517 486 536 z m 572 215 b 529 258 572 239 553 258 b 486 215 506 258 486 239 b 529 172 486 192 506 172 b 572 215 553 172 572 192 z m 572 474 b 529 517 572 497 553 517 b 486 474 506 517 486 497 b 529 431 486 450 506 431 b 572 474 553 431 572 450 z "},"t":{"ha":558,"x_min":0,"x_max":0,"o":"m 114 560 b 71 603 114 583 94 603 b 28 560 47 603 28 583 b 71 517 28 536 47 517 b 114 560 94 517 114 536 z m 200 646 b 157 689 200 669 181 689 b 114 646 133 689 114 669 b 157 603 114 622 133 603 b 200 646 181 603 200 622 z m 200 732 b 157 775 200 756 181 775 b 114 732 133 775 114 756 b 157 689 114 708 133 689 b 200 732 181 689 200 708 z m 200 818 b 157 861 200 842 181 861 b 114 818 133 861 114 842 b 157 775 114 794 133 775 b 200 818 181 775 200 794 z m 200 129 b 157 172 200 153 181 172 b 114 129 133 172 114 153 b 157 86 114 106 133 86 b 200 129 181 86 200 106 z m 286 43 b 243 86 286 67 267 86 b 200 43 219 86 200 67 b 243 0 200 19 219 0 b 286 43 267 0 286 19 z m 372 43 b 329 86 372 67 353 86 b 286 43 306 86 286 67 b 329 0 286 19 306 0 b 372 43 353 0 372 19 z m 458 43 b 415 86 458 67 439 86 b 372 43 392 86 372 67 b 415 0 372 19 392 0 b 458 43 439 0 458 19 z m 544 129 b 501 172 544 153 525 172 b 458 129 478 172 458 153 b 501 86 458 106 478 86 b 544 129 525 86 544 106 z m 200 215 b 157 258 200 239 181 258 b 114 215 133 258 114 239 b 157 172 114 192 133 172 b 200 215 181 172 200 192 z m 200 301 b 157 344 200 325 181 344 b 114 301 133 344 114 325 b 157 258 114 278 133 258 b 200 301 181 258 200 278 z m 200 388 b 157 431 200 411 181 431 b 114 388 133 431 114 411 b 157 344 114 364 133 344 b 200 388 181 344 200 364 z m 200 474 b 157 517 200 497 181 517 b 114 474 133 517 114 497 b 157 431 114 450 133 431 b 200 474 181 431 200 450 z m 200 560 b 157 603 200 583 181 603 b 114 560 133 603 114 583 b 157 517 114 536 133 517 b 200 560 181 517 200 536 z m 286 560 b 243 603 286 583 267 603 b 200 560 219 603 200 583 b 243 517 200 536 219 517 b 286 560 267 517 286 536 z m 372 560 b 329 603 372 583 353 603 b 286 560 306 603 286 583 b 329 517 286 536 306 517 b 372 560 353 517 372 536 z m 458 560 b 415 603 458 583 439 603 b 372 560 392 603 372 583 b 415 517 372 536 392 517 b 458 560 439 517 458 536 z "},"u":{"ha":656,"x_min":0,"x_max":0,"o":"m 500 388 b 543 344 500 364 519 344 b 586 388 567 344 586 364 b 543 431 586 411 567 431 b 500 388 519 431 500 411 z m 500 301 b 543 258 500 278 519 258 b 586 301 567 258 586 278 b 543 344 586 325 567 344 b 500 301 519 344 500 325 z m 500 215 b 543 172 500 192 519 172 b 586 215 567 172 586 192 b 543 258 586 239 567 258 b 500 215 519 258 500 239 z m 500 129 b 543 86 500 106 519 86 b 586 129 567 86 586 106 b 543 172 586 153 567 172 b 500 129 519 172 500 153 z m 500 43 b 543 0 500 19 519 0 b 586 43 567 0 586 19 b 543 86 586 67 567 86 b 500 43 519 86 500 67 z m 500 474 b 543 431 500 450 519 431 b 586 474 567 431 586 450 b 543 517 586 497 567 517 b 500 474 519 517 500 497 z m 69 474 b 113 431 69 450 89 431 b 156 474 136 431 156 450 b 113 517 156 497 136 517 b 69 474 89 517 69 497 z m 414 129 b 457 86 414 106 433 86 b 500 129 481 86 500 106 b 457 172 500 153 481 172 b 414 129 433 172 414 153 z m 328 43 b 371 0 328 19 347 0 b 414 43 394 0 414 19 b 371 86 414 67 394 86 b 328 43 347 86 328 67 z m 242 43 b 285 0 242 19 261 0 b 328 43 308 0 328 19 b 285 86 328 67 308 86 b 242 43 261 86 242 67 z m 156 43 b 199 0 156 19 175 0 b 242 43 222 0 242 19 b 199 86 242 67 222 86 b 156 43 175 86 156 67 z m 69 388 b 113 344 69 364 89 344 b 156 388 136 344 156 364 b 113 431 156 411 136 431 b 69 388 89 431 69 411 z m 69 301 b 113 258 69 278 89 258 b 156 301 136 258 156 278 b 113 344 156 325 136 344 b 69 301 89 344 69 325 z m 69 215 b 113 172 69 192 89 172 b 156 215 136 172 156 192 b 113 258 156 239 136 258 b 69 215 89 258 69 239 z m 69 129 b 113 86 69 106 89 86 b 156 129 136 86 156 106 b 113 172 156 153 136 172 b 69 129 89 172 69 153 z m 500 560 b 543 517 500 536 519 517 b 586 560 567 517 586 536 b 543 603 586 583 567 603 b 500 560 519 603 500 583 z m 69 560 b 113 517 69 536 89 517 b 156 560 136 517 156 536 b 113 603 156 583 136 603 b 69 560 89 603 69 583 z "},"v":{"ha":542,"x_min":0,"x_max":0,"o":"m 142 474 b 99 517 142 497 122 517 b 56 474 75 517 56 497 b 99 431 56 450 75 431 b 142 474 122 431 142 450 z m 142 560 b 99 603 142 583 122 603 b 56 560 75 603 56 583 b 99 517 56 536 75 517 b 142 560 122 517 142 536 z m 314 43 b 271 86 314 67 294 86 b 228 43 247 86 228 67 b 271 0 228 19 247 0 b 314 43 294 0 314 19 z m 314 129 b 271 172 314 153 294 172 b 228 129 247 172 228 153 b 271 86 228 106 247 86 b 314 129 294 86 314 106 z m 228 215 b 185 258 228 239 208 258 b 142 215 161 258 142 239 b 185 172 142 192 161 172 b 228 215 208 172 228 192 z m 228 301 b 185 344 228 325 208 344 b 142 301 161 344 142 325 b 185 258 142 278 161 258 b 228 301 208 258 228 278 z m 228 388 b 185 431 228 411 208 431 b 142 388 161 431 142 411 b 185 344 142 364 161 344 b 228 388 208 344 228 364 z m 400 215 b 357 258 400 239 381 258 b 314 215 333 258 314 239 b 357 172 314 192 333 172 b 400 215 381 172 400 192 z m 400 301 b 357 344 400 325 381 344 b 314 301 333 344 314 325 b 357 258 314 278 333 258 b 400 301 381 258 400 278 z m 400 388 b 357 431 400 411 381 431 b 314 388 333 431 314 411 b 357 344 314 364 333 344 b 400 388 381 344 400 364 z m 486 474 b 443 517 486 497 467 517 b 400 474 419 517 400 497 b 443 431 400 450 419 431 b 486 474 467 431 486 450 z m 486 560 b 443 603 486 583 467 603 b 400 560 419 603 400 583 b 443 517 400 536 419 517 b 486 560 467 517 486 536 z "},"w":{"ha":914,"x_min":0,"x_max":0,"o":"m 156 215 b 113 258 156 239 136 258 b 69 215 89 258 69 239 b 113 172 69 192 89 172 b 156 215 136 172 156 192 z m 156 301 b 113 344 156 325 136 344 b 69 301 89 344 69 325 b 113 258 69 278 89 258 b 156 301 136 258 156 278 z m 156 388 b 113 431 156 411 136 431 b 69 388 89 431 69 411 b 113 344 69 364 89 344 b 156 388 136 344 156 364 z m 156 474 b 113 517 156 497 136 517 b 69 474 89 517 69 497 b 113 431 69 450 89 431 b 156 474 136 431 156 450 z m 156 560 b 113 603 156 583 136 603 b 69 560 89 603 69 583 b 113 517 69 536 89 517 b 156 560 136 517 156 536 z m 156 129 b 113 172 156 153 136 172 b 69 129 89 172 69 153 b 113 86 69 106 89 86 b 156 129 136 86 156 106 z m 242 43 b 199 86 242 67 222 86 b 156 43 175 86 156 67 b 199 0 156 19 175 0 b 242 43 222 0 242 19 z m 328 43 b 285 86 328 67 308 86 b 242 43 261 86 242 67 b 285 0 242 19 261 0 b 328 43 308 0 328 19 z m 414 43 b 371 86 414 67 394 86 b 328 43 347 86 328 67 b 371 0 328 19 347 0 b 414 43 394 0 414 19 z m 500 215 b 457 258 500 239 481 258 b 414 215 433 258 414 239 b 457 172 414 192 433 172 b 500 215 481 172 500 192 z m 500 301 b 457 344 500 325 481 344 b 414 301 433 344 414 325 b 457 258 414 278 433 258 b 500 301 481 258 500 278 z m 500 388 b 457 431 500 411 481 431 b 414 388 433 431 414 411 b 457 344 414 364 433 344 b 500 388 481 344 500 364 z m 500 474 b 457 517 500 497 481 517 b 414 474 433 517 414 497 b 457 431 414 450 433 431 b 500 474 481 431 500 450 z m 500 560 b 457 603 500 583 481 603 b 414 560 433 603 414 583 b 457 517 414 536 433 517 b 500 560 481 517 500 536 z m 500 129 b 457 172 500 153 481 172 b 414 129 433 172 414 153 b 457 86 414 106 433 86 b 500 129 481 86 500 106 z m 586 43 b 543 86 586 67 567 86 b 500 43 519 86 500 67 b 543 0 500 19 519 0 b 586 43 567 0 586 19 z m 672 43 b 629 86 672 67 653 86 b 586 43 606 86 586 67 b 629 0 586 19 606 0 b 672 43 653 0 672 19 z m 758 43 b 715 86 758 67 739 86 b 672 43 692 86 672 67 b 715 0 672 19 692 0 b 758 43 739 0 758 19 z m 844 129 b 801 172 844 153 825 172 b 758 129 778 172 758 153 b 801 86 758 106 778 86 b 844 129 825 86 844 106 z m 844 215 b 801 258 844 239 825 258 b 758 215 778 258 758 239 b 801 172 758 192 778 172 b 844 215 825 172 844 192 z m 844 301 b 801 344 844 325 825 344 b 758 301 778 344 758 325 b 801 258 758 278 778 258 b 844 301 825 258 844 278 z m 844 388 b 801 431 844 411 825 431 b 758 388 778 431 758 411 b 801 344 758 364 778 344 b 844 388 825 344 844 364 z m 844 474 b 801 517 844 497 825 517 b 758 474 778 517 758 497 b 801 431 758 450 778 431 b 844 474 825 431 844 450 z m 844 560 b 801 603 844 583 825 603 b 758 560 778 603 758 583 b 801 517 758 536 778 517 b 844 560 825 517 844 536 z "},"x":{"ha":542,"x_min":0,"x_max":0,"o":"m 142 43 b 99 86 142 67 122 86 b 56 43 75 86 56 67 b 99 0 56 19 75 0 b 142 43 122 0 142 19 z m 142 474 b 99 517 142 497 122 517 b 56 474 75 517 56 497 b 99 431 56 450 75 431 b 142 474 122 431 142 450 z m 142 560 b 99 603 142 583 122 603 b 56 560 75 603 56 583 b 99 517 56 536 75 517 b 142 560 122 517 142 536 z m 142 129 b 99 172 142 153 122 172 b 56 129 75 172 56 153 b 99 86 56 106 75 86 b 142 129 122 86 142 106 z m 486 43 b 443 86 486 67 467 86 b 400 43 419 86 400 67 b 443 0 400 19 419 0 b 486 43 467 0 486 19 z m 486 129 b 443 172 486 153 467 172 b 400 129 419 172 400 153 b 443 86 400 106 419 86 b 486 129 467 86 486 106 z m 228 215 b 185 258 228 239 208 258 b 142 215 161 258 142 239 b 185 172 142 192 161 172 b 228 215 208 172 228 192 z m 228 388 b 185 431 228 411 208 431 b 142 388 161 431 142 411 b 185 344 142 364 161 344 b 228 388 208 344 228 364 z m 314 301 b 271 344 314 325 294 344 b 228 301 247 344 228 325 b 271 258 228 278 247 258 b 314 301 294 258 314 278 z m 400 215 b 357 258 400 239 381 258 b 314 215 333 258 314 239 b 357 172 314 192 333 172 b 400 215 381 172 400 192 z m 400 388 b 357 431 400 411 381 431 b 314 388 333 431 314 411 b 357 344 314 364 333 344 b 400 388 381 344 400 364 z m 486 474 b 443 517 486 497 467 517 b 400 474 419 517 400 497 b 443 431 400 450 419 431 b 486 474 467 431 486 450 z m 486 560 b 443 603 486 583 467 603 b 400 560 419 603 400 583 b 443 517 400 536 419 517 b 486 560 467 517 486 536 z "},"y":{"ha":656,"x_min":0,"x_max":0,"o":"m 156 129 b 113 172 156 153 136 172 b 69 129 89 172 69 153 b 113 86 69 106 89 86 b 156 129 136 86 156 106 z m 156 215 b 113 258 156 239 136 258 b 69 215 89 258 69 239 b 113 172 69 192 89 172 b 156 215 136 172 156 192 z m 156 301 b 113 344 156 325 136 344 b 69 301 89 344 69 325 b 113 258 69 278 89 258 b 156 301 136 258 156 278 z m 156 388 b 113 431 156 411 136 431 b 69 388 89 431 69 411 b 113 344 69 364 89 344 b 156 388 136 344 156 364 z m 156 474 b 113 517 156 497 136 517 b 69 474 89 517 69 497 b 113 431 69 450 89 431 b 156 474 136 431 156 450 z m 156 560 b 113 603 156 583 136 603 b 69 560 89 603 69 583 b 113 517 69 536 89 517 b 156 560 136 517 156 536 z m 156 -129 b 113 -86 156 -106 136 -86 b 69 -129 89 -86 69 -106 b 113 -172 69 -153 89 -172 b 156 -129 136 -172 156 -153 z m 242 -215 b 199 -172 242 -192 222 -172 b 156 -215 175 -172 156 -192 b 199 -258 156 -239 175 -258 b 242 -215 222 -258 242 -239 z m 328 -215 b 285 -172 328 -192 308 -172 b 242 -215 261 -172 242 -192 b 285 -258 242 -239 261 -258 b 328 -215 308 -258 328 -239 z m 414 -215 b 371 -172 414 -192 394 -172 b 328 -215 347 -172 328 -192 b 371 -258 328 -239 347 -258 b 414 -215 394 -258 414 -239 z m 500 -215 b 457 -172 500 -192 481 -172 b 414 -215 433 -172 414 -192 b 457 -258 414 -239 433 -258 b 500 -215 481 -258 500 -239 z m 586 388 b 543 431 586 411 567 431 b 500 388 519 431 500 411 b 543 344 500 364 519 344 b 586 388 567 344 586 364 z m 586 474 b 543 517 586 497 567 517 b 500 474 519 517 500 497 b 543 431 500 450 519 431 b 586 474 567 431 586 450 z m 586 560 b 543 603 586 583 567 603 b 500 560 519 603 500 583 b 543 517 500 536 519 517 b 586 560 567 517 586 536 z m 586 -129 b 543 -86 586 -106 567 -86 b 500 -129 519 -86 500 -106 b 543 -172 500 -153 519 -172 b 586 -129 567 -172 586 -153 z m 242 43 b 199 86 242 67 222 86 b 156 43 175 86 156 67 b 199 0 156 19 175 0 b 242 43 222 0 242 19 z m 328 43 b 285 86 328 67 308 86 b 242 43 261 86 242 67 b 285 0 242 19 261 0 b 328 43 308 0 328 19 z m 414 43 b 371 86 414 67 394 86 b 328 43 347 86 328 67 b 371 0 328 19 347 0 b 414 43 394 0 414 19 z m 500 129 b 457 172 500 153 481 172 b 414 129 433 172 414 153 b 457 86 414 106 433 86 b 500 129 481 86 500 106 z m 586 -43 b 543 0 586 -19 567 0 b 500 -43 519 0 500 -19 b 543 -86 500 -67 519 -86 b 586 -43 567 -86 586 -67 z m 586 43 b 543 86 586 67 567 86 b 500 43 519 86 500 67 b 543 0 500 19 519 0 b 586 43 567 0 586 19 z m 586 129 b 543 172 586 153 567 172 b 500 129 519 172 500 153 b 543 86 500 106 519 86 b 586 129 567 86 586 106 z m 586 215 b 543 258 586 239 567 258 b 500 215 519 258 500 239 b 543 172 500 192 519 172 b 586 215 567 172 586 192 z m 586 301 b 543 344 586 325 567 344 b 500 301 519 344 500 325 b 543 258 500 278 519 258 b 586 301 567 258 586 278 z "},"z":{"ha":628,"x_min":0,"x_max":0,"o":"m 142 43 b 99 86 142 67 122 86 b 56 43 75 86 56 67 b 99 0 56 19 75 0 b 142 43 122 0 142 19 z m 142 560 b 99 603 142 583 122 603 b 56 560 75 603 56 583 b 99 517 56 536 75 517 b 142 560 122 517 142 536 z m 142 129 b 99 172 142 153 122 172 b 56 129 75 172 56 153 b 99 86 56 106 75 86 b 142 129 122 86 142 106 z m 228 43 b 185 86 228 67 208 86 b 142 43 161 86 142 67 b 185 0 142 19 161 0 b 228 43 208 0 228 19 z m 314 43 b 271 86 314 67 294 86 b 228 43 247 86 228 67 b 271 0 228 19 247 0 b 314 43 294 0 314 19 z m 400 43 b 357 86 400 67 381 86 b 314 43 333 86 314 67 b 357 0 314 19 333 0 b 400 43 381 0 400 19 z m 486 43 b 443 86 486 67 467 86 b 400 43 419 86 400 67 b 443 0 400 19 419 0 b 486 43 467 0 486 19 z m 572 43 b 529 86 572 67 553 86 b 486 43 506 86 486 67 b 529 0 486 19 506 0 b 572 43 553 0 572 19 z m 228 215 b 185 258 228 239 208 258 b 142 215 161 258 142 239 b 185 172 142 192 161 172 b 228 215 208 172 228 192 z m 228 560 b 185 603 228 583 208 603 b 142 560 161 603 142 583 b 185 517 142 536 161 517 b 228 560 208 517 228 536 z m 314 301 b 271 344 314 325 294 344 b 228 301 247 344 228 325 b 271 258 228 278 247 258 b 314 301 294 258 314 278 z m 314 560 b 271 603 314 583 294 603 b 228 560 247 603 228 583 b 271 517 228 536 247 517 b 314 560 294 517 314 536 z m 400 301 b 357 344 400 325 381 344 b 314 301 333 344 314 325 b 357 258 314 278 333 258 b 400 301 381 258 400 278 z m 400 560 b 357 603 400 583 381 603 b 314 560 333 603 314 583 b 357 517 314 536 333 517 b 400 560 381 517 400 536 z m 486 388 b 443 431 486 411 467 431 b 400 388 419 431 400 411 b 443 344 400 364 419 344 b 486 388 467 344 486 364 z m 486 560 b 443 603 486 583 467 603 b 400 560 419 603 400 583 b 443 517 400 536 419 517 b 486 560 467 517 486 536 z m 572 474 b 529 517 572 497 553 517 b 486 474 506 517 486 497 b 529 431 486 450 506 431 b 572 474 553 431 572 450 z m 572 560 b 529 603 572 583 553 603 b 486 560 506 603 486 583 b 529 517 486 536 506 517 b 572 560 553 517 572 536 z "},"{":{"ha":369,"x_min":0,"x_max":0,"o":"m 228 43 b 185 86 228 67 208 86 b 142 43 161 86 142 67 b 185 0 142 19 161 0 b 228 43 208 0 228 19 z m 228 215 b 185 258 228 239 208 258 b 142 215 161 258 142 239 b 185 172 142 192 161 172 b 228 215 208 172 228 192 z m 228 301 b 185 344 228 325 208 344 b 142 301 161 344 142 325 b 185 258 142 278 161 258 b 228 301 208 258 228 278 z m 228 474 b 185 517 228 497 208 517 b 142 474 161 517 142 497 b 185 431 142 450 161 431 b 228 474 208 431 228 450 z m 228 560 b 185 603 228 583 208 603 b 142 560 161 603 142 583 b 185 517 142 536 161 517 b 228 560 208 517 228 536 z m 228 646 b 185 689 228 669 208 689 b 142 646 161 689 142 669 b 185 603 142 622 161 603 b 228 646 208 603 228 622 z m 228 129 b 185 172 228 153 208 172 b 142 129 161 172 142 153 b 185 86 142 106 161 86 b 228 129 208 86 228 106 z m 314 -43 b 271 0 314 -19 294 0 b 228 -43 247 0 228 -19 b 271 -86 228 -67 247 -86 b 314 -43 294 -86 314 -67 z m 142 388 b 99 431 142 411 122 431 b 56 388 75 431 56 411 b 99 344 56 364 75 344 b 142 388 122 344 142 364 z m 228 732 b 185 775 228 756 208 775 b 142 732 161 775 142 756 b 185 689 142 708 161 689 b 228 732 208 689 228 708 z m 314 818 b 271 861 314 842 294 861 b 228 818 247 861 228 842 b 271 775 228 794 247 775 b 314 818 294 775 314 794 z "},"|":{"ha":254,"x_min":0,"x_max":0,"o":"m 171 43 b 128 86 171 67 151 86 b 85 43 104 86 85 67 b 128 0 85 19 104 0 b 171 43 151 0 171 19 z m 171 646 b 128 689 171 669 151 689 b 85 646 104 689 85 669 b 128 603 85 622 104 603 b 171 646 151 603 171 622 z m 171 732 b 128 775 171 756 151 775 b 85 732 104 775 85 756 b 128 689 85 708 104 689 b 171 732 151 689 171 708 z m 171 818 b 128 861 171 842 151 861 b 85 818 104 861 85 842 b 128 775 85 794 104 775 b 171 818 151 775 171 794 z m 171 129 b 128 172 171 153 151 172 b 85 129 104 172 85 153 b 128 86 85 106 104 86 b 171 129 151 86 171 106 z m 169 904 b 126 947 169 928 150 947 b 83 904 103 947 83 928 b 126 861 83 881 103 861 b 169 904 150 861 169 881 z m 171 215 b 128 258 171 239 151 258 b 85 215 104 258 85 239 b 128 172 85 192 104 172 b 171 215 151 172 171 192 z m 171 301 b 128 344 171 325 151 344 b 85 301 104 344 85 325 b 128 258 85 278 104 258 b 171 301 151 258 171 278 z m 171 388 b 128 431 171 411 151 431 b 85 388 104 431 85 411 b 128 344 85 364 104 344 b 171 388 151 344 171 364 z m 171 474 b 128 517 171 497 151 517 b 85 474 104 517 85 497 b 128 431 85 450 104 431 b 171 474 151 431 171 450 z m 171 560 b 128 603 171 583 151 603 b 85 560 104 603 85 583 b 128 517 85 536 104 517 b 171 560 151 517 171 536 z m 171 -43 b 128 0 171 -19 151 0 b 85 -43 104 0 85 -19 b 128 -86 85 -67 104 -86 b 171 -43 151 -86 171 -67 z "},"}":{"ha":369,"x_min":0,"x_max":0,"o":"m 142 43 b 185 0 142 19 161 0 b 228 43 208 0 228 19 b 185 86 228 67 208 86 b 142 43 161 86 142 67 z m 142 215 b 185 172 142 192 161 172 b 228 215 208 172 228 192 b 185 258 228 239 208 258 b 142 215 161 258 142 239 z m 142 301 b 185 258 142 278 161 258 b 228 301 208 258 228 278 b 185 344 228 325 208 344 b 142 301 161 344 142 325 z m 142 474 b 185 431 142 450 161 431 b 228 474 208 431 228 450 b 185 517 228 497 208 517 b 142 474 161 517 142 497 z m 142 560 b 185 517 142 536 161 517 b 228 560 208 517 228 536 b 185 603 228 583 208 603 b 142 560 161 603 142 583 z m 142 646 b 185 603 142 622 161 603 b 228 646 208 603 228 622 b 185 689 228 669 208 689 b 142 646 161 689 142 669 z m 142 129 b 185 86 142 106 161 86 b 228 129 208 86 228 106 b 185 172 228 153 208 172 b 142 129 161 172 142 153 z m 56 -43 b 99 -86 56 -67 75 -86 b 142 -43 122 -86 142 -67 b 99 0 142 -19 122 0 b 56 -43 75 0 56 -19 z m 228 388 b 271 344 228 364 247 344 b 314 388 294 344 314 364 b 271 431 314 411 294 431 b 228 388 247 431 228 411 z m 142 732 b 185 689 142 708 161 689 b 228 732 208 689 228 708 b 185 775 228 756 208 775 b 142 732 161 775 142 756 z m 56 818 b 99 775 56 794 75 775 b 142 818 122 775 142 794 b 99 861 142 842 122 861 b 56 818 75 861 56 842 z "},"~":{"ha":628,"x_min":0,"x_max":0,"o":"m 572 474 b 529 517 572 497 553 517 b 486 474 506 517 486 497 b 529 431 486 450 506 431 b 572 474 553 431 572 450 z m 142 388 b 99 431 142 411 122 431 b 56 388 75 431 56 411 b 99 344 56 364 75 344 b 142 388 122 344 142 364 z m 228 474 b 185 517 228 497 208 517 b 142 474 161 517 142 497 b 185 431 142 450 161 431 b 228 474 208 431 228 450 z m 314 474 b 271 517 314 497 294 517 b 228 474 247 517 228 497 b 271 431 228 450 247 431 b 314 474 294 431 314 450 z m 400 388 b 357 431 400 411 381 431 b 314 388 333 431 314 411 b 357 344 314 364 333 344 b 400 388 381 344 400 364 z m 486 388 b 443 431 486 411 467 431 b 400 388 419 431 400 411 b 443 344 400 364 419 344 b 486 388 467 344 486 364 z "},"":{"ha":744,"x_min":0,"x_max":0,"o":"m 258 818 b 215 861 258 842 239 861 b 172 818 192 861 172 842 b 215 775 172 794 192 775 b 258 818 239 775 258 794 z m 258 646 b 215 689 258 669 239 689 b 172 646 192 689 172 669 b 215 603 172 622 192 603 b 258 646 239 603 258 622 z m 258 560 b 215 603 258 583 239 603 b 172 560 192 603 172 583 b 215 517 172 536 192 517 b 258 560 239 517 258 536 z m 258 474 b 215 517 258 497 239 517 b 172 474 192 517 172 497 b 215 431 172 450 192 431 b 258 474 239 431 258 450 z m 258 388 b 215 431 258 411 239 431 b 172 388 192 431 172 411 b 215 344 172 364 192 344 b 258 388 239 344 258 364 z m 258 301 b 215 344 258 325 239 344 b 172 301 192 344 172 325 b 215 258 172 278 192 258 b 258 301 239 258 258 278 z m 258 215 b 215 258 258 239 239 258 b 172 215 192 258 172 239 b 215 172 172 192 192 172 b 258 215 239 172 258 192 z m 258 129 b 215 172 258 153 239 172 b 172 129 192 172 172 153 b 215 86 172 106 192 86 b 258 129 239 86 258 106 z m 258 43 b 215 86 258 67 239 86 b 172 43 192 86 172 67 b 215 0 172 19 192 0 b 258 43 239 0 258 19 z m 258 732 b 215 775 258 756 239 775 b 172 732 192 775 172 756 b 215 689 172 708 192 689 b 258 732 239 689 258 708 z m 689 129 b 646 172 689 153 669 172 b 603 129 622 172 603 153 b 646 86 603 106 622 86 b 689 129 669 86 689 106 z m 344 388 b 301 431 344 411 325 431 b 258 388 278 431 258 411 b 301 344 258 364 278 344 b 344 388 325 344 344 364 z m 431 474 b 388 517 431 497 411 517 b 344 474 364 517 344 497 b 388 431 344 450 364 431 b 431 474 411 431 431 450 z m 517 474 b 474 517 517 497 497 517 b 431 474 450 517 431 497 b 474 431 431 450 450 431 b 517 474 497 431 517 450 z m 603 474 b 560 517 603 497 583 517 b 517 474 536 517 517 497 b 560 431 517 450 536 431 b 603 474 583 431 603 450 z m 689 388 b 646 431 689 411 669 431 b 603 388 622 431 603 411 b 646 344 603 364 622 344 b 689 388 669 344 689 364 z m 689 301 b 646 344 689 325 669 344 b 603 301 622 344 603 325 b 646 258 603 278 622 258 b 689 301 669 258 689 278 z m 689 215 b 646 258 689 239 669 258 b 603 215 622 258 603 239 b 646 172 603 192 622 172 b 689 215 669 172 689 192 z m 172 818 b 129 861 172 842 153 861 b 86 818 106 861 86 842 b 129 775 86 794 106 775 b 172 818 153 775 172 794 z m 344 818 b 301 861 344 842 325 861 b 258 818 278 861 258 842 b 301 775 258 794 278 775 b 344 818 325 775 344 794 z m 431 818 b 388 861 431 842 411 861 b 344 818 364 861 344 842 b 388 775 344 794 364 775 b 431 818 411 775 431 794 z m 86 818 b 43 861 86 842 67 861 b 0 818 19 861 0 842 b 43 775 0 794 19 775 b 86 818 67 775 86 794 z m 603 43 b 560 86 603 67 583 86 b 517 43 536 86 517 67 b 560 0 517 19 536 0 b 603 43 583 0 603 19 z m 517 43 b 474 86 517 67 497 86 b 431 43 450 86 431 67 b 474 0 431 19 450 0 b 517 43 497 0 517 19 z "},"":{"ha":542,"x_min":0,"x_max":0,"o":"m 169 43 b 126 86 169 67 150 86 b 83 43 103 86 83 67 b 126 0 83 19 103 0 b 169 43 150 0 169 19 z m 169 215 b 126 258 169 239 150 258 b 83 215 103 258 83 239 b 126 172 83 192 103 172 b 169 215 150 172 169 192 z m 169 301 b 126 344 169 325 150 344 b 83 301 103 344 83 325 b 126 258 83 278 103 258 b 169 301 150 258 169 278 z m 169 388 b 126 431 169 411 150 431 b 83 388 103 431 83 411 b 126 344 83 364 103 344 b 169 388 150 344 169 364 z m 169 474 b 126 517 169 497 150 517 b 83 474 103 517 83 497 b 126 431 83 450 103 431 b 169 474 150 431 169 450 z m 169 560 b 126 603 169 583 150 603 b 83 560 103 603 83 583 b 126 517 83 536 103 517 b 169 560 150 517 169 536 z m 169 646 b 126 689 169 669 150 689 b 83 646 103 689 83 669 b 126 603 83 622 103 603 b 169 646 150 603 169 622 z m 169 732 b 126 775 169 756 150 775 b 83 732 103 775 83 756 b 126 689 83 708 103 689 b 169 732 150 689 169 708 z m 169 818 b 126 861 169 842 150 861 b 83 818 103 861 83 842 b 126 775 83 794 103 775 b 169 818 150 775 169 794 z m 169 129 b 126 172 169 153 150 172 b 83 129 103 172 83 153 b 126 86 83 106 103 86 b 169 129 150 86 169 106 z m 256 818 b 213 861 256 842 236 861 b 169 818 189 861 169 842 b 213 775 169 794 189 775 b 256 818 236 775 256 794 z m 342 818 b 299 861 342 842 322 861 b 256 818 275 861 256 842 b 299 775 256 794 275 775 b 342 818 322 775 342 794 z m 428 818 b 385 861 428 842 408 861 b 342 818 361 861 342 842 b 385 775 342 794 361 775 b 428 818 408 775 428 794 z m 514 818 b 471 861 514 842 494 861 b 428 818 447 861 428 842 b 471 775 428 794 447 775 b 514 818 494 775 514 794 z m 272 994 b 299 968 272 979 285 968 b 325 994 313 968 325 979 b 299 1019 325 1008 313 1019 b 272 994 285 1019 272 1008 z m 342 1076 b 385 1033 342 1053 361 1033 b 428 1076 408 1033 428 1053 b 385 1119 428 1100 408 1119 b 342 1076 361 1119 342 1100 z "},"":{"ha":243,"x_min":0,"x_max":0,"o":"m 129 -49 b 86 -6 129 -25 110 -6 b 43 -49 63 -6 43 -25 b 86 -92 43 -72 63 -92 b 129 -49 110 -92 129 -72 z m 188 58 b 129 115 188 89 161 115 b 71 58 97 115 71 89 b 129 0 71 26 97 0 b 188 58 161 0 188 26 z m 81 -124 b 54 -99 81 -110 68 -99 b 28 -124 40 -99 28 -110 b 54 -150 28 -139 40 -150 b 81 -124 68 -150 81 -139 z "},"":{"ha":442,"x_min":0,"x_max":0,"o":"m 156 43 b 113 86 156 67 136 86 b 69 43 89 86 69 67 b 113 0 69 19 89 0 b 156 43 136 0 156 19 z m 156 129 b 113 172 156 153 136 172 b 69 129 89 172 69 153 b 113 86 69 106 89 86 b 156 129 136 86 156 106 z m 156 215 b 113 258 156 239 136 258 b 69 215 89 258 69 239 b 113 172 69 192 89 172 b 156 215 136 172 156 192 z m 156 301 b 113 344 156 325 136 344 b 69 301 89 344 69 325 b 113 258 69 278 89 258 b 156 301 136 258 156 278 z m 156 388 b 113 431 156 411 136 431 b 69 388 89 431 69 411 b 113 344 69 364 89 344 b 156 388 136 344 156 364 z m 156 474 b 113 517 156 497 136 517 b 69 474 89 517 69 497 b 113 431 69 450 89 431 b 156 474 136 431 156 450 z m 156 560 b 113 603 156 583 136 603 b 69 560 89 603 69 583 b 113 517 69 536 89 517 b 156 560 136 517 156 536 z m 242 560 b 199 603 242 583 222 603 b 156 560 175 603 156 583 b 199 517 156 536 175 517 b 242 560 222 517 242 536 z m 328 560 b 285 603 328 583 308 603 b 242 560 261 603 242 583 b 285 517 242 536 261 517 b 328 560 308 517 328 536 z m 414 560 b 371 603 414 583 394 603 b 328 560 347 603 328 583 b 371 517 328 536 347 517 b 414 560 394 517 414 536 z m 172 736 b 199 710 172 721 185 710 b 225 736 213 710 225 721 b 199 761 225 750 213 761 b 172 736 185 761 172 750 z m 242 818 b 285 775 242 794 261 775 b 328 818 308 775 328 794 b 285 861 328 842 308 861 b 242 818 261 861 242 842 z "},"":{"ha":374,"x_min":0,"x_max":0,"o":"m 260 -49 b 217 -6 260 -25 240 -6 b 174 -49 193 -6 174 -25 b 217 -92 174 -72 193 -92 b 260 -49 240 -92 260 -72 z m 318 58 b 260 115 318 89 292 115 b 201 58 228 115 201 89 b 260 0 201 26 228 0 b 318 58 292 0 318 26 z m 211 -124 b 185 -99 211 -110 199 -99 b 158 -124 171 -99 158 -110 b 185 -150 158 -139 171 -150 b 211 -124 199 -150 211 -139 z m 129 -49 b 86 -6 129 -25 110 -6 b 43 -49 63 -6 43 -25 b 86 -92 43 -72 63 -92 b 129 -49 110 -92 129 -72 z m 188 58 b 129 115 188 89 161 115 b 71 58 97 115 71 89 b 129 0 71 26 97 0 b 188 58 161 0 188 26 z m 81 -124 b 54 -99 81 -110 68 -99 b 28 -124 40 -99 28 -110 b 54 -150 28 -139 40 -150 b 81 -124 68 -150 81 -139 z "},"":{"ha":603,"x_min":0,"x_max":0,"o":"m 172 58 b 114 115 172 89 146 115 b 56 58 82 115 56 89 b 114 0 56 26 82 0 b 172 58 146 0 172 26 z m 547 58 b 489 115 547 89 521 115 b 431 58 457 115 431 89 b 489 0 431 26 457 0 b 547 58 521 0 547 26 z m 360 58 b 301 115 360 89 333 115 b 243 58 269 115 243 89 b 301 0 243 26 269 0 b 360 58 333 0 360 26 z "},"":{"ha":542,"x_min":0,"x_max":0,"o":"m 314 43 b 271 86 314 67 294 86 b 228 43 247 86 228 67 b 271 0 228 19 247 0 b 314 43 294 0 314 19 z m 314 646 b 271 689 314 669 294 689 b 228 646 247 689 228 669 b 271 603 228 622 247 603 b 314 646 294 603 314 622 z m 314 732 b 271 775 314 756 294 775 b 228 732 247 775 228 756 b 271 689 228 708 247 689 b 314 732 294 689 314 708 z m 314 818 b 271 861 314 842 294 861 b 228 818 247 861 228 842 b 271 775 228 794 247 775 b 314 818 294 775 314 794 z m 314 129 b 271 172 314 153 294 172 b 228 129 247 172 228 153 b 271 86 228 106 247 86 b 314 129 294 86 314 106 z m 313 904 b 269 947 313 928 293 947 b 226 904 246 947 226 928 b 269 861 226 881 246 861 b 313 904 293 861 313 881 z m 314 215 b 271 258 314 239 294 258 b 228 215 247 258 228 239 b 271 172 228 192 247 172 b 314 215 294 172 314 192 z m 314 301 b 271 344 314 325 294 344 b 228 301 247 344 228 325 b 271 258 228 278 247 258 b 314 301 294 258 314 278 z m 314 388 b 271 431 314 411 294 431 b 228 388 247 431 228 411 b 271 344 228 364 247 344 b 314 388 294 344 314 364 z m 314 474 b 271 517 314 497 294 517 b 228 474 247 517 228 497 b 271 431 228 450 247 431 b 314 474 294 431 314 450 z m 314 -43 b 271 0 314 -19 294 0 b 228 -43 247 0 228 -19 b 271 -86 228 -67 247 -86 b 314 -43 294 -86 314 -67 z m 142 646 b 99 689 142 669 122 689 b 56 646 75 689 56 669 b 99 603 56 622 75 603 b 142 646 122 603 142 622 z m 228 646 b 185 689 228 669 208 689 b 142 646 161 689 142 669 b 185 603 142 622 161 603 b 228 646 208 603 228 622 z m 314 560 b 271 603 314 583 294 603 b 228 560 247 603 228 583 b 271 517 228 536 247 517 b 314 560 294 517 314 536 z m 400 646 b 357 689 400 669 381 689 b 314 646 333 689 314 669 b 357 603 314 622 333 603 b 400 646 381 603 400 622 z m 486 646 b 443 689 486 669 467 689 b 400 646 419 689 400 669 b 443 603 400 622 419 603 b 486 646 467 603 486 622 z "},"":{"ha":542,"x_min":0,"x_max":0,"o":"m 314 43 b 271 86 314 67 294 86 b 228 43 247 86 228 67 b 271 0 228 19 247 0 b 314 43 294 0 314 19 z m 314 646 b 271 689 314 669 294 689 b 228 646 247 689 228 669 b 271 603 228 622 247 603 b 314 646 294 603 314 622 z m 314 732 b 271 775 314 756 294 775 b 228 732 247 775 228 756 b 271 689 228 708 247 689 b 314 732 294 689 314 708 z m 314 818 b 271 861 314 842 294 861 b 228 818 247 861 228 842 b 271 775 228 794 247 775 b 314 818 294 775 314 794 z m 314 129 b 271 172 314 153 294 172 b 228 129 247 172 228 153 b 271 86 228 106 247 86 b 314 129 294 86 314 106 z m 313 904 b 269 947 313 928 293 947 b 226 904 246 947 226 928 b 269 861 226 881 246 861 b 313 904 293 861 313 881 z m 314 215 b 271 258 314 239 294 258 b 228 215 247 258 228 239 b 271 172 228 192 247 172 b 314 215 294 172 314 192 z m 314 301 b 271 344 314 325 294 344 b 228 301 247 344 228 325 b 271 258 228 278 247 258 b 314 301 294 258 314 278 z m 314 388 b 271 431 314 411 294 431 b 228 388 247 431 228 411 b 271 344 228 364 247 344 b 314 388 294 344 314 364 z m 314 474 b 271 517 314 497 294 517 b 228 474 247 517 228 497 b 271 431 228 450 247 431 b 314 474 294 431 314 450 z m 314 -43 b 271 0 314 -19 294 0 b 228 -43 247 0 228 -19 b 271 -86 228 -67 247 -86 b 314 -43 294 -86 314 -67 z m 142 646 b 99 689 142 669 122 689 b 56 646 75 689 56 669 b 99 603 56 622 75 603 b 142 646 122 603 142 622 z m 228 646 b 185 689 228 669 208 689 b 142 646 161 689 142 669 b 185 603 142 622 161 603 b 228 646 208 603 228 622 z m 314 560 b 271 603 314 583 294 603 b 228 560 247 603 228 583 b 271 517 228 536 247 517 b 314 560 294 517 314 536 z m 400 646 b 357 689 400 669 381 689 b 314 646 333 689 314 669 b 357 603 314 622 333 603 b 400 646 381 603 400 622 z m 486 646 b 443 689 486 669 467 689 b 400 646 419 689 400 669 b 443 603 400 622 419 603 b 486 646 467 603 486 622 z m 142 215 b 99 258 142 239 122 258 b 56 215 75 258 56 239 b 99 172 56 192 75 172 b 142 215 122 172 142 192 z m 228 215 b 185 258 228 239 208 258 b 142 215 161 258 142 239 b 185 172 142 192 161 172 b 228 215 208 172 228 192 z m 400 215 b 357 258 400 239 381 258 b 314 215 333 258 314 239 b 357 172 314 192 333 172 b 400 215 381 172 400 192 z m 486 215 b 443 258 486 239 467 258 b 400 215 419 258 400 239 b 443 172 400 192 419 172 b 486 215 467 172 486 192 z "},"":{"ha":628,"x_min":0,"x_max":0,"o":"m 169 215 b 126 258 169 239 150 258 b 83 215 103 258 83 239 b 126 172 83 192 103 172 b 169 215 150 172 169 192 z m 169 301 b 126 344 169 325 150 344 b 83 301 103 344 83 325 b 126 258 83 278 103 258 b 169 301 150 258 169 278 z m 169 388 b 126 431 169 411 150 431 b 83 388 103 431 83 411 b 126 344 83 364 103 344 b 169 388 150 344 169 364 z m 169 474 b 126 517 169 497 150 517 b 83 474 103 517 83 497 b 126 431 83 450 103 431 b 169 474 150 431 169 450 z m 169 560 b 126 603 169 583 150 603 b 83 560 103 603 83 583 b 126 517 83 536 103 517 b 169 560 150 517 169 536 z m 169 646 b 126 689 169 669 150 689 b 83 646 103 689 83 669 b 126 603 83 622 103 603 b 169 646 150 603 169 622 z m 169 732 b 126 775 169 756 150 775 b 83 732 103 775 83 756 b 126 689 83 708 103 689 b 169 732 150 689 169 708 z m 169 129 b 126 172 169 153 150 172 b 83 129 103 172 83 153 b 126 86 83 106 103 86 b 169 129 150 86 169 106 z m 256 43 b 213 86 256 67 236 86 b 169 43 189 86 169 67 b 213 0 169 19 189 0 b 256 43 236 0 256 19 z m 256 818 b 213 861 256 842 236 861 b 169 818 189 861 169 842 b 213 775 169 794 189 775 b 256 818 236 775 256 794 z m 342 43 b 299 86 342 67 322 86 b 256 43 275 86 256 67 b 299 0 256 19 275 0 b 342 43 322 0 342 19 z m 342 818 b 299 861 342 842 322 861 b 256 818 275 861 256 842 b 299 775 256 794 275 775 b 342 818 322 775 342 794 z m 428 43 b 385 86 428 67 408 86 b 342 43 361 86 342 67 b 385 0 342 19 361 0 b 428 43 408 0 428 19 z m 428 818 b 385 861 428 842 408 861 b 342 818 361 861 342 842 b 385 775 342 794 361 775 b 428 818 408 775 428 794 z m 514 43 b 471 86 514 67 494 86 b 428 43 447 86 428 67 b 471 0 428 19 447 0 b 514 43 494 0 514 19 z m 514 818 b 471 861 514 842 494 861 b 428 818 447 861 428 842 b 471 775 428 794 447 775 b 514 818 494 775 514 794 z m 600 43 b 557 86 600 67 581 86 b 514 43 533 86 514 67 b 557 0 514 19 533 0 b 600 43 581 0 600 19 z m 600 732 b 557 775 600 756 581 775 b 514 732 533 775 514 756 b 557 689 514 708 533 689 b 600 732 581 689 600 708 z m 256 474 b 213 517 256 497 236 517 b 169 474 189 517 169 497 b 213 431 169 450 189 431 b 256 474 236 431 256 450 z m 342 474 b 299 517 342 497 322 517 b 256 474 275 517 256 497 b 299 431 256 450 275 431 b 342 474 322 431 342 450 z m 428 474 b 385 517 428 497 408 517 b 342 474 361 517 342 497 b 385 431 342 450 361 431 b 428 474 408 431 428 450 z m 514 474 b 471 517 514 497 494 517 b 428 474 447 517 428 497 b 471 431 428 450 447 431 b 514 474 494 431 514 450 z m 256 301 b 213 344 256 325 236 344 b 169 301 189 344 169 325 b 213 258 169 278 189 258 b 256 301 236 258 256 278 z m 342 301 b 299 344 342 325 322 344 b 256 301 275 344 256 325 b 299 258 256 278 275 258 b 342 301 322 258 342 278 z m 428 301 b 385 344 428 325 408 344 b 342 301 361 344 342 325 b 385 258 342 278 361 258 b 428 301 408 258 428 278 z "},"":{"ha":757,"x_min":0,"x_max":0,"o":"m 142 43 b 99 86 142 67 122 86 b 56 43 75 86 56 67 b 99 0 56 19 75 0 b 142 43 122 0 142 19 z m 142 732 b 99 775 142 756 122 775 b 56 732 75 775 56 756 b 99 689 56 708 75 689 b 142 732 122 689 142 708 z m 142 818 b 99 861 142 842 122 861 b 56 818 75 861 56 842 b 99 775 56 794 75 775 b 142 818 122 775 142 794 z m 228 215 b 185 258 228 239 208 258 b 142 215 161 258 142 239 b 185 172 142 192 161 172 b 228 215 208 172 228 192 z m 228 818 b 185 861 228 842 208 861 b 142 818 161 861 142 842 b 185 775 142 794 161 775 b 228 818 208 775 228 794 z m 228 129 b 185 172 228 153 208 172 b 142 129 161 172 142 153 b 185 86 142 106 161 86 b 228 129 208 86 228 106 z m 314 301 b 271 344 314 325 294 344 b 228 301 247 344 228 325 b 271 258 228 278 247 258 b 314 301 294 258 314 278 z m 314 388 b 271 431 314 411 294 431 b 228 388 247 431 228 411 b 271 344 228 364 247 344 b 314 388 294 344 314 364 z m 400 474 b 357 517 400 497 381 517 b 314 474 333 517 314 497 b 357 431 314 450 333 431 b 400 474 381 431 400 450 z m 400 560 b 357 603 400 583 381 603 b 314 560 333 603 314 583 b 357 517 314 536 333 517 b 400 560 381 517 400 536 z m 400 43 b 357 86 400 67 381 86 b 314 43 333 86 314 67 b 357 0 314 19 333 0 b 400 43 381 0 400 19 z m 486 646 b 443 689 486 669 467 689 b 400 646 419 689 400 669 b 443 603 400 622 419 603 b 486 646 467 603 486 622 z m 486 732 b 443 775 486 756 467 775 b 400 732 419 775 400 756 b 443 689 400 708 419 689 b 486 732 467 689 486 708 z m 486 43 b 443 86 486 67 467 86 b 400 43 419 86 400 67 b 443 0 400 19 419 0 b 486 43 467 0 486 19 z m 572 818 b 529 861 572 842 553 861 b 486 818 506 861 486 842 b 529 775 486 794 506 775 b 572 818 553 775 572 794 z m 486 129 b 443 172 486 153 467 172 b 400 129 419 172 400 153 b 443 86 400 106 419 86 b 486 129 467 86 486 106 z m 615 43 b 572 86 615 67 596 86 b 529 43 549 86 529 67 b 572 0 529 19 549 0 b 615 43 596 0 615 19 z m 701 43 b 658 86 701 67 682 86 b 615 43 635 86 615 67 b 658 0 615 19 635 0 b 701 43 682 0 701 19 z m 701 129 b 658 172 701 153 682 172 b 615 129 635 172 615 153 b 658 86 615 106 635 86 b 701 129 682 86 701 106 z "},"":{"ha":917,"x_min":0,"x_max":0,"o":"m 86 43 b 43 86 86 67 67 86 b 0 43 19 86 0 67 b 43 0 0 19 19 0 b 86 43 67 0 86 19 z m 172 646 b 129 689 172 669 153 689 b 86 646 106 689 86 669 b 129 603 86 622 106 603 b 172 646 153 603 172 622 z m 172 732 b 129 775 172 756 153 775 b 86 732 106 775 86 756 b 129 689 86 708 106 689 b 172 732 153 689 172 708 z m 172 129 b 129 172 172 153 153 172 b 86 129 106 172 86 153 b 129 86 86 106 106 86 b 172 129 153 86 172 106 z m 258 818 b 215 861 258 842 239 861 b 172 818 192 861 172 842 b 215 775 172 794 192 775 b 258 818 239 775 258 794 z m 344 818 b 301 861 344 842 325 861 b 258 818 278 861 258 842 b 301 775 258 794 278 775 b 344 818 325 775 344 794 z m 431 818 b 388 861 431 842 411 861 b 344 818 364 861 344 842 b 388 775 344 794 364 775 b 431 818 411 775 431 794 z m 517 43 b 474 86 517 67 497 86 b 431 43 450 86 431 67 b 474 0 431 19 450 0 b 517 43 497 0 517 19 z m 517 646 b 474 689 517 669 497 689 b 431 646 450 689 431 669 b 474 603 431 622 450 603 b 517 646 497 603 517 622 z m 517 732 b 474 775 517 756 497 775 b 431 732 450 775 431 756 b 474 689 431 708 450 689 b 517 732 497 689 517 708 z m 517 818 b 474 861 517 842 497 861 b 431 818 450 861 431 842 b 474 775 431 794 450 775 b 517 818 497 775 517 794 z m 517 129 b 474 172 517 153 497 172 b 431 129 450 172 431 153 b 474 86 431 106 450 86 b 517 129 497 86 517 106 z m 603 43 b 560 86 603 67 583 86 b 517 43 536 86 517 67 b 560 0 517 19 536 0 b 603 43 583 0 603 19 z m 603 474 b 560 517 603 497 583 517 b 517 474 536 517 517 497 b 560 431 517 450 536 431 b 603 474 583 431 603 450 z m 689 43 b 646 86 689 67 669 86 b 603 43 622 86 603 67 b 646 0 603 19 622 0 b 689 43 669 0 689 19 z m 689 560 b 646 603 689 583 669 603 b 603 560 622 603 603 583 b 646 517 603 536 622 517 b 689 560 669 517 689 536 z m 172 215 b 129 258 172 239 153 258 b 86 215 106 258 86 239 b 129 172 86 192 106 172 b 172 215 153 172 172 192 z m 172 301 b 129 344 172 325 153 344 b 86 301 106 344 86 325 b 129 258 86 278 106 258 b 172 301 153 258 172 278 z m 172 388 b 129 431 172 411 153 431 b 86 388 106 431 86 411 b 129 344 86 364 106 344 b 172 388 153 344 172 364 z m 172 474 b 129 517 172 497 153 517 b 86 474 106 517 86 497 b 129 431 86 450 106 431 b 172 474 153 431 172 450 z m 172 560 b 129 603 172 583 153 603 b 86 560 106 603 86 583 b 129 517 86 536 106 517 b 172 560 153 517 172 536 z m 517 215 b 474 258 517 239 497 258 b 431 215 450 258 431 239 b 474 172 431 192 450 172 b 517 215 497 172 517 192 z m 517 301 b 474 344 517 325 497 344 b 431 301 450 344 431 325 b 474 258 431 278 450 258 b 517 301 497 258 517 278 z m 517 388 b 474 431 517 411 497 431 b 431 388 450 431 431 411 b 474 344 431 364 450 344 b 517 388 497 344 517 364 z m 517 474 b 474 517 517 497 497 517 b 431 474 450 517 431 497 b 474 431 431 450 450 431 b 517 474 497 431 517 450 z m 517 560 b 474 603 517 583 497 603 b 431 560 450 603 431 583 b 474 517 431 536 450 517 b 517 560 497 517 517 536 z m 775 43 b 732 86 775 67 756 86 b 689 43 708 86 689 67 b 732 0 689 19 708 0 b 775 43 756 0 775 19 z m 861 129 b 818 172 861 153 842 172 b 775 129 794 172 775 153 b 818 86 775 106 794 86 b 861 129 842 86 861 106 z m 861 215 b 818 258 861 239 842 258 b 775 215 794 258 775 239 b 818 172 775 192 794 172 b 861 215 842 172 861 192 z m 861 301 b 818 344 861 325 842 344 b 775 301 794 344 775 325 b 818 258 775 278 794 258 b 861 301 842 258 861 278 z m 861 388 b 818 431 861 411 842 431 b 775 388 794 431 775 411 b 818 344 775 364 794 344 b 861 388 842 344 861 364 z m 861 474 b 818 517 861 497 842 517 b 775 474 794 517 775 497 b 818 431 775 450 794 431 b 861 474 842 431 861 450 z m 775 560 b 732 603 775 583 756 603 b 689 560 708 603 689 583 b 732 517 689 536 708 517 b 775 560 756 517 775 536 z "},"":{"ha":456,"x_min":0,"x_max":0,"o":"m 228 215 b 185 258 228 239 208 258 b 142 215 161 258 142 239 b 185 172 142 192 161 172 b 228 215 208 172 228 192 z m 228 388 b 185 431 228 411 208 431 b 142 388 161 431 142 411 b 185 344 142 364 161 344 b 228 388 208 344 228 364 z m 142 301 b 99 344 142 325 122 344 b 56 301 75 344 56 325 b 99 258 56 278 75 258 b 142 301 122 258 142 278 z m 314 129 b 271 172 314 153 294 172 b 228 129 247 172 228 153 b 271 86 228 106 247 86 b 314 129 294 86 314 106 z m 400 43 b 357 86 400 67 381 86 b 314 43 333 86 314 67 b 357 0 314 19 333 0 b 400 43 381 0 400 19 z m 314 474 b 271 517 314 497 294 517 b 228 474 247 517 228 497 b 271 431 228 450 247 431 b 314 474 294 431 314 450 z m 400 560 b 357 603 400 583 381 603 b 314 560 333 603 314 583 b 357 517 314 536 333 517 b 400 560 381 517 400 536 z "}}}
